Rubik-Gemstones-Regular.ufo
<glyph name="quotedbl" format="2">
	<advance width="519"/>
	<unicode hex="0022"/>
	<outline>
		<contour>
			<point x="320.085" y="448.932" type="line"/>
			<point x="373.333" y="389" type="line"/>
			<point x="400.667" y="418" type="line"/>
			<point x="424.254" y="400.043" type="line"/>
			<point x="444.254" y="421.925" type="line"/>
			<point x="485.048" y="443.551" type="line"/>
			<point x="457.576" y="480.661" type="line"/>
			<point x="485.157" y="501.592" type="line"/>
			<point x="463.068" y="528.254" type="line"/>
			<point x="503.636" y="565.772" type="line"/>
			<point x="472.678" y="611.542" type="line"/>
			<point x="502.351" y="642.53" type="line"/>
			<point x="480.354" y="679.365" type="line"/>
			<point x="454.363" y="703.616" type="line"/>
			<point x="419" y="700" type="line"/>
			<point x="389" y="726" type="line"/>
			<point x="359" y="700" type="line"/>
			<point x="324.494" y="722.027" type="line"/>
			<point x="296.214" y="692.429" type="line"/>
			<point x="282.005" y="657.064" type="line"/>
			<point x="299.949" y="623.441" type="line"/>
			<point x="287.863" y="599.942" type="line"/>
			<point x="304.983" y="579.814" type="line"/>
			<point x="291.726" y="548.142" type="line"/>
			<point x="311.847" y="520.322" type="line"/>
			<point x="297.191" y="482.461" type="line"/>
		</contour>
		<contour>
			<point x="64.169" y="456.864" type="line"/>
			<point x="116.381" y="391" type="line"/>
			<point x="141.762" y="418" type="line"/>
			<point x="162.256" y="383.375" type="line"/>
			<point x="181.448" y="418.739" type="line"/>
			<point x="223.967" y="421.732" type="line"/>
			<point x="199.831" y="456.864" type="line"/>
			<point x="219.485" y="486.748" type="line"/>
			<point x="207.153" y="520.322" type="line"/>
			<point x="232.59" y="557.576" type="line"/>
			<point x="216.305" y="599.644" type="line"/>
			<point x="245.869" y="636.663" type="line"/>
			<point x="225.354" y="679.365" type="line"/>
			<point x="199.14" y="702.952" type="line"/>
			<point x="164" y="700" type="line"/>
			<point x="138" y="727" type="line"/>
			<point x="112" y="700" type="line"/>
			<point x="75.763" y="733.867" type="line"/>
			<point x="43.886" y="695.867" type="line"/>
			<point x="16.116" y="652.867" type="line"/>
			<point x="46.322" y="611.542" type="line"/>
			<point x="23.161" y="576.719" type="line"/>
			<point x="53.644" y="548.085" type="line"/>
			<point x="26.816" y="518.866" type="line"/>
			<point x="59.593" y="496.525" type="line"/>
			<point x="33.072" y="473.371" type="line"/>
		</contour>
		<contour>
			<point x="438.631" y="566.693" type="line"/>
			<point x="422.166" y="536.161" type="line"/>
			<point x="393.444" y="546.444" type="line"/>
			<point x="384.943" y="574.258" type="line"/>
			<point x="413.693" y="591.631" type="line"/>
		</contour>
		<contour>
			<point x="365.744" y="638.25" type="line"/>
			<point x="363.726" y="623.142" type="line"/>
			<point x="346.159" y="624.679" type="line"/>
			<point x="344.033" y="641.08" type="line"/>
			<point x="356.872" y="645.962" type="line"/>
		</contour>
		<contour>
			<point x="106.492" y="604.544" type="line"/>
			<point x="114.961" y="584.884" type="line"/>
			<point x="102.145" y="573.386" type="line"/>
			<point x="84.583" y="576.991" type="line"/>
			<point x="87.509" y="595.642" type="line"/>
		</contour>
		<contour>
			<point x="430.419" y="483.135" type="line"/>
			<point x="423.27" y="468.223" type="line"/>
			<point x="404.302" y="464.028" type="line"/>
			<point x="405.663" y="482.762" type="line"/>
			<point x="416.523" y="493.991" type="line"/>
		</contour>
		<contour>
			<point x="153.492" y="670.551" type="line"/>
			<point x="144.776" y="643.088" type="line"/>
			<point x="119.375" y="646.248" type="line"/>
			<point x="102.123" y="669.993" type="line"/>
			<point x="129.232" y="683.987" type="line"/>
		</contour>
	</outline>
</glyph>
<glyph name="dollar" format="2">
	<advance width="711"/>
	<unicode hex="0024"/>
	<outline>
		<contour>
			<point x="285" y="-57.182" type="line"/>
			<point x="315.419" y="-112" type="line"/>
			<point x="338.839" y="-80" type="line"/>
			<point x="368.113" y="-104" type="line"/>
			<point x="397.387" y="-80" type="line"/>
			<point x="424.604" y="-84.358" type="line"/>
			<point x="420" y="-57.182" type="line"/>
			<point x="453" y="-27.523" type="line"/>
			<point x="420" y="2.136" type="line"/>
			<point x="458.737" y="-9.561" type="line"/>
			<point x="479.266" y="25.309" type="line"/>
			<point x="510.373" y="8.257" type="line"/>
			<point x="525.066" y="40.546" type="line"/>
			<point x="553.767" y="32.455" type="line"/>
			<point x="564.698" y="60.199" type="line"/>
			<point x="615.694" y="51.108" type="line"/>
			<point x="617.884" y="102.862" type="line"/>
			<point x="656.783" y="128.978" type="line"/>
			<point x="659.125" y="175.772" type="line"/>
			<point x="693.197" y="205.894" type="line"/>
			<point x="665.559" y="242.01" type="line"/>
			<point x="686.823" y="274.523" type="line"/>
			<point x="655.05" y="296.878" type="line"/>
			<point x="657.844" y="333.811" type="line"/>
			<point x="623.369" y="347.353" type="line"/>
			<point x="611.7" y="394.642" type="line"/>
			<point x="563.614" y="386.887" type="line"/>
			<point x="541.699" y="409.247" type="line"/>
			<point x="510.661" y="405.135" type="line"/>
			<point x="480.145" y="435.676" type="line"/>
			<point x="440.082" y="419.584" type="line"/>
			<point x="403.783" y="452.419" type="line"/>
			<point x="359.667" y="431.217" type="line"/>
			<point x="344.383" y="453.275" type="line"/>
			<point x="320.287" y="441.46" type="line"/>
			<point x="312.681" y="472.321" type="line"/>
			<point x="280.945" y="474.084" type="line"/>
			<point x="308.832" y="489.755" type="line"/>
			<point x="287.371" y="513.475" type="line"/>
			<point x="311.794" y="510.203" type="line"/>
			<point x="321.967" y="532.647" type="line"/>
			<point x="352.763" y="506.124" type="line"/>
			<point x="387.618" y="527.028" type="line"/>
			<point x="421.34" y="494.035" type="line"/>
			<point x="468" y="501" type="line"/>
			<point x="506" y="476.5" type="line"/>
			<point x="544" y="501" type="line"/>
			<point x="566" y="482.8" type="line"/>
			<point x="588" y="501" type="line"/>
			<point x="612" y="485.6" type="line"/>
			<point x="636" y="501" type="line"/>
			<point x="659.121" y="531.783" type="line"/>
			<point x="627.051" y="553.085" type="line"/>
			<point x="633.596" y="590.074" type="line"/>
			<point x="596.409" y="595.386" type="line"/>
			<point x="586.562" y="634.296" type="line"/>
			<point x="546.459" y="635.943" type="line"/>
			<point x="530.148" y="675.372" type="line"/>
			<point x="488.837" y="664.692" type="line"/>
			<point x="463.292" y="701.131" type="line"/>
			<point x="420" y="690.826" type="line"/>
			<point x="455" y="710.391" type="line"/>
			<point x="420" y="729.957" type="line"/>
			<point x="418.425" y="765.668" type="line"/>
			<point x="385.677" y="780" type="line"/>
			<point x="352.5" y="802" type="line"/>
			<point x="319.323" y="780" type="line"/>
			<point x="287.732" y="776.938" type="line"/>
			<point x="285" y="745.318" type="line"/>
			<point x="246.084" y="717.838" type="line"/>
			<point x="281.003" y="685.431" type="line"/>
			<point x="253.463" y="709.403" type="line"/>
			<point x="237.533" y="676.549" type="line"/>
			<point x="207.087" y="704.399" type="line"/>
			<point x="199.241" y="663.889" type="line"/>
			<point x="152.355" y="677.916" type="line"/>
			<point x="139.408" y="630.721" type="line"/>
			<point x="107.692" y="635.72" type="line"/>
			<point x="109.547" y="603.666" type="line"/>
			<point x="78.303" y="593.307" type="line"/>
			<point x="80.127" y="560.441" type="line"/>
			<point x="52.51" y="537.104" type="line"/>
			<point x="63.3" y="502.593" type="line"/>
			<point x="34.439" y="465.416" type="line"/>
			<point x="67.47" y="431.89" type="line"/>
			<point x="42.799" y="401" type="line"/>
			<point x="81.734" y="394.155" type="line"/>
			<point x="82.847" y="356.245" type="line"/>
			<point x="119.702" y="347.292" type="line"/>
			<point x="140.396" y="311.262" type="line"/>
			<point x="181.929" y="310.075" type="line"/>
			<point x="208.674" y="280.483" type="line"/>
			<point x="247.493" y="289.655" type="line"/>
			<point x="266.078" y="267.735" type="line"/>
			<point x="291.241" y="281.616" type="line"/>
			<point x="323.96" y="256.201" type="line"/>
			<point x="362.68" y="270.939" type="line"/>
			<point x="384.822" y="239.069" type="line"/>
			<point x="420.522" y="254.285" type="line"/>
			<point x="414.21" y="220.233" type="line"/>
			<point x="448.77" y="218.005" type="line"/>
			<point x="424.104" y="206.678" type="line"/>
			<point x="429.351" y="180.047" type="line"/>
			<point x="390.783" y="188.973" type="line"/>
			<point x="359.247" y="165.043" type="line"/>
			<point x="340.465" y="192.77" type="line"/>
			<point x="316.963" y="168.912" type="line"/>
			<point x="303.229" y="203.249" type="line"/>
			<point x="268" y="192" type="line"/>
			<point x="235.419" y="225.394" type="line"/>
			<point x="193.458" y="205" type="line"/>
			<point x="163.771" y="223.9" type="line"/>
			<point x="134.083" y="205" type="line"/>
			<point x="96.479" y="223.2" type="line"/>
			<point x="58.875" y="205" type="line"/>
			<point x="33.272" y="188.178" type="line"/>
			<point x="50.891" y="163.117" type="line"/>
			<point x="37.859" y="122.641" type="line"/>
			<point x="78.276" y="109.428" type="line"/>
			<point x="74.322" y="71.092" type="line"/>
			<point x="112.625" y="75.351" type="line"/>
			<point x="126.564" y="26.187" type="line"/>
			<point x="175.829" y="39.761" type="line"/>
			<point x="186.959" y="2.427" type="line"/>
			<point x="218.052" y="25.898" type="line"/>
			<point x="241.596" y="-17.567" type="line"/>
			<point x="285" y="6.091" type="line"/>
			<point x="251" y="-25.545" type="line"/>
		</contour>
		<contour>
			<point x="235.998" y="547.262" type="line"/>
			<point x="224.907" y="535.654" type="line"/>
			<point x="209.819" y="538.575" type="line"/>
			<point x="202.16" y="560.192" type="line"/>
			<point x="224.801" y="559.432" type="line"/>
		</contour>
		<contour>
			<point x="543.331" y="328.205" type="line"/>
			<point x="544.994" y="295.849" type="line"/>
			<point x="503.914" y="286.57" type="line"/>
			<point x="503.538" y="324.724" type="line"/>
			<point x="521.908" y="343.909" type="line"/>
		</contour>
		<contour>
			<point x="386.766" y="695.66" type="line"/>
			<point x="403.602" y="666.644" type="line"/>
			<point x="373.576" y="643.005" type="line"/>
			<point x="339.907" y="664.605" type="line"/>
			<point x="352.538" y="703.154" type="line"/>
		</contour>
		<contour>
			<point x="364.458" y="-14.382" type="line"/>
			<point x="357.659" y="-47.389" type="line"/>
			<point x="335.311" y="-64.59" type="line"/>
			<point x="319.204" y="-40.923" type="line"/>
			<point x="325.972" y="-9.239" type="line"/>
		</contour>
		<contour>
			<point x="249.023" y="172.929" type="line"/>
			<point x="271.257" y="150.048" type="line"/>
			<point x="268.727" y="109.23" type="line"/>
			<point x="226.431" y="119.487" type="line"/>
			<point x="219.184" y="155.238" type="line"/>
		</contour>
		<contour>
			<point x="186.035" y="618.472" type="line"/>
			<point x="182.698" y="598.028" type="line"/>
			<point x="164.849" y="603.881" type="line"/>
			<point x="152.736" y="618.237" type="line"/>
			<point x="170.442" y="628.99" type="line"/>
		</contour>
		<contour>
			<point x="204.406" y="400.838" type="line"/>
			<point x="194.539" y="380.735" type="line"/>
			<point x="173.43" y="382.211" type="line"/>
			<point x="172.019" y="401.244" type="line"/>
			<point x="185.767" y="406.973" type="line"/>
		</contour>
		<contour>
			<point x="452.164" y="610.712" type="line"/>
			<point x="456.848" y="599.264" type="line"/>
			<point x="448.392" y="591.097" type="line"/>
			<point x="434.417" y="594.863" type="line"/>
			<point x="440.053" y="608.193" type="line"/>
		</contour>
		<contour>
			<point x="421.757" y="335.994" type="line"/>
			<point x="434.614" y="317.993" type="line"/>
			<point x="415.828" y="307.112" type="line"/>
			<point x="403.124" y="316.929" type="line"/>
			<point x="401.724" y="335.164" type="line"/>
		</contour>
		<contour>
			<point x="288.812" y="342.761" type="line"/>
			<point x="295.988" y="336.471" type="line"/>
			<point x="289.867" y="328.531" type="line"/>
			<point x="281.56" y="331.595" type="line"/>
			<point x="281.129" y="339.812" type="line"/>
		</contour>
		<contour>
			<point x="588.286" y="173.786" type="line"/>
			<point x="587.094" y="150.879" type="line"/>
			<point x="562.622" y="141.908" type="line"/>
			<point x="550.084" y="165.917" type="line"/>
			<point x="567.501" y="183.487" type="line"/>
		</contour>
		<contour>
			<point x="282.442" y="440.729" type="line"/>
			<point x="316.532" y="424.945" type="line"/>
			<point x="290.804" y="395.834" type="line"/>
			<point x="258.494" y="398.494" type="line"/>
			<point x="252.27" y="432.62" type="line"/>
		</contour>
		<contour>
			<point x="442.634" y="115.755" type="line"/>
			<point x="456.602" y="82.644" type="line"/>
			<point x="426.489" y="64.004" type="line"/>
			<point x="400.471" y="83.21" type="line"/>
			<point x="406.14" y="118.355" type="line"/>
		</contour>
		<contour>
			<point x="135.384" y="509.098" type="line"/>
			<point x="138.216" y="474.299" type="line"/>
			<point x="104.792" y="471.447" type="line"/>
			<point x="89.015" y="494.838" type="line"/>
			<point x="106.385" y="517.07" type="line"/>
		</contour>
	</outline>
</glyph>
<glyph name="percent" format="2">
	<advance width="846"/>
	<unicode hex="0025"/>
	<outline>
		<contour>
			<point x="133.327" y="66.22" type="line"/>
			<point x="144" y="-14" type="line"/>
			<point x="174" y="10" type="line"/>
			<point x="198.132" y="-15.939" type="line"/>
			<point x="222.132" y="10.122" type="line"/>
			<point x="264.229" y="14.764" type="line"/>
			<point x="270.098" y="56.707" type="line"/>
			<point x="311.711" y="75.103" type="line"/>
			<point x="318.293" y="120.122" type="line"/>
			<point x="363.887" y="135.492" type="line"/>
			<point x="366.488" y="183.537" type="line"/>
			<point x="403.313" y="203.07" type="line"/>
			<point x="412.273" y="243.78" type="line"/>
			<point x="447.517" y="267.017" type="line"/>
			<point x="460.468" y="307.195" type="line"/>
			<point x="494.613" y="316.26" type="line"/>
			<point x="494.205" y="351.585" type="line"/>
			<point x="526.858" y="366.786" type="line"/>
			<point x="532.761" y="402.317" type="line"/>
			<point x="561.89" y="415.194" type="line"/>
			<point x="566.498" y="446.707" type="line"/>
			<point x="613.254" y="453.691" type="line"/>
			<point x="607.463" y="500.61" type="line"/>
			<point x="647.484" y="520.215" type="line"/>
			<point x="655.659" y="564.024" type="line"/>
			<point x="710.806" y="572.133" type="line"/>
			<point x="703.854" y="627.439" type="line"/>
			<point x="749.203" y="638.626" type="line"/>
			<point x="740.817" y="684.576" type="line"/>
			<point x="704.944" y="723.199" type="line"/>
			<point x="664" y="690" type="line"/>
			<point x="641.878" y="709.939" type="line"/>
			<point x="619.868" y="689.878" type="line"/>
			<point x="577.898" y="678.95" type="line"/>
			<point x="567.083" y="636.951" type="line"/>
			<point x="531.107" y="629.278" type="line"/>
			<point x="533.346" y="592.561" type="line"/>
			<point x="485.019" y="591.774" type="line"/>
			<point x="497.2" y="545" type="line"/>
			<point x="450.874" y="545.193" type="line"/>
			<point x="463.463" y="500.61" type="line"/>
			<point x="431.367" y="484.986" type="line"/>
			<point x="424.907" y="449.878" type="line"/>
			<point x="396.426" y="439.01" type="line"/>
			<point x="393.58" y="408.659" type="line"/>
			<point x="364.165" y="403.503" type="line"/>
			<point x="367.073" y="373.78" type="line"/>
			<point x="324.207" y="361.339" type="line"/>
			<point x="323.698" y="316.707" type="line"/>
			<point x="286.872" y="297.174" type="line"/>
			<point x="277.912" y="256.463" type="line"/>
			<point x="240.322" y="245.014" type="line"/>
			<point x="239.356" y="205.732" type="line"/>
			<point x="188.619" y="201.774" type="line"/>
			<point x="198.39" y="151.829" type="line"/>
			<point x="159.659" y="153.753" type="line"/>
			<point x="171.883" y="116.951" type="line"/>
			<point x="127.924" y="110.343" type="line"/>
		</contour>
		<contour>
			<point x="155.696" y="357.579" type="line"/>
			<point x="228.412" y="346.115" type="line"/>
			<point x="261.492" y="367.565" type="line"/>
			<point x="295.068" y="371.899" type="line"/>
			<point x="311.236" y="401.642" type="line"/>
			<point x="342.101" y="406.25" type="line"/>
			<point x="332.514" y="435.948" type="line"/>
			<point x="355.391" y="468.015" type="line"/>
			<point x="343.711" y="505.635" type="line"/>
			<point x="364.393" y="541.44" type="line"/>
			<point x="341.692" y="576" type="line"/>
			<point x="370.407" y="610.87" type="line"/>
			<point x="327.822" y="625.933" type="line"/>
			<point x="328.708" y="670.246" type="line"/>
			<point x="284.425" y="672.089" type="line"/>
			<point x="266.132" y="703.303" type="line"/>
			<point x="231.99" y="691.334" type="line"/>
			<point x="191.174" y="730.514" type="line"/>
			<point x="150.013" y="691.696" type="line"/>
			<point x="120.999" y="710.996" type="line"/>
			<point x="107.914" y="678.698" type="line"/>
			<point x="64.608" y="684.81" type="line"/>
			<point x="61.573" y="641.18" type="line"/>
			<point x="25.445" y="623.457" type="line"/>
			<point x="39.481" y="585.744" type="line"/>
			<point x="-1.094" y="547.66" type="line"/>
			<point x="36.267" y="506.418" type="line"/>
			<point x="19.366" y="473.157" type="line"/>
			<point x="44.123" y="445.246" type="line"/>
			<point x="38.171" y="400.327" type="line"/>
			<point x="82.014" y="388.883" type="line"/>
			<point x="104.387" y="339.177" type="line"/>
		</contour>
		<contour>
			<point x="218.46" y="458.167" type="line"/>
			<point x="181.079" y="464.14" type="line"/>
			<point x="158.156" y="465.175" type="line"/>
			<point x="173.019" y="487.463" type="line"/>
			<point x="153.776" y="506.101" type="line"/>
			<point x="171.461" y="526.17" type="line"/>
			<point x="153.867" y="546.318" type="line"/>
			<point x="166.42" y="565.393" type="line"/>
			<point x="159.56" y="587.173" type="line"/>
			<point x="183.592" y="583.972" type="line"/>
			<point x="194.152" y="605.796" type="line"/>
			<point x="200.782" y="584.07" type="line"/>
			<point x="223.104" y="579.864" type="line"/>
			<point x="213.001" y="558.448" type="line"/>
			<point x="226.345" y="538.887" type="line"/>
			<point x="210.473" y="518.935" type="line"/>
			<point x="225.959" y="498.682" type="line"/>
			<point x="204.382" y="481.724" type="line"/>
		</contour>
		<contour>
			<point x="605.814" y="10.771" type="line"/>
			<point x="681.142" y="-22.639" type="line"/>
			<point x="700.323" y="9.425" type="line"/>
			<point x="726.905" y="-5.794" type="line"/>
			<point x="738.606" y="22.514" type="line"/>
			<point x="778.928" y="13.388" type="line"/>
			<point x="779.88" y="54.719" type="line"/>
			<point x="812.915" y="69.873" type="line"/>
			<point x="804.64" y="105.263" type="line"/>
			<point x="828.198" y="137" type="line"/>
			<point x="809.884" y="172.027" type="line"/>
			<point x="838.176" y="211.121" type="line"/>
			<point x="804.624" y="245.806" type="line"/>
			<point x="817.503" y="288.234" type="line"/>
			<point x="775.374" y="302.061" type="line"/>
			<point x="770.267" y="340.596" type="line"/>
			<point x="732.557" y="331.162" type="line"/>
			<point x="715.591" y="361.375" type="line"/>
			<point x="686.099" y="343.183" type="line"/>
			<point x="642.207" y="358.188" type="line"/>
			<point x="600.323" y="338.251" type="line"/>
			<point x="560.738" y="331.495" type="line"/>
			<point x="535.191" y="300.512" type="line"/>
			<point x="497.431" y="278.635" type="line"/>
			<point x="505.481" y="235.744" type="line"/>
			<point x="484.488" y="215.859" type="line"/>
			<point x="502.605" y="193.324" type="line"/>
			<point x="482.699" y="151.201" type="line"/>
			<point x="506.153" y="110.946" type="line"/>
			<point x="503.041" y="68.939" type="line"/>
			<point x="539.046" y="47.078" type="line"/>
			<point x="558.577" y="3.448" type="line"/>
		</contour>
		<contour>
			<point x="684.46" y="108.167" type="line"/>
			<point x="646.239" y="112.934" type="line"/>
			<point x="624.156" y="115.175" type="line"/>
			<point x="640.968" y="137.672" type="line"/>
			<point x="619.776" y="156.101" type="line"/>
			<point x="629.621" y="176.187" type="line"/>
			<point x="619.867" y="196.318" type="line"/>
			<point x="633.875" y="215.19" type="line"/>
			<point x="625.56" y="237.173" type="line"/>
			<point x="651.218" y="230.952" type="line"/>
			<point x="660.152" y="255.796" type="line"/>
			<point x="665.801" y="232.975" type="line"/>
			<point x="689.104" y="229.864" type="line"/>
			<point x="671.674" y="207.868" type="line"/>
			<point x="692.345" y="188.887" type="line"/>
			<point x="680.393" y="168.898" type="line"/>
			<point x="691.959" y="148.682" type="line"/>
			<point x="669.9" y="131.814" type="line"/>
		</contour>
		<contour>
			<point x="295.785" y="490.62" type="line"/>
			<point x="296.011" y="477.691" type="line"/>
			<point x="284.076" y="474.437" type="line"/>
			<point x="277.002" y="483.825" type="line"/>
			<point x="283.419" y="494.401" type="line"/>
		</contour>
		<contour>
			<point x="573.004" y="502.244" type="line"/>
			<point x="582.854" y="485.502" type="line"/>
			<point x="564.232" y="470.013" type="line"/>
			<point x="546.736" y="486.763" type="line"/>
			<point x="557.73" y="502.777" type="line"/>
		</contour>
		<contour>
			<point x="134.854" y="643.088" type="line"/>
			<point x="127.452" y="625.721" type="line"/>
			<point x="105.613" y="627.107" type="line"/>
			<point x="104.99" y="648.981" type="line"/>
			<point x="122.778" y="656.757" type="line"/>
		</contour>
		<contour>
			<point x="282.977" y="167.966" type="line"/>
			<point x="295.584" y="157.387" type="line"/>
			<point x="289.949" y="141.279" type="line"/>
			<point x="273.644" y="144.041" type="line"/>
			<point x="269.947" y="158.87" type="line"/>
		</contour>
		<contour>
			<point x="123.488" y="518.983" type="line"/>
			<point x="128.822" y="513.452" type="line"/>
			<point x="128.299" y="503.52" type="line"/>
			<point x="119.143" y="507.404" type="line"/>
			<point x="116.51" y="514.622" type="line"/>
		</contour>
		<contour>
			<point x="788.908" y="259.619" type="line"/>
			<point x="787.213" y="239.445" type="line"/>
			<point x="763.342" y="235.343" type="line"/>
			<point x="753.653" y="259.322" type="line"/>
			<point x="773.465" y="275.946" type="line"/>
		</contour>
		<contour>
			<point x="579.663" y="129.776" type="line"/>
			<point x="580.871" y="122.188" type="line"/>
			<point x="573.188" y="119.239" type="line"/>
			<point x="569.008" y="125.686" type="line"/>
			<point x="571.775" y="134.402" type="line"/>
		</contour>
		<contour>
			<point x="447.015" y="357.734" type="line"/>
			<point x="452.563" y="349.076" type="line"/>
			<point x="443.14" y="344.001" type="line"/>
			<point x="432.599" y="348.419" type="line"/>
			<point x="437.584" y="359.188" type="line"/>
		</contour>
		<contour>
			<point x="384.769" y="296.778" type="line"/>
			<point x="367.524" y="263.998" type="line"/>
			<point x="326.94" y="267.766" type="line"/>
			<point x="328.636" y="307.059" type="line"/>
			<point x="358.198" y="314.596" type="line"/>
		</contour>
		<contour>
			<point x="671.982" y="643.68" type="line"/>
			<point x="662.942" y="632.731" type="line"/>
			<point x="648.897" y="634.819" type="line"/>
			<point x="651.452" y="647.902" type="line"/>
			<point x="661.071" y="650.727" type="line"/>
		</contour>
		<contour>
			<point x="329.474" y="192.356" type="line"/>
			<point x="324.778" y="178.222" type="line"/>
			<point x="310.644" y="173.526" type="line"/>
			<point x="307.123" y="187.564" type="line"/>
			<point x="314.81" y="199.828" type="line"/>
		</contour>
		<contour>
			<point x="264.454" y="418.5" type="line"/>
			<point x="268.808" y="390.264" type="line"/>
			<point x="241.085" y="393.47" type="line"/>
			<point x="225.126" y="411.404" type="line"/>
			<point x="244.466" y="425.629" type="line"/>
		</contour>
	</outline>
</glyph>
<glyph name="comma" format="2">
	<advance width="303"/>
	<unicode hex="002C"/>
	<outline>
		<contour>
			<point x="30.387" y="-39.387" type="line"/>
			<point x="73.019" y="-97" type="line"/>
			<point x="106.038" y="-65" type="line"/>
			<point x="128.382" y="-102.555" type="line"/>
			<point x="149.185" y="-64.125" type="line"/>
			<point x="200.423" y="-53.188" type="line"/>
			<point x="189.615" y="-1.923" type="line"/>
			<point x="227.624" y="4.513" type="line"/>
			<point x="204.231" y="35.154" type="line"/>
			<point x="251.276" y="50.88" type="line"/>
			<point x="227.615" y="94.477" type="line"/>
			<point x="274.261" y="114.644" type="line"/>
			<point x="253.923" y="161.215" type="line"/>
			<point x="295.844" y="171.444" type="line"/>
			<point x="270" y="206" type="line"/>
			<point x="245.295" y="238.476" type="line"/>
			<point x="210" y="218" type="line"/>
			<point x="184" y="249" type="line"/>
			<point x="158" y="218" type="line"/>
			<point x="116.081" y="244.809" type="line"/>
			<point x="78.846" y="211.802" type="line"/>
			<point x="47.928" y="186.407" type="line"/>
			<point x="59.032" y="147.968" type="line"/>
			<point x="16.788" y="116.479" type="line"/>
			<point x="47.694" y="73.806" type="line"/>
			<point x="17.423" y="54.468" type="line"/>
			<point x="40.532" y="26.968" type="line"/>
			<point x="-2.104" y="-0.466" type="line"/>
		</contour>
		<contour>
			<point x="183.339" y="162.595" type="line"/>
			<point x="191.888" y="147.172" type="line"/>
			<point x="179.671" y="135.257" type="line"/>
			<point x="170.003" y="145.122" type="line"/>
			<point x="166.761" y="158.548" type="line"/>
		</contour>
		<contour>
			<point x="168.907" y="16.968" type="line"/>
			<point x="180.614" y="7.145" type="line"/>
			<point x="172.239" y="-2.784" type="line"/>
			<point x="160.929" y="-4.426" type="line"/>
			<point x="159.655" y="7.371" type="line"/>
		</contour>
		<contour>
			<point x="73.384" y="92.993" type="line"/>
			<point x="81.651" y="84.481" type="line"/>
			<point x="78.033" y="74.539" type="line"/>
			<point x="66.843" y="74.12" type="line"/>
			<point x="65.482" y="84.736" type="line"/>
		</contour>
		<contour>
			<point x="141.774" y="31.28" type="line"/>
			<point x="145.715" y="23.365" type="line"/>
			<point x="135.975" y="19.231" type="line"/>
			<point x="130.03" y="27.303" type="line"/>
			<point x="134.874" y="35.364" type="line"/>
		</contour>
		<contour>
			<point x="101.619" y="46.784" type="line"/>
			<point x="102.657" y="20.342" type="line"/>
			<point x="78.436" y="9.683" type="line"/>
			<point x="68.039" y="30.884" type="line"/>
			<point x="77.632" y="47.762" type="line"/>
		</contour>
		<contour>
			<point x="187.336" y="96.545" type="line"/>
			<point x="187.41" y="71.257" type="line"/>
			<point x="165.314" y="66.659" type="line"/>
			<point x="150.012" y="82.302" type="line"/>
			<point x="164.87" y="97.095" type="line"/>
		</contour>
	</outline>
</glyph>
<glyph name="period" format="2">
	<advance width="312"/>
	<unicode hex="002E"/>
	<outline>
		<contour>
			<point x="52" y="66.545" type="line"/>
			<point x="90.75" y="-10" type="line"/>
			<point x="112.5" y="10" type="line"/>
			<point x="136.227" y="-22" type="line"/>
			<point x="159.955" y="10" type="line"/>
			<point x="185.659" y="-28" type="line"/>
			<point x="211.364" y="10" type="line"/>
			<point x="244.616" y="5.009" type="line"/>
			<point x="260" y="34.909" type="line"/>
			<point x="280" y="58.636" type="line"/>
			<point x="260" y="82.364" type="line"/>
			<point x="284" y="106.091" type="line"/>
			<point x="260" y="129.818" type="line"/>
			<point x="293" y="163.432" type="line"/>
			<point x="260" y="197.045" type="line"/>
			<point x="256.022" y="226.992" type="line"/>
			<point x="227.182" y="218" type="line"/>
			<point x="201.477" y="239" type="line"/>
			<point x="175.773" y="218" type="line"/>
			<point x="150.068" y="248" type="line"/>
			<point x="124.364" y="218" type="line"/>
			<point x="91.464" y="245.965" type="line"/>
			<point x="60.413" y="215.96" type="line"/>
			<point x="28.846" y="202.566" type="line"/>
			<point x="52" y="177.273" type="line"/>
			<point x="16" y="153.545" type="line"/>
			<point x="52" y="129.818" type="line"/>
			<point x="13" y="98.182" type="line"/>
		</contour>
		<contour>
			<point x="184.657" y="31.657" type="line"/>
			<point x="183.455" y="23.73" type="line"/>
			<point x="178.061" y="20.074" type="line"/>
			<point x="174.062" y="25.218" type="line"/>
			<point x="176.73" y="30.455" type="line"/>
		</contour>
		<contour>
			<point x="185.248" y="108.563" type="line"/>
			<point x="189.983" y="102.512" type="line"/>
			<point x="184.452" y="97.178" type="line"/>
			<point x="176.216" y="98.761" type="line"/>
			<point x="179.17" y="106.214" type="line"/>
		</contour>
		<contour>
			<point x="179.563" y="58.248" type="line"/>
			<point x="178.5" y="50.638" type="line"/>
			<point x="168.701" y="47.52" type="line"/>
			<point x="165.267" y="58.177" type="line"/>
			<point x="173.512" y="62.983" type="line"/>
		</contour>
		<contour>
			<point x="247.336" y="34.584" type="line"/>
			<point x="244.293" y="23.229" type="line"/>
			<point x="230.92" y="20.097" type="line"/>
			<point x="227.375" y="33.847" type="line"/>
			<point x="237.424" y="41.985" type="line"/>
		</contour>
		<contour>
			<point x="76.878" y="32.997" type="line"/>
			<point x="83.798" y="23.901" type="line"/>
			<point x="73.975" y="18.06" type="line"/>
			<point x="63.031" y="21.351" type="line"/>
			<point x="65.498" y="34.045" type="line"/>
		</contour>
		<contour>
			<point x="173.253" y="182.912" type="line"/>
			<point x="177.909" y="175.042" type="line"/>
			<point x="176.695" y="165.171" type="line"/>
			<point x="165.053" y="166.807" type="line"/>
			<point x="163.911" y="177.945" type="line"/>
		</contour>
		<contour>
			<point x="230.893" y="82.531" type="line"/>
			<point x="223.069" y="74.708" type="line"/>
			<point x="211.368" y="72.664" type="line"/>
			<point x="212.936" y="84.756" type="line"/>
			<point x="222.084" y="92.818" type="line"/>
		</contour>
		<contour>
			<point x="143.212" y="119.279" type="line"/>
			<point x="152.597" y="81.638" type="line"/>
			<point x="120.535" y="73.051" type="line"/>
			<point x="94.832" y="87.226" type="line"/>
			<point x="103.453" y="123.682" type="line"/>
		</contour>
	</outline>
</glyph>
<glyph name="three" format="2">
	<advance width="709"/>
	<unicode hex="0033"/>
	<outline>
		<contour>
			<point x="319.94" y="10.714" type="line"/>
			<point x="381.345" y="-9.088" type="line"/>
			<point x="412.24" y="13.753" type="line"/>
			<point x="457.573" y="-16.639" type="line"/>
			<point x="486.994" y="29.329" type="line"/>
			<point x="531.792" y="27.388" type="line"/>
			<point x="560.314" y="61.987" type="line"/>
			<point x="605.489" y="71.438" type="line"/>
			<point x="620.06" y="115.231" type="line"/>
			<point x="655.384" y="123.005" type="line"/>
			<point x="643.617" y="157.207" type="line"/>
			<point x="673.768" y="170.24" type="line"/>
			<point x="653.527" y="196.11" type="line"/>
			<point x="683.234" y="230.832" type="line"/>
			<point x="650.985" y="263.208" type="line"/>
			<point x="665.269" y="308.572" type="line"/>
			<point x="622.567" y="329.511" type="line"/>
			<point x="616.8" y="374.578" type="line"/>
			<point x="571.366" y="374.63" type="line"/>
			<point x="550.524" y="407.914" type="line"/>
			<point x="512.057" y="400.011" type="line"/>
			<point x="522.573" y="437.125" type="line"/>
			<point x="484.947" y="445.632" type="line"/>
			<point x="514.266" y="448.351" type="line"/>
			<point x="528.053" y="474.368" type="line"/>
			<point x="574.554" y="458.497" type="line"/>
			<point x="577.789" y="507.526" type="line"/>
			<point x="617.286" y="529.092" type="line"/>
			<point x="612" y="573.781" type="line"/>
			<point x="640" y="615.453" type="line"/>
			<point x="612" y="657.125" type="line"/>
			<point x="610.866" y="678.985" type="line"/>
			<point x="589" y="680" type="line"/>
			<point x="553" y="719" type="line"/>
			<point x="517" y="680" type="line"/>
			<point x="479" y="705" type="line"/>
			<point x="441" y="680" type="line"/>
			<point x="401" y="711" type="line"/>
			<point x="361" y="680" type="line"/>
			<point x="337" y="710" type="line"/>
			<point x="313" y="680" type="line"/>
			<point x="281" y="707" type="line"/>
			<point x="249" y="680" type="line"/>
			<point x="207" y="718" type="line"/>
			<point x="165" y="680" type="line"/>
			<point x="133" y="714" type="line"/>
			<point x="101" y="680" type="line"/>
			<point x="73.903" y="647.203" type="line"/>
			<point x="86" y="606.417" type="line"/>
			<point x="47" y="586.833" type="line"/>
			<point x="86" y="567.25" type="line"/>
			<point x="79.51" y="538.962" type="line"/>
			<point x="104.955" y="525" type="line"/>
			<point x="144.803" y="489" type="line"/>
			<point x="184.652" y="525" type="line"/>
			<point x="206.568" y="495" type="line"/>
			<point x="228.485" y="525" type="line"/>
			<point x="266.341" y="508.9" type="line"/>
			<point x="304.197" y="525" type="line"/>
			<point x="324.622" y="492.111" type="line"/>
			<point x="362" y="502.2" type="line"/>
			<point x="330.281" y="496.219" type="line"/>
			<point x="324.3" y="464.5" type="line"/>
			<point x="297.542" y="468.357" type="line"/>
			<point x="286.075" y="443.875" type="line"/>
			<point x="246.058" y="442.448" type="line"/>
			<point x="223.73" y="409.208" type="line"/>
			<point x="189.631" y="387.726" type="line"/>
			<point x="217" y="358.143" type="line"/>
			<point x="196" y="333.071" type="line"/>
			<point x="217" y="308" type="line"/>
			<point x="236.666" y="282.354" type="line"/>
			<point x="263.062" y="301" type="line"/>
			<point x="300.172" y="275.8" type="line"/>
			<point x="337.281" y="301" type="line"/>
			<point x="361.289" y="280.41" type="line"/>
			<point x="388.778" y="296.052" type="line"/>
			<point x="399.838" y="263.312" type="line"/>
			<point x="433.09" y="253.904" type="line"/>
			<point x="396.216" y="230.132" type="line"/>
			<point x="422.3" y="194.856" type="line"/>
			<point x="392.273" y="196.765" type="line"/>
			<point x="382.38" y="168.35" type="line"/>
			<point x="355.568" y="192.95" type="line"/>
			<point x="332.873" y="164.509" type="line"/>
			<point x="315.468" y="195.271" type="line"/>
			<point x="286.076" y="175.639" type="line"/>
			<point x="283.888" y="210.24" type="line"/>
			<point x="250.824" y="199.808" type="line"/>
			<point x="213.025" y="232.904" type="line"/>
			<point x="175.059" y="200" type="line"/>
			<point x="151.412" y="221" type="line"/>
			<point x="127.765" y="200" type="line"/>
			<point x="100.176" y="235" type="line"/>
			<point x="72.588" y="200" type="line"/>
			<point x="38.79" y="198.901" type="line"/>
			<point x="47.885" y="166.331" type="line"/>
			<point x="44.515" y="123.357" type="line"/>
			<point x="82.984" y="103.908" type="line"/>
			<point x="94.993" y="64.661" type="line"/>
			<point x="135.891" y="61.211" type="line"/>
			<point x="157.362" y="20.924" type="line"/>
			<point x="201.711" y="31.751" type="line"/>
			<point x="213.247" y="-10.651" type="line"/>
			<point x="244.359" y="20.382" type="line"/>
			<point x="277.201" y="-23.137" type="line"/>
		</contour>
		<contour>
			<point x="429.24" y="381.83" type="line"/>
			<point x="449.476" y="355.99" type="line"/>
			<point x="439" y="328.483" type="line"/>
			<point x="407.264" y="330.192" type="line"/>
			<point x="402.248" y="361.575" type="line"/>
		</contour>
		<contour>
			<point x="417.692" y="92.448" type="line"/>
			<point x="412.657" y="81.343" type="line"/>
			<point x="401.552" y="76.308" type="line"/>
			<point x="396.135" y="88.721" type="line"/>
			<point x="406.061" y="92.926" type="line"/>
		</contour>
		<contour>
			<point x="613.525" y="239.427" type="line"/>
			<point x="633.995" y="205.541" type="line"/>
			<point x="614.395" y="171.907" type="line"/>
			<point x="569.457" y="179.724" type="line"/>
			<point x="573.511" y="225.649" type="line"/>
		</contour>
		<contour>
			<point x="346.659" y="399.387" type="line"/>
			<point x="367.964" y="383.361" type="line"/>
			<point x="351.318" y="357.727" type="line"/>
			<point x="328.011" y="370.672" type="line"/>
			<point x="325.227" y="392.893" type="line"/>
		</contour>
		<contour>
			<point x="466.794" y="562.5" type="line"/>
			<point x="464.945" y="552.647" type="line"/>
			<point x="454.526" y="547.951" type="line"/>
			<point x="450.049" y="558.941" type="line"/>
			<point x="456.505" y="569.738" type="line"/>
		</contour>
		<contour>
			<point x="477.969" y="247.649" type="line"/>
			<point x="472.774" y="237.881" type="line"/>
			<point x="462.182" y="232.505" type="line"/>
			<point x="455.239" y="245.481" type="line"/>
			<point x="466.416" y="255.903" type="line"/>
		</contour>
		<contour>
			<point x="396.167" y="569.993" type="line"/>
			<point x="416.983" y="545.977" type="line"/>
			<point x="396.866" y="523.387" type="line"/>
			<point x="364.572" y="525.914" type="line"/>
			<point x="373.248" y="555.625" type="line"/>
		</contour>
		<contour>
			<point x="446.205" y="613.907" type="line"/>
			<point x="442.248" y="603.962" type="line"/>
			<point x="432.88" y="603.143" type="line"/>
			<point x="428.231" y="612.025" type="line"/>
			<point x="436.216" y="618.966" type="line"/>
		</contour>
		<contour>
			<point x="394.863" y="668.035" type="line"/>
			<point x="398.988" y="658.616" type="line"/>
			<point x="388.747" y="654.088" type="line"/>
			<point x="384.091" y="661.958" type="line"/>
			<point x="384.836" y="672.712" type="line"/>
		</contour>
		<contour>
			<point x="312.943" y="624.898" type="line"/>
			<point x="318.001" y="576.368" type="line"/>
			<point x="276.601" y="574.615" type="line"/>
			<point x="255.103" y="595.647" type="line"/>
			<point x="271.841" y="621.933" type="line"/>
		</contour>
		<contour>
			<point x="483.353" y="154.718" type="line"/>
			<point x="487.513" y="121.431" type="line"/>
			<point x="454.384" y="120.675" type="line"/>
			<point x="427.088" y="144.511" type="line"/>
			<point x="455.984" y="170.139" type="line"/>
		</contour>
		<contour>
			<point x="472.664" y="501.994" type="line"/>
			<point x="472.601" y="492.85" type="line"/>
			<point x="466.581" y="487.011" type="line"/>
			<point x="456.375" y="492.153" type="line"/>
			<point x="461.554" y="503.387" type="line"/>
		</contour>
		<contour>
			<point x="551.535" y="152.074" type="line"/>
			<point x="554.999" y="135.843" type="line"/>
			<point x="548.631" y="127.393" type="line"/>
			<point x="532.894" y="126.823" type="line"/>
			<point x="535.618" y="143.824" type="line"/>
		</contour>
	</outline>
</glyph>
<glyph name="four" format="2">
	<advance width="735"/>
	<unicode hex="0034"/>
	<outline>
		<contour>
			<point x="372" y="69.778" type="line"/>
			<point x="408.681" y="-19" type="line"/>
			<point x="438.362" y="20" type="line"/>
			<point x="466.064" y="-18" type="line"/>
			<point x="493.766" y="20" type="line"/>
			<point x="532.667" y="-10.006" type="line"/>
			<point x="569.967" y="21.968" type="line"/>
			<point x="599.967" y="50.715" type="line"/>
			<point x="572" y="81.444" type="line"/>
			<point x="600" y="102.833" type="line"/>
			<point x="572" y="124.222" type="line"/>
			<point x="601.278" y="95.536" type="line"/>
			<point x="620" y="132" type="line"/>
			<point x="642" y="110" type="line"/>
			<point x="664" y="132" type="line"/>
			<point x="693.687" y="124.902" type="line"/>
			<point x="687" y="154.684" type="line"/>
			<point x="715" y="176.25" type="line"/>
			<point x="687" y="197.816" type="line"/>
			<point x="722" y="238.987" type="line"/>
			<point x="687" y="280.158" type="line"/>
			<point x="682.169" y="318.979" type="line"/>
			<point x="651.259" y="295" type="line"/>
			<point x="617.574" y="320" type="line"/>
			<point x="583.889" y="295" type="line"/>
			<point x="606.416" y="322.358" type="line"/>
			<point x="572" y="330.811" type="line"/>
			<point x="601" y="372.589" type="line"/>
			<point x="572" y="414.368" type="line"/>
			<point x="593" y="434.263" type="line"/>
			<point x="572" y="454.158" type="line"/>
			<point x="592" y="485.989" type="line"/>
			<point x="572" y="517.821" type="line"/>
			<point x="610" y="539.705" type="line"/>
			<point x="572" y="561.589" type="line"/>
			<point x="593" y="587.453" type="line"/>
			<point x="572" y="613.316" type="line"/>
			<point x="598.336" y="649.79" type="line"/>
			<point x="565" y="680" type="line"/>
			<point x="533" y="700" type="line"/>
			<point x="501" y="680" type="line"/>
			<point x="463" y="704" type="line"/>
			<point x="425" y="680" type="line"/>
			<point x="401" y="712" type="line"/>
			<point x="377" y="680" type="line"/>
			<point x="337.098" y="684.779" type="line"/>
			<point x="319.068" y="648.863" type="line"/>
			<point x="283.832" y="635.715" type="line"/>
			<point x="280.368" y="598.265" type="line"/>
			<point x="243.958" y="588.52" type="line"/>
			<point x="244.085" y="550.829" type="line"/>
			<point x="208.506" y="545.462" type="line"/>
			<point x="212.641" y="509.718" type="line"/>
			<point x="164.696" y="506.29" type="line"/>
			<point x="173.94" y="459.12" type="line"/>
			<point x="128.035" y="461.65" type="line"/>
			<point x="142.496" y="418.009" type="line"/>
			<point x="104.082" y="407.29" type="line"/>
			<point x="103.795" y="367.41" type="line"/>
			<point x="57.059" y="365.563" type="line"/>
			<point x="67.513" y="319.974" type="line"/>
			<point x="32.565" y="290.171" type="line"/>
			<point x="46" y="246.25" type="line"/>
			<point x="16" y="214.472" type="line"/>
			<point x="46" y="182.694" type="line"/>
			<point x="45.869" y="150.121" type="line"/>
			<point x="72.937" y="132" type="line"/>
			<point x="100.85" y="111" type="line"/>
			<point x="128.762" y="132" type="line"/>
			<point x="166.644" y="101" type="line"/>
			<point x="204.525" y="132" type="line"/>
			<point x="242.406" y="109" type="line"/>
			<point x="280.288" y="132" type="line"/>
			<point x="314.181" y="101" type="line"/>
			<point x="348.075" y="132" type="line"/>
			<point x="337.695" y="97.424" type="line"/>
			<point x="372" y="108.667" type="line"/>
			<point x="346" y="89.222" type="line"/>
		</contour>
		<contour>
			<point x="243" y="284" type="line"/>
			<point x="236.543" y="292.795" type="line"/>
			<point x="238.273" y="316" type="line"/>
			<point x="262.194" y="323.066" type="line"/>
			<point x="261.545" y="348" type="line"/>
			<point x="288.24" y="353.048" type="line"/>
			<point x="284.818" y="380" type="line"/>
			<point x="310.324" y="385.913" type="line"/>
			<point x="308.091" y="412" type="line"/>
			<point x="331.616" y="419.354" type="line"/>
			<point x="331.364" y="444" type="line"/>
			<point x="349.472" y="439.25" type="line"/>
			<point x="361" y="454" type="line"/>
			<point x="360.331" y="434.306" type="line"/>
			<point x="379" y="428" type="line"/>
			<point x="360.87" y="408" type="line"/>
			<point x="379" y="388" type="line"/>
			<point x="359.89" y="368" type="line"/>
			<point x="379" y="348" type="line"/>
			<point x="361.36" y="328" type="line"/>
			<point x="379" y="308" type="line"/>
			<point x="362.03" y="301.98" type="line"/>
			<point x="363" y="284" type="line"/>
			<point x="343" y="300.66" type="line"/>
			<point x="323" y="284" type="line"/>
			<point x="303" y="298.7" type="line"/>
			<point x="283" y="284" type="line"/>
			<point x="263" y="298.7" type="line"/>
		</contour>
		<contour>
			<point x="163.876" y="366.071" type="line"/>
			<point x="161.866" y="351.492" type="line"/>
			<point x="148.152" y="352.254" type="line"/>
			<point x="143.184" y="362.908" type="line"/>
			<point x="151.903" y="369.933" type="line"/>
		</contour>
		<contour>
			<point x="508.537" y="660.25" type="line"/>
			<point x="506.967" y="628.384" type="line"/>
			<point x="479.012" y="615.92" type="line"/>
			<point x="464.03" y="640.849" type="line"/>
			<point x="476.682" y="666.273" type="line"/>
		</contour>
		<contour>
			<point x="452.432" y="60.893" type="line"/>
			<point x="445.239" y="29.936" type="line"/>
			<point x="415.139" y="32.932" type="line"/>
			<point x="411.659" y="56.686" type="line"/>
			<point x="427.302" y="71.988" type="line"/>
		</contour>
		<contour>
			<point x="163.251" y="292.453" type="line"/>
			<point x="190.669" y="261.732" type="line"/>
			<point x="169.274" y="231.834" type="line"/>
			<point x="126.788" y="227.824" type="line"/>
			<point x="110.204" y="281.882" type="line"/>
		</contour>
		<contour>
			<point x="559.998" y="205.262" type="line"/>
			<point x="549.884" y="190.817" type="line"/>
			<point x="532.222" y="195.371" type="line"/>
			<point x="529.436" y="215.898" type="line"/>
			<point x="548.216" y="215.519" type="line"/>
		</contour>
		<contour>
			<point x="475.214" y="360.627" type="line"/>
			<point x="488.784" y="324.466" type="line"/>
			<point x="468.396" y="284.808" type="line"/>
			<point x="429.388" y="311.032" type="line"/>
			<point x="442.448" y="344.368" type="line"/>
		</contour>
		<contour>
			<point x="557.679" y="550.24" type="line"/>
			<point x="532.327" y="507.841" type="line"/>
			<point x="493.791" y="525.222" type="line"/>
			<point x="473.893" y="567.786" type="line"/>
			<point x="520.724" y="574.449" type="line"/>
		</contour>
		<contour>
			<point x="323.98" y="600.027" type="line"/>
			<point x="324.287" y="582.396" type="line"/>
			<point x="307.322" y="575.699" type="line"/>
			<point x="293.003" y="590.668" type="line"/>
			<point x="306.791" y="606.128" type="line"/>
		</contour>
		<contour>
			<point x="215.164" y="456.276" type="line"/>
			<point x="222.991" y="432.365" type="line"/>
			<point x="199.329" y="430.257" type="line"/>
			<point x="175.201" y="440.71" type="line"/>
			<point x="195.238" y="458.501" type="line"/>
		</contour>
		<contour>
			<point x="374.924" y="234.868" type="line"/>
			<point x="372.817" y="228.702" type="line"/>
			<point x="363.053" y="226.807" type="line"/>
			<point x="361.911" y="237.945" type="line"/>
			<point x="370.974" y="240.932" type="line"/>
		</contour>
		<contour>
			<point x="247.138" y="400.582" type="line"/>
			<point x="250.063" y="389.774" type="line"/>
			<point x="240.269" y="388.045" type="line"/>
			<point x="231.184" y="392.092" type="line"/>
			<point x="238.091" y="399.248" type="line"/>
		</contour>
		<contour>
			<point x="71.357" y="246.709" type="line"/>
			<point x="77.625" y="237.153" type="line"/>
			<point x="67.523" y="230.014" type="line"/>
			<point x="55.797" y="235.7" type="line"/>
			<point x="59.448" y="249.326" type="line"/>
		</contour>
		<contour>
			<point x="385.728" y="587.579" type="line"/>
			<point x="383.617" y="562.492" type="line"/>
			<point x="366.909" y="549.11" type="line"/>
			<point x="348.459" y="564.634" type="line"/>
			<point x="362.5" y="580.258" type="line"/>
		</contour>
		<contour>
			<point x="606.951" y="260.941" type="line"/>
			<point x="604.508" y="245.383" type="line"/>
			<point x="589.082" y="251.97" type="line"/>
			<point x="586.742" y="266.5" type="line"/>
			<point x="601.119" y="274.672" type="line"/>
		</contour>
	</outline>
</glyph>
<glyph name="six" format="2">
	<advance width="692"/>
	<unicode hex="0036"/>
	<outline>
		<contour>
			<point x="337.614" y="10.138" type="line"/>
			<point x="383.775" y="-11.523" type="line"/>
			<point x="413.944" y="14.819" type="line"/>
			<point x="446.665" y="-11.583" type="line"/>
			<point x="464.754" y="26.372" type="line"/>
			<point x="498.357" y="6.121" type="line"/>
			<point x="509.618" y="43.704" type="line"/>
			<point x="541.655" y="32.064" type="line"/>
			<point x="547.895" y="65.574" type="line"/>
			<point x="589.329" y="53.048" type="line"/>
			<point x="585.013" y="96.118" type="line"/>
			<point x="634.152" y="110.326" type="line"/>
			<point x="630.96" y="161.378" type="line"/>
			<point x="664.238" y="187.276" type="line"/>
			<point x="649.393" y="226.745" type="line"/>
			<point x="674.824" y="268.136" type="line"/>
			<point x="644.367" y="305.983" type="line"/>
			<point x="652.874" y="345.224" type="line"/>
			<point x="617.694" y="364.577" type="line"/>
			<point x="630.07" y="409.91" type="line"/>
			<point x="583.42" y="404.252" type="line"/>
			<point x="562.006" y="448.46" type="line"/>
			<point x="512.95" y="451.003" type="line"/>
			<point x="485.208" y="496.608" type="line"/>
			<point x="436.163" y="475.534" type="line"/>
			<point x="446.595" y="513.534" type="line"/>
			<point x="410.264" y="528.792" type="line"/>
			<point x="453.951" y="544.998" type="line"/>
			<point x="457.811" y="591.434" type="line"/>
			<point x="502.711" y="599.314" type="line"/>
			<point x="498.226" y="644.679" type="line"/>
			<point x="512.587" y="665.182" type="line"/>
			<point x="492.412" y="680" type="line"/>
			<point x="458.912" y="712" type="line"/>
			<point x="425.412" y="680" type="line"/>
			<point x="389.941" y="711" type="line"/>
			<point x="354.471" y="680" type="line"/>
			<point x="315.567" y="687.937" type="line"/>
			<point x="288.809" y="658.603" type="line"/>
			<point x="245.418" y="654.558" type="line"/>
			<point x="252.853" y="611.618" type="line"/>
			<point x="203.484" y="604.697" type="line"/>
			<point x="209.706" y="555.235" type="line"/>
			<point x="162.705" y="541.536" type="line"/>
			<point x="161.765" y="492.588" type="line"/>
			<point x="106.58" y="484.19" type="line"/>
			<point x="113.667" y="428.821" type="line"/>
			<point x="63.495" y="411.758" type="line"/>
			<point x="71.423" y="359.36" type="line"/>
			<point x="31.701" y="328.318" type="line"/>
			<point x="42.847" y="279.153" type="line"/>
			<point x="7.426" y="241.477" type="line"/>
			<point x="43.997" y="204.918" type="line"/>
			<point x="31.444" y="159.361" type="line"/>
			<point x="71.195" y="133.81" type="line"/>
			<point x="60.321" y="88.625" type="line"/>
			<point x="106.768" y="90.239" type="line"/>
			<point x="119.401" y="37.137" type="line"/>
			<point x="173.353" y="45.426" type="line"/>
			<point x="205.401" y="7.605" type="line"/>
			<point x="253.595" y="19.214" type="line"/>
			<point x="293.349" y="-6.202" type="line"/>
		</contour>
		<contour>
			<point x="372.107" y="167.935" type="line"/>
			<point x="330.455" y="184.681" type="line"/>
			<point x="307.752" y="172.613" type="line"/>
			<point x="300.633" y="196.323" type="line"/>
			<point x="275.878" y="196.51" type="line"/>
			<point x="282.004" y="221.109" type="line"/>
			<point x="259.531" y="232.841" type="line"/>
			<point x="278.865" y="252.726" type="line"/>
			<point x="260.982" y="273.925" type="line"/>
			<point x="283.904" y="284.05" type="line"/>
			<point x="280.219" y="308.836" type="line"/>
			<point x="306.475" y="304.411" type="line"/>
			<point x="314.076" y="329.93" type="line"/>
			<point x="335.705" y="322.593" type="line"/>
			<point x="355.057" y="334.724" type="line"/>
			<point x="371.344" y="318.535" type="line"/>
			<point x="393.629" y="324.074" type="line"/>
			<point x="399.351" y="300.843" type="line"/>
			<point x="422.981" y="297.093" type="line"/>
			<point x="411.148" y="272.116" type="line"/>
			<point x="435.582" y="259.201" type="line"/>
			<point x="422.353" y="240.157" type="line"/>
			<point x="430.52" y="218.454" type="line"/>
			<point x="403.46" y="213.072" type="line"/>
			<point x="407.744" y="185.817" type="line"/>
			<point x="383.113" y="190.453" type="line"/>
		</contour>
		<contour>
			<point x="405.177" y="617.359" type="line"/>
			<point x="403.426" y="603.929" type="line"/>
			<point x="390.505" y="599.874" type="line"/>
			<point x="384.027" y="611.767" type="line"/>
			<point x="393.065" y="618.762" type="line"/>
		</contour>
		<contour>
			<point x="140.286" y="376.775" type="line"/>
			<point x="179.038" y="345.148" type="line"/>
			<point x="153.5" y="305.689" type="line"/>
			<point x="109.235" y="306.274" type="line"/>
			<point x="83.014" y="359.591" type="line"/>
		</contour>
		<contour>
			<point x="209.976" y="134.767" type="line"/>
			<point x="214.229" y="102.981" type="line"/>
			<point x="179.324" y="102.16" type="line"/>
			<point x="155.562" y="132.425" type="line"/>
			<point x="187.407" y="158.679" type="line"/>
		</contour>
		<contour>
			<point x="351.013" y="589.768" type="line"/>
			<point x="340.465" y="565.661" type="line"/>
			<point x="313.579" y="556" type="line"/>
			<point x="309.487" y="584.274" type="line"/>
			<point x="325.472" y="608.89" type="line"/>
		</contour>
		<contour>
			<point x="559.982" y="145.271" type="line"/>
			<point x="547.254" y="94.72" type="line"/>
			<point x="491.798" y="65.809" type="line"/>
			<point x="458.447" y="129.312" type="line"/>
			<point x="508.269" y="172.063" type="line"/>
		</contour>
		<contour>
			<point x="356.555" y="112.17" type="line"/>
			<point x="361.998" y="94.192" type="line"/>
			<point x="356.209" y="78.872" type="line"/>
			<point x="337.423" y="83.769" type="line"/>
			<point x="339.532" y="102.03" type="line"/>
		</contour>
		<contour>
			<point x="122.634" y="227.755" type="line"/>
			<point x="137.558" y="194.352" type="line"/>
			<point x="106.558" y="172.005" type="line"/>
			<point x="84.253" y="196.512" type="line"/>
			<point x="87.946" y="227.959" type="line"/>
		</contour>
		<contour>
			<point x="441.809" y="385.128" type="line"/>
			<point x="443.151" y="357.93" type="line"/>
			<point x="415.759" y="353.602" type="line"/>
			<point x="403.051" y="375.465" type="line"/>
			<point x="416.742" y="403.109" type="line"/>
		</contour>
		<contour>
			<point x="381.365" y="449.557" type="line"/>
			<point x="388.985" y="437.576" type="line"/>
			<point x="383.017" y="423.93" type="line"/>
			<point x="369.451" y="430.077" type="line"/>
			<point x="371.291" y="441.357" type="line"/>
		</contour>
		<contour>
			<point x="241.332" y="347.997" type="line"/>
			<point x="263.951" y="336.017" type="line"/>
			<point x="251.324" y="314.255" type="line"/>
			<point x="227.76" y="311.43" type="line"/>
			<point x="223.981" y="334.86" type="line"/>
		</contour>
		<contour>
			<point x="345.661" y="62.222" type="line"/>
			<point x="351.945" y="52.955" type="line"/>
			<point x="343.04" y="49.109" type="line"/>
			<point x="334.206" y="49.5" type="line"/>
			<point x="337.541" y="58.015" type="line"/>
		</contour>
		<contour>
			<point x="428.45" y="169.893" type="line"/>
			<point x="438.711" y="150.701" type="line"/>
			<point x="422.505" y="136.175" type="line"/>
			<point x="399.328" y="143.917" type="line"/>
			<point x="406.801" y="167.667" type="line"/>
		</contour>
		<contour>
			<point x="463.226" y="431.063" type="line"/>
			<point x="468.925" y="420.781" type="line"/>
			<point x="460.145" y="416.11" type="line"/>
			<point x="452.003" y="418.122" type="line"/>
			<point x="452.418" y="428.138" type="line"/>
		</contour>
		<contour>
			<point x="458.989" y="201.419" type="line"/>
			<point x="454.942" y="190.731" type="line"/>
			<point x="443.229" y="194.707" type="line"/>
			<point x="444.291" y="205.357" type="line"/>
			<point x="453.588" y="210.659" type="line"/>
		</contour>
		<contour>
			<point x="549.477" y="350.716" type="line"/>
			<point x="576.411" y="281.053" type="line"/>
			<point x="519.312" y="257.145" type="line"/>
			<point x="483.782" y="281.324" type="line"/>
			<point x="480.573" y="335.754" type="line"/>
		</contour>
		<contour>
			<point x="441.986" y="591.523" type="line"/>
			<point x="436.3" y="579.797" type="line"/>
			<point x="422.674" y="583.448" type="line"/>
			<point x="425.291" y="595.357" type="line"/>
			<point x="435.365" y="603.557" type="line"/>
		</contour>
	</outline>
</glyph>
<glyph name="seven" format="2">
	<advance width="625"/>
	<unicode hex="0037"/>
	<outline>
		<contour>
			<point x="147.154" y="54.625" type="line"/>
			<point x="159.602" y="-19" type="line"/>
			<point x="185.204" y="20" type="line"/>
			<point x="206.867" y="-19" type="line"/>
			<point x="228.531" y="20" type="line"/>
			<point x="263.98" y="-14" type="line"/>
			<point x="299.429" y="20" type="line"/>
			<point x="340.989" y="16.637" type="line"/>
			<point x="360.14" y="53.674" type="line"/>
			<point x="405.301" y="69.973" type="line"/>
			<point x="388.868" y="115.085" type="line"/>
			<point x="430.589" y="126.389" type="line"/>
			<point x="412.527" y="165.659" type="line"/>
			<point x="444.466" y="174.934" type="line"/>
			<point x="431.116" y="205.395" type="line"/>
			<point x="471.87" y="219.353" type="line"/>
			<point x="456.465" y="259.581" type="line"/>
			<point x="496.07" y="282.882" type="line"/>
			<point x="488.574" y="328.217" type="line"/>
			<point x="530.051" y="348.44" type="line"/>
			<point x="518.992" y="393.24" type="line"/>
			<point x="557.57" y="421.425" type="line"/>
			<point x="554.481" y="469.101" type="line"/>
			<point x="581.849" y="480.727" type="line"/>
			<point x="572.881" y="509.078" type="line"/>
			<point x="612.821" y="544.067" type="line"/>
			<point x="579" y="585" type="line"/>
			<point x="609" y="617" type="line"/>
			<point x="579" y="649" type="line"/>
			<point x="594.04" y="675.362" type="line"/>
			<point x="564.046" y="680" type="line"/>
			<point x="524.277" y="716" type="line"/>
			<point x="484.508" y="680" type="line"/>
			<point x="460.646" y="712" type="line"/>
			<point x="436.785" y="680" type="line"/>
			<point x="414.912" y="704" type="line"/>
			<point x="393.038" y="680" type="line"/>
			<point x="373.154" y="701" type="line"/>
			<point x="353.269" y="680" type="line"/>
			<point x="315.488" y="713" type="line"/>
			<point x="277.708" y="680" type="line"/>
			<point x="251.858" y="719" type="line"/>
			<point x="226.008" y="680" type="line"/>
			<point x="206.123" y="702" type="line"/>
			<point x="186.238" y="680" type="line"/>
			<point x="148.458" y="701" type="line"/>
			<point x="110.677" y="680" type="line"/>
			<point x="72.843" y="699.763" type="line"/>
			<point x="48" y="665.053" type="line"/>
			<point x="19" y="639.224" type="line"/>
			<point x="48" y="613.395" type="line"/>
			<point x="27" y="577.632" type="line"/>
			<point x="48" y="541.868" type="line"/>
			<point x="49.628" y="512.6" type="line"/>
			<point x="78.844" y="515" type="line"/>
			<point x="114.61" y="493" type="line"/>
			<point x="150.377" y="515" type="line"/>
			<point x="184.156" y="487" type="line"/>
			<point x="217.935" y="515" type="line"/>
			<point x="257.675" y="483" type="line"/>
			<point x="297.416" y="515" type="line"/>
			<point x="323.741" y="493.733" type="line"/>
			<point x="355.949" y="504.125" type="line"/>
			<point x="324.081" y="477.06" type="line"/>
			<point x="323.956" y="435.25" type="line"/>
			<point x="276.994" y="419.603" type="line"/>
			<point x="295.331" y="373.625" type="line"/>
			<point x="254.457" y="363.965" type="line"/>
			<point x="273.441" y="326.5" type="line"/>
			<point x="229.46" y="300.654" type="line"/>
			<point x="238.081" y="250.375" type="line"/>
			<point x="190.989" y="239.196" type="line"/>
			<point x="212.824" y="196" type="line"/>
			<point x="164.243" y="174.495" type="line"/>
			<point x="179.147" y="123.5" type="line"/>
			<point x="145.012" y="97.488" type="line"/>
		</contour>
		<contour>
			<point x="183.5" y="97.258" type="line"/>
			<point x="189.716" y="83.297" type="line"/>
			<point x="177.836" y="78.044" type="line"/>
			<point x="169.692" y="82.746" type="line"/>
			<point x="171.647" y="91.945" type="line"/>
		</contour>
		<contour>
			<point x="553.91" y="542.54" type="line"/>
			<point x="552.778" y="530.222" type="line"/>
			<point x="541.822" y="531.763" type="line"/>
			<point x="539.074" y="538.939" type="line"/>
			<point x="543.279" y="548.865" type="line"/>
		</contour>
		<contour>
			<point x="472.939" y="435.637" type="line"/>
			<point x="462.096" y="380.142" type="line"/>
			<point x="409.163" y="351.498" type="line"/>
			<point x="388.025" y="407.431" type="line"/>
			<point x="420.455" y="435.799" type="line"/>
		</contour>
		<contour>
			<point x="504.664" y="658.224" type="line"/>
			<point x="531.64" y="607.212" type="line"/>
			<point x="480.803" y="577.007" type="line"/>
			<point x="444.07" y="610.628" type="line"/>
			<point x="463.751" y="644.563" type="line"/>
		</contour>
		<contour>
			<point x="347.599" y="147.423" type="line"/>
			<point x="378.63" y="115.289" type="line"/>
			<point x="352.398" y="86.631" type="line"/>
			<point x="315.823" y="85.687" type="line"/>
			<point x="320.692" y="120.798" type="line"/>
		</contour>
		<contour>
			<point x="255.945" y="155.532" type="line"/>
			<point x="270.741" y="121.285" type="line"/>
			<point x="262.712" y="93.052" type="line"/>
			<point x="228.787" y="96.787" type="line"/>
			<point x="231.289" y="127.534" type="line"/>
		</contour>
		<contour>
			<point x="130.651" y="579.5" type="line"/>
			<point x="123.12" y="554.287" type="line"/>
			<point x="101.272" y="549.643" type="line"/>
			<point x="92.093" y="568.777" type="line"/>
			<point x="105.881" y="581.672" type="line"/>
		</contour>
		<contour>
			<point x="356.265" y="215.539" type="line"/>
			<point x="355.555" y="193.787" type="line"/>
			<point x="332.384" y="184.675" type="line"/>
			<point x="325.039" y="207.116" type="line"/>
			<point x="337.129" y="221.525" type="line"/>
		</contour>
		<contour>
			<point x="173.548" y="577.902" type="line"/>
			<point x="170.663" y="569.224" type="line"/>
			<point x="162.058" y="562.731" type="line"/>
			<point x="155.015" y="573.576" type="line"/>
			<point x="164.447" y="578.796" type="line"/>
		</contour>
		<contour>
			<point x="508.03" y="481.918" type="line"/>
			<point x="510.963" y="468.119" type="line"/>
			<point x="499.059" y="464.049" type="line"/>
			<point x="492.175" y="471.337" type="line"/>
			<point x="494.5" y="482.526" type="line"/>
		</contour>
		<contour>
			<point x="356.347" y="541.415" type="line"/>
			<point x="362.863" y="535.437" type="line"/>
			<point x="354.835" y="531.058" type="line"/>
			<point x="345.911" y="533.055" type="line"/>
			<point x="349.137" y="542.035" type="line"/>
		</contour>
		<contour>
			<point x="398.539" y="257.265" type="line"/>
			<point x="400.644" y="239.097" type="line"/>
			<point x="389.698" y="232.024" type="line"/>
			<point x="376.019" y="236.756" type="line"/>
			<point x="379.358" y="253.491" type="line"/>
		</contour>
		<contour>
			<point x="398.902" y="186.251" type="line"/>
			<point x="393.724" y="179.654" type="line"/>
			<point x="385.343" y="179.343" type="line"/>
			<point x="386.545" y="187.27" type="line"/>
			<point x="392.095" y="191.914" type="line"/>
		</contour>
	</outline>
</glyph>
<glyph name="nine" format="2">
	<advance width="683"/>
	<unicode hex="0039"/>
	<outline>
		<contour>
			<point x="198.873" y="80.945" type="line"/>
			<point x="181.647" y="-7" type="line"/>
			<point x="205.294" y="20" type="line"/>
			<point x="238.794" y="-18" type="line"/>
			<point x="272.294" y="20" type="line"/>
			<point x="297.912" y="-2" type="line"/>
			<point x="323.529" y="20" type="line"/>
			<point x="360.506" y="1.404" type="line"/>
			<point x="384.4" y="35.2" type="line"/>
			<point x="421.2" y="47.6" type="line"/>
			<point x="422.8" y="86.4" type="line"/>
			<point x="464" y="93" type="line"/>
			<point x="458.8" y="134.4" type="line"/>
			<point x="502.8" y="136.4" type="line"/>
			<point x="492.4" y="179.2" type="line"/>
			<point x="532.903" y="200.405" type="line"/>
			<point x="541.219" y="245.36" type="line"/>
			<point x="582.265" y="268.521" type="line"/>
			<point x="590.727" y="314.885" type="line"/>
			<point x="631.447" y="319.087" type="line"/>
			<point x="615.234" y="356.675" type="line"/>
			<point x="660.225" y="367.01" type="line"/>
			<point x="634.582" y="405.395" type="line"/>
			<point x="675.929" y="434.128" type="line"/>
			<point x="641.722" y="471.074" type="line"/>
			<point x="672.763" y="500.101" type="line"/>
			<point x="634.577" y="518.755" type="line"/>
			<point x="652.883" y="546.996" type="line"/>
			<point x="620.574" y="556.422" type="line"/>
			<point x="632.707" y="598.816" type="line"/>
			<point x="588.784" y="602.717" type="line"/>
			<point x="586.226" y="654.448" type="line"/>
			<point x="535.303" y="644.985" type="line"/>
			<point x="521.883" y="673.301" type="line"/>
			<point x="491.571" y="665.36" type="line"/>
			<point x="455.545" y="695.731" type="line"/>
			<point x="409.596" y="685.291" type="line"/>
			<point x="379.52" y="715.543" type="line"/>
			<point x="345.397" y="689.942" type="line"/>
			<point x="298.28" y="724.216" type="line"/>
			<point x="257.356" y="682.744" type="line"/>
			<point x="210.804" y="705.082" type="line"/>
			<point x="184.765" y="660.493" type="line"/>
			<point x="131.182" y="666.654" type="line"/>
			<point x="114.155" y="615.476" type="line"/>
			<point x="69.124" y="623.743" type="line"/>
			<point x="82.067" y="579.827" type="line"/>
			<point x="33.77" y="555.975" type="line"/>
			<point x="47.313" y="503.84" type="line"/>
			<point x="21.502" y="485.227" type="line"/>
			<point x="41.253" y="460.276" type="line"/>
			<point x="21.037" y="419.918" type="line"/>
			<point x="50.445" y="385.674" type="line"/>
			<point x="34.91" y="341.654" type="line"/>
			<point x="79.796" y="328.832" type="line"/>
			<point x="81.405" y="294.12" type="line"/>
			<point x="116.049" y="291.418" type="line"/>
			<point x="124.501" y="260.614" type="line"/>
			<point x="156.166" y="264.812" type="line"/>
			<point x="164.658" y="224.025" type="line"/>
			<point x="200.314" y="245.576" type="line"/>
			<point x="210.234" y="205.57" type="line"/>
			<point x="239.052" y="235.039" type="line"/>
			<point x="251.714" y="212.994" type="line"/>
			<point x="276.333" y="219.333" type="line"/>
			<point x="247.435" y="198.391" type="line"/>
			<point x="263.182" y="166.364" type="line"/>
			<point x="224.547" y="158.275" type="line"/>
			<point x="227.455" y="118.909" type="line"/>
			<point x="193.191" y="114.964" type="line"/>
		</contour>
		<contour>
			<point x="349.268" y="365.377" type="line"/>
			<point x="322.234" y="378.587" type="line"/>
			<point x="300.588" y="372.961" type="line"/>
			<point x="291.663" y="393.362" type="line"/>
			<point x="270.071" y="398.805" type="line"/>
			<point x="281.446" y="424.077" type="line"/>
			<point x="256.762" y="436.677" type="line"/>
			<point x="269.968" y="456.492" type="line"/>
			<point x="259.714" y="477.984" type="line"/>
			<point x="280.779" y="488.871" type="line"/>
			<point x="279.816" y="512.564" type="line"/>
			<point x="305.378" y="507.669" type="line"/>
			<point x="314.807" y="531.928" type="line"/>
			<point x="336.305" y="514.26" type="line"/>
			<point x="356.122" y="533.794" type="line"/>
			<point x="368.516" y="511.24" type="line"/>
			<point x="393.173" y="518.61" type="line"/>
			<point x="391.554" y="492.329" type="line"/>
			<point x="417.287" y="486.745" type="line"/>
			<point x="408.519" y="464.377" type="line"/>
			<point x="423.932" y="445.948" type="line"/>
			<point x="409.252" y="428.784" type="line"/>
			<point x="414.588" y="406.839" type="line"/>
			<point x="391.693" y="400.671" type="line"/>
			<point x="387.607" y="377.315" type="line"/>
			<point x="364.796" y="383.042" type="line"/>
		</contour>
		<contour>
			<point x="415.862" y="146.724" type="line"/>
			<point x="427.888" y="133.828" type="line"/>
			<point x="419.339" y="118.405" type="line"/>
			<point x="404.955" y="124.498" type="line"/>
			<point x="400.755" y="138.787" type="line"/>
		</contour>
		<contour>
			<point x="514.03" y="565.468" type="line"/>
			<point x="519.388" y="549.907" type="line"/>
			<point x="506.384" y="532.003" type="line"/>
			<point x="481.417" y="545.535" type="line"/>
			<point x="496.973" y="565.98" type="line"/>
		</contour>
		<contour>
			<point x="537.523" y="375.986" type="line"/>
			<point x="546.659" y="368.588" type="line"/>
			<point x="544.625" y="354.259" type="line"/>
			<point x="529.448" y="356.674" type="line"/>
			<point x="525.797" y="370.3" type="line"/>
		</contour>
		<contour>
			<point x="500.589" y="477.553" type="line"/>
			<point x="503.65" y="468.661" type="line"/>
			<point x="496.14" y="463.001" type="line"/>
			<point x="488.436" y="468.395" type="line"/>
			<point x="488.778" y="480.584" type="line"/>
		</contour>
		<contour>
			<point x="449.071" y="513.071" type="line"/>
			<point x="450.91" y="501.46" type="line"/>
			<point x="440.436" y="496.123" type="line"/>
			<point x="432.123" y="504.436" type="line"/>
			<point x="434.736" y="520.256" type="line"/>
		</contour>
		<contour>
			<point x="482.471" y="329.996" type="line"/>
			<point x="511.645" y="312.064" type="line"/>
			<point x="507.811" y="266.138" type="line"/>
			<point x="463.344" y="278.242" type="line"/>
			<point x="444.179" y="316.023" type="line"/>
		</contour>
		<contour>
			<point x="160.583" y="562.902" type="line"/>
			<point x="160.314" y="545.686" type="line"/>
			<point x="140.828" y="540.962" type="line"/>
			<point x="128.259" y="560.285" type="line"/>
			<point x="145.715" y="577.741" type="line"/>
		</contour>
		<contour>
			<point x="184.955" y="510.127" type="line"/>
			<point x="199.433" y="452.094" type="line"/>
			<point x="157.669" y="413.07" type="line"/>
			<point x="110.188" y="446.798" type="line"/>
			<point x="134.862" y="488.869" type="line"/>
		</contour>
		<contour>
			<point x="343.871" y="344.776" type="line"/>
			<point x="343.428" y="308.914" type="line"/>
			<point x="313.186" y="312.025" type="line"/>
			<point x="289.018" y="329.047" type="line"/>
			<point x="313.212" y="348.186" type="line"/>
		</contour>
		<contour>
			<point x="292.514" y="663.988" type="line"/>
			<point x="293.688" y="632.756" type="line"/>
			<point x="280.412" y="608.209" type="line"/>
			<point x="261.593" y="628.815" type="line"/>
			<point x="265.406" y="648.433" type="line"/>
		</contour>
		<contour>
			<point x="353.713" y="580.193" type="line"/>
			<point x="359.908" y="565.381" type="line"/>
			<point x="345.233" y="560.027" type="line"/>
			<point x="332.416" y="567.613" type="line"/>
			<point x="340.171" y="580.329" type="line"/>
		</contour>
		<contour>
			<point x="317.035" y="234.217" type="line"/>
			<point x="319.469" y="225.133" type="line"/>
			<point x="311.477" y="218.014" type="line"/>
			<point x="303.307" y="225.671" type="line"/>
			<point x="306.009" y="237.225" type="line"/>
		</contour>
		<contour>
			<point x="614.686" y="480.341" type="line"/>
			<point x="621.993" y="464.419" type="line"/>
			<point x="615.814" y="448.025" type="line"/>
			<point x="595.816" y="452.918" type="line"/>
			<point x="600.052" y="470.71" type="line"/>
		</contour>
		<contour>
			<point x="250.733" y="356.981" type="line"/>
			<point x="258.693" y="345.329" type="line"/>
			<point x="258.714" y="329.581" type="line"/>
			<point x="244.336" y="336.006" type="line"/>
			<point x="236.93" y="348.017" type="line"/>
		</contour>
		<contour>
			<point x="362.023" y="673.929" type="line"/>
			<point x="392.99" y="653.225" type="line"/>
			<point x="373.778" y="622.951" type="line"/>
			<point x="342.645" y="624.317" type="line"/>
			<point x="325.694" y="658.86" type="line"/>
		</contour>
	</outline>
</glyph>
<glyph name="less" format="2">
	<advance width="538"/>
	<unicode hex="003C"/>
	<outline>
		<contour>
			<point x="451.405" y="29.463" type="line"/>
			<point x="502.721" y="42.022" type="line"/>
			<point x="475" y="74.512" type="line"/>
			<point x="509" y="96.244" type="line"/>
			<point x="475" y="117.976" type="line"/>
			<point x="501" y="155.512" type="line"/>
			<point x="475" y="193.049" type="line"/>
			<point x="474.39" y="246.458" type="line"/>
			<point x="421" y="248" type="line"/>
			<point x="420.553" y="288.459" type="line"/>
			<point x="383.875" y="271.375" type="line"/>
			<point x="379.255" y="301.463" type="line"/>
			<point x="350.125" y="292.625" type="line"/>
			<point x="324.385" y="330.339" type="line"/>
			<point x="279.25" y="337.25" type="line"/>
			<point x="314.25" y="349.946" type="line"/>
			<point x="279.25" y="362.643" type="line"/>
			<point x="319.225" y="358.718" type="line"/>
			<point x="333.25" y="396.357" type="line"/>
			<point x="364.092" y="392.035" type="line"/>
			<point x="373.75" y="421.643" type="line"/>
			<point x="408.299" y="411.383" type="line"/>
			<point x="414.25" y="446.929" type="line"/>
			<point x="459.603" y="450.972" type="line"/>
			<point x="473.902" y="494.201" type="line"/>
			<point x="507.441" y="515.564" type="line"/>
			<point x="475" y="538.561" type="line"/>
			<point x="512" y="580.049" type="line"/>
			<point x="475" y="621.537" type="line"/>
			<point x="494.985" y="653.916" type="line"/>
			<point x="464" y="676" type="line"/>
			<point x="430.899" y="691.286" type="line"/>
			<point x="428.322" y="654.917" type="line"/>
			<point x="386.713" y="670.228" type="line"/>
			<point x="385.455" y="625.909" type="line"/>
			<point x="346.68" y="633.479" type="line"/>
			<point x="339.289" y="594.669" type="line"/>
			<point x="309.351" y="603.389" type="line"/>
			<point x="306.314" y="572.355" type="line"/>
			<point x="260.481" y="565.49" type="line"/>
			<point x="237.066" y="525.496" type="line"/>
			<point x="202.214" y="527.268" type="line"/>
			<point x="190.901" y="494.256" type="line"/>
			<point x="144.475" y="491.819" type="line"/>
			<point x="124.95" y="449.628" type="line"/>
			<point x="74.041" y="453.816" type="line"/>
			<point x="59" y="405" type="line"/>
			<point x="19.749" y="412.645" type="line"/>
			<point x="34.162" y="375.344" type="line"/>
			<point x="18.714" y="331.88" type="line"/>
			<point x="51.935" y="299.878" type="line"/>
			<point x="62.167" y="247.023" type="line"/>
			<point x="115.058" y="257.066" type="line"/>
			<point x="118.558" y="216.06" type="line"/>
			<point x="157.926" y="228.058" type="line"/>
			<point x="164.228" y="191.192" type="line"/>
			<point x="200.793" y="199.05" type="line"/>
			<point x="215.404" y="163.806" type="line"/>
			<point x="253.554" y="163.347" type="line"/>
			<point x="263.056" y="113.449" type="line"/>
			<point x="312.909" y="123.182" type="line"/>
			<point x="309.781" y="83.038" type="line"/>
			<point x="345.884" y="100.868" type="line"/>
			<point x="354.826" y="50.142" type="line"/>
			<point x="405.24" y="60.702" type="line"/>
			<point x="411.509" y="20.237" type="line"/>
		</contour>
		<contour>
			<point x="251.038" y="304.148" type="line"/>
			<point x="231.5" y="254.297" type="line"/>
			<point x="179.227" y="263.045" type="line"/>
			<point x="155.014" y="318.591" type="line"/>
			<point x="213.435" y="346.715" type="line"/>
		</contour>
		<contour>
			<point x="297.168" y="209.253" type="line"/>
			<point x="289.817" y="191.865" type="line"/>
			<point x="271.595" y="191.056" type="line"/>
			<point x="266.734" y="208.635" type="line"/>
			<point x="281" y="213" type="line"/>
		</contour>
		<contour>
			<point x="433.613" y="200.756" type="line"/>
			<point x="428.474" y="191.368" type="line"/>
			<point x="416.612" y="188.544" type="line"/>
			<point x="410.844" y="202.788" type="line"/>
			<point x="424.314" y="206.995" type="line"/>
		</contour>
		<contour>
			<point x="420.994" y="575.757" type="line"/>
			<point x="421.627" y="554.36" type="line"/>
			<point x="398.97" y="550.78" type="line"/>
			<point x="387.149" y="570.437" type="line"/>
			<point x="403.565" y="585.669" type="line"/>
		</contour>
		<contour>
			<point x="370.526" y="522.853" type="line"/>
			<point x="380.911" y="516.462" type="line"/>
			<point x="372.381" y="507.75" type="line"/>
			<point x="359.492" y="506.134" type="line"/>
			<point x="360.254" y="519.848" type="line"/>
		</contour>
		<contour>
			<point x="245.598" y="492.717" type="line"/>
			<point x="255.828" y="472.19" type="line"/>
			<point x="249.718" y="454.853" type="line"/>
			<point x="225.737" y="453.737" type="line"/>
			<point x="219.725" y="481.35" type="line"/>
		</contour>
		<contour>
			<point x="90.092" y="400.541" type="line"/>
			<point x="92.948" y="388.29" type="line"/>
			<point x="81.071" y="388.271" type="line"/>
			<point x="72.007" y="394.616" type="line"/>
			<point x="80.948" y="400.638" type="line"/>
		</contour>
		<contour>
			<point x="190.918" y="396.341" type="line"/>
			<point x="187.185" y="379.593" type="line"/>
			<point x="166.836" y="382.724" type="line"/>
			<point x="163.382" y="404.211" type="line"/>
			<point x="183.244" y="411.688" type="line"/>
		</contour>
		<contour>
			<point x="451.803" y="176.829" type="line"/>
			<point x="470.596" y="158.198" type="line"/>
			<point x="458.696" y="136.508" type="line"/>
			<point x="438.77" y="143.03" type="line"/>
			<point x="437.218" y="159.494" type="line"/>
		</contour>
		<contour>
			<point x="406.344" y="96.958" type="line"/>
			<point x="406.82" y="86.686" type="line"/>
			<point x="397.091" y="88.752" type="line"/>
			<point x="394.11" y="95.145" type="line"/>
			<point x="398.903" y="102.933" type="line"/>
		</contour>
		<contour>
			<point x="446.094" y="495.506" type="line"/>
			<point x="445.396" y="475.534" type="line"/>
			<point x="425.502" y="468.146" type="line"/>
			<point x="410.013" y="486.768" type="line"/>
			<point x="426.763" y="504.264" type="line"/>
		</contour>
	</outline>
</glyph>
<glyph name="equal" format="2">
	<advance width="563"/>
	<unicode hex="003D"/>
	<outline>
		<contour>
			<point x="62.49" y="362.579" type="line"/>
			<point x="106.794" y="336" type="line"/>
			<point x="134.588" y="350" type="line"/>
			<point x="176.279" y="329" type="line"/>
			<point x="217.971" y="350" type="line"/>
			<point x="257.676" y="336" type="line"/>
			<point x="297.382" y="350" type="line"/>
			<point x="327.162" y="324.1" type="line"/>
			<point x="356.941" y="350" type="line"/>
			<point x="388.706" y="335.3" type="line"/>
			<point x="420.471" y="350" type="line"/>
			<point x="457.043" y="332.827" type="line"/>
			<point x="492.587" y="352.04" type="line"/>
			<point x="526.448" y="374.981" type="line"/>
			<point x="501" y="407" type="line"/>
			<point x="530" y="431" type="line"/>
			<point x="501" y="455" type="line"/>
			<point x="501.528" y="493.023" type="line"/>
			<point x="464.147" y="500" type="line"/>
			<point x="436.353" y="532" type="line"/>
			<point x="408.559" y="500" type="line"/>
			<point x="370.838" y="525" type="line"/>
			<point x="333.118" y="500" type="line"/>
			<point x="303.338" y="523" type="line"/>
			<point x="273.559" y="500" type="line"/>
			<point x="253.706" y="535" type="line"/>
			<point x="233.853" y="500" type="line"/>
			<point x="212.015" y="532" type="line"/>
			<point x="190.176" y="500" type="line"/>
			<point x="156.426" y="525" type="line"/>
			<point x="122.676" y="500" type="line"/>
			<point x="102.824" y="538" type="line"/>
			<point x="82.971" y="500" type="line"/>
			<point x="58.689" y="476.576" type="line"/>
			<point x="62" y="443" type="line"/>
			<point x="42.245" y="402.668" type="line"/>
		</contour>
		<contour>
			<point x="64.04" y="108.413" type="line"/>
			<point x="118.706" y="73" type="line"/>
			<point x="158.412" y="100" type="line"/>
			<point x="192.162" y="78" type="line"/>
			<point x="225.912" y="100" type="line"/>
			<point x="253.706" y="77" type="line"/>
			<point x="281.5" y="100" type="line"/>
			<point x="317.235" y="74" type="line"/>
			<point x="352.971" y="100" type="line"/>
			<point x="384.735" y="80" type="line"/>
			<point x="416.5" y="100" type="line"/>
			<point x="450.25" y="63" type="line"/>
			<point x="484" y="100" type="line"/>
			<point x="520.114" y="117.643" type="line"/>
			<point x="501" y="153" type="line"/>
			<point x="538" y="181" type="line"/>
			<point x="501" y="209" type="line"/>
			<point x="499.13" y="238.375" type="line"/>
			<point x="472.088" y="250" type="line"/>
			<point x="430.397" y="266.1" type="line"/>
			<point x="388.706" y="250" type="line"/>
			<point x="350.985" y="265.4" type="line"/>
			<point x="313.265" y="250" type="line"/>
			<point x="283.485" y="267.5" type="line"/>
			<point x="253.706" y="250" type="line"/>
			<point x="229.882" y="275.9" type="line"/>
			<point x="206.059" y="250" type="line"/>
			<point x="182.235" y="269.6" type="line"/>
			<point x="158.412" y="250" type="line"/>
			<point x="124.662" y="275.2" type="line"/>
			<point x="90.912" y="250" type="line"/>
			<point x="65.55" y="246.373" type="line"/>
			<point x="62" y="221" type="line"/>
			<point x="25" y="197" type="line"/>
			<point x="62" y="173" type="line"/>
			<point x="24.04" y="139.475" type="line"/>
		</contour>
		<contour>
			<point x="473.625" y="409.741" type="line"/>
			<point x="482.421" y="393.6" type="line"/>
			<point x="466.628" y="386.016" type="line"/>
			<point x="451.063" y="392.266" type="line"/>
			<point x="455.302" y="411.211" type="line"/>
		</contour>
		<contour>
			<point x="396.206" y="414.875" type="line"/>
			<point x="409.776" y="392.799" type="line"/>
			<point x="393.078" y="361.532" type="line"/>
			<point x="355.214" y="379.099" type="line"/>
			<point x="368.297" y="414.061" type="line"/>
		</contour>
		<contour>
			<point x="481.673" y="228.661" type="line"/>
			<point x="476.299" y="217.52" type="line"/>
			<point x="463.929" y="217.574" type="line"/>
			<point x="460.801" y="230.121" type="line"/>
			<point x="471.558" y="233.981" type="line"/>
		</contour>
		<contour>
			<point x="261.279" y="131.619" type="line"/>
			<point x="268.998" y="124.825" type="line"/>
			<point x="260.754" y="119.262" type="line"/>
			<point x="253.266" y="120.985" type="line"/>
			<point x="252.611" y="129.815" type="line"/>
		</contour>
		<contour>
			<point x="174.878" y="207.389" type="line"/>
			<point x="170.756" y="198.936" type="line"/>
			<point x="162.832" y="201.684" type="line"/>
			<point x="158.012" y="210.384" type="line"/>
			<point x="167.696" y="210.951" type="line"/>
		</contour>
		<contour>
			<point x="200.193" y="402.723" type="line"/>
			<point x="200.663" y="396.224" type="line"/>
			<point x="193.85" y="394.399" type="line"/>
			<point x="191.007" y="400.262" type="line"/>
			<point x="194.188" y="406.761" type="line"/>
		</contour>
		<contour>
			<point x="291.671" y="451.743" type="line"/>
			<point x="304.881" y="439.95" type="line"/>
			<point x="293.226" y="428.937" type="line"/>
			<point x="278.761" y="428.452" type="line"/>
			<point x="281.128" y="442.363" type="line"/>
		</contour>
		<contour>
			<point x="125.795" y="424.8" type="line"/>
			<point x="121.605" y="417" type="line"/>
			<point x="112.095" y="416.208" type="line"/>
			<point x="113.397" y="424.954" type="line"/>
			<point x="118.436" y="427.981" type="line"/>
		</contour>
		<contour>
			<point x="165.588" y="387" type="line"/>
			<point x="164.863" y="364.617" type="line"/>
			<point x="145.526" y="367.951" type="line"/>
			<point x="133.093" y="379.777" type="line"/>
			<point x="145.842" y="397.563" type="line"/>
		</contour>
		<contour>
			<point x="329.216" y="213.32" type="line"/>
			<point x="343.074" y="186.607" type="line"/>
			<point x="314.273" y="164.045" type="line"/>
			<point x="297.647" y="192.082" type="line"/>
			<point x="300.205" y="221.321" type="line"/>
		</contour>
		<contour>
			<point x="183.625" y="134.847" type="line"/>
			<point x="178.991" y="122.775" type="line"/>
			<point x="164.19" y="121.12" type="line"/>
			<point x="157.129" y="138.092" type="line"/>
			<point x="173.471" y="140.988" type="line"/>
		</contour>
	</outline>
</glyph>
<glyph name="at" format="2">
	<advance width="856"/>
	<unicode hex="0040"/>
	<outline>
		<contour>
			<point x="366.821" y="-116.443" type="line"/>
			<point x="468.981" y="-143.081" type="line"/>
			<point x="492.242" y="-119.194" type="line"/>
			<point x="518.698" y="-137.183" type="line"/>
			<point x="540.174" y="-113.469" type="line"/>
			<point x="578.084" y="-134.41" type="line"/>
			<point x="602.828" y="-98.865" type="line"/>
			<point x="643.652" y="-120.486" type="line"/>
			<point x="658.991" y="-76.911" type="line"/>
			<point x="692.601" y="-95.983" type="line"/>
			<point x="694.141" y="-57.37" type="line"/>
			<point x="734.811" y="-50.187" type="line"/>
			<point x="750.319" y="-11.91" type="line"/>
			<point x="751.864" y="23.371" type="line"/>
			<point x="716.96" y="18" type="line"/>
			<point x="682.242" y="31.012" type="line"/>
			<point x="650.438" y="11.956" type="line"/>
			<point x="625.493" y="12.14" type="line"/>
			<point x="616.093" y="-10.966" type="line"/>
			<point x="577.761" y="0.71" type="line"/>
			<point x="555.315" y="-32.484" type="line"/>
			<point x="526.218" y="-9.78" type="line"/>
			<point x="503.08" y="-38.533" type="line"/>
			<point x="478.146" y="-16.859" type="line"/>
			<point x="454.533" y="-39.965" type="line"/>
			<point x="422.278" y="-13.494" type="line"/>
			<point x="388.068" y="-37.385" type="line"/>
			<point x="364.804" y="-18.111" type="line"/>
			<point x="336.724" y="-29.258" type="line"/>
			<point x="303.896" y="2.456" type="line"/>
			<point x="258.313" y="0.077" type="line"/>
			<point x="238.203" y="35.009" type="line"/>
			<point x="200.189" y="48.413" type="line"/>
			<point x="210.278" y="81.401" type="line"/>
			<point x="175.977" y="85.067" type="line"/>
			<point x="190.248" y="112.673" type="line"/>
			<point x="160.589" y="121.951" type="line"/>
			<point x="177.272" y="167.33" type="line"/>
			<point x="145.738" y="203.979" type="line"/>
			<point x="164.499" y="230.639" type="line"/>
			<point x="144.08" y="256.052" type="line"/>
			<point x="168.77" y="281.923" type="line"/>
			<point x="144.461" y="308.152" type="line"/>
			<point x="171.269" y="336.625" type="line"/>
			<point x="149.227" y="368.929" type="line"/>
			<point x="172.332" y="400.001" type="line"/>
			<point x="168.448" y="438.528" type="line"/>
			<point x="205.757" y="453.896" type="line"/>
			<point x="200.727" y="493.931" type="line"/>
			<point x="249.048" y="501.593" type="line"/>
			<point x="264.963" y="547.856" type="line"/>
			<point x="297.293" y="533.511" type="line"/>
			<point x="309.257" y="566.796" type="line"/>
			<point x="336.185" y="549.571" type="line"/>
			<point x="352.194" y="577.238" type="line"/>
			<point x="399.58" y="556.954" type="line"/>
			<point x="444.186" y="582.785" type="line"/>
			<point x="480.753" y="558.24" type="line"/>
			<point x="520.612" y="576.97" type="line"/>
			<point x="539.737" y="549.519" type="line"/>
			<point x="568.049" y="567.345" type="line"/>
			<point x="599.659" y="535.526" type="line"/>
			<point x="644.338" y="531.595" type="line"/>
			<point x="641.267" y="497.129" type="line"/>
			<point x="675.718" y="500.376" type="line"/>
			<point x="671.76" y="466.307" type="line"/>
			<point x="702.341" y="450.777" type="line"/>
			<point x="688.401" y="420.231" type="line"/>
			<point x="715.181" y="399.979" type="line"/>
			<point x="703.279" y="362.317" type="line"/>
			<point x="720.694" y="326.865" type="line"/>
			<point x="701.947" y="303.691" type="line"/>
			<point x="721" y="280.768" type="line"/>
			<point x="696.965" y="242.022" type="line"/>
			<point x="703.049" y="196.836" type="line"/>
			<point x="670.372" y="215.583" type="line"/>
			<point x="658" y="180" type="line"/>
			<point x="642.446" y="221.208" type="line"/>
			<point x="598.402" y="220.841" type="line"/>
			<point x="618.568" y="262.248" type="line"/>
			<point x="594" y="301.204" type="line"/>
			<point x="616.4" y="330.745" type="line"/>
			<point x="594" y="360.286" type="line"/>
			<point x="617.1" y="401.643" type="line"/>
			<point x="594" y="443" type="line"/>
			<point x="562.682" y="467.386" type="line"/>
			<point x="527" y="450" type="line"/>
			<point x="500.987" y="451.635" type="line"/>
			<point x="490" y="428" type="line"/>
			<point x="470.952" y="455.778" type="line"/>
			<point x="437.768" y="450.013" type="line"/>
			<point x="396.072" y="467.721" type="line"/>
			<point x="353.144" y="453.254" type="line"/>
			<point x="312.356" y="445.874" type="line"/>
			<point x="291.76" y="409.904" type="line"/>
			<point x="257.492" y="387.837" type="line"/>
			<point x="264.188" y="347.633" type="line"/>
			<point x="239.217" y="310.474" type="line"/>
			<point x="256.021" y="268.978" type="line"/>
			<point x="238.698" y="223.875" type="line"/>
			<point x="268.452" y="185.809" type="line"/>
			<point x="263.681" y="141.428" type="line"/>
			<point x="304.776" y="124" type="line"/>
			<point x="328.683" y="92.71" type="line"/>
			<point x="368.034" y="91.259" type="line"/>
			<point x="388.366" y="74.197" type="line"/>
			<point x="410.194" y="89.3" type="line"/>
			<point x="443.679" y="74.063" type="line"/>
			<point x="469.626" y="100.144" type="line"/>
			<point x="503.208" y="106.123" type="line"/>
			<point x="519.667" y="136" type="line"/>
			<point x="530.633" y="109.948" type="line"/>
			<point x="553.008" y="127.22" type="line"/>
			<point x="561.391" y="93.085" type="line"/>
			<point x="593.059" y="108.336" type="line"/>
			<point x="615.901" y="86.613" type="line"/>
			<point x="644.724" y="99.375" type="line"/>
			<point x="670.559" y="87.38" type="line"/>
			<point x="694.179" y="103.299" type="line"/>
			<point x="735.213" y="87.384" type="line"/>
			<point x="748.751" y="129.262" type="line"/>
			<point x="781.464" y="125.417" type="line"/>
			<point x="777.138" y="158.07" type="line"/>
			<point x="816.577" y="181.175" type="line"/>
			<point x="804.042" y="225.131" type="line"/>
			<point x="829.424" y="257.603" type="line"/>
			<point x="806.848" y="292.084" type="line"/>
			<point x="828.339" y="329.971" type="line"/>
			<point x="803.867" y="366.004" type="line"/>
			<point x="818.31" y="400.976" type="line"/>
			<point x="793.299" y="429.367" type="line"/>
			<point x="798.668" y="473.841" type="line"/>
			<point x="766.364" y="504.876" type="line"/>
			<point x="766.081" y="553.715" type="line"/>
			<point x="720.102" y="570.183" type="line"/>
			<point x="720.413" y="618.635" type="line"/>
			<point x="673.19" y="607.788" type="line"/>
			<point x="662.773" y="640.15" type="line"/>
			<point x="630.376" y="629.841" type="line"/>
			<point x="611.521" y="662.382" type="line"/>
			<point x="577.009" y="647.438" type="line"/>
			<point x="554.253" y="678.232" type="line"/>
			<point x="521.782" y="657.941" type="line"/>
			<point x="481.21" y="681.867" type="line"/>
			<point x="437.672" y="663.897" type="line"/>
			<point x="410.083" y="689.099" type="line"/>
			<point x="384.019" y="662.323" type="line"/>
			<point x="342.864" y="689.833" type="line"/>
			<point x="313.07" y="650.3" type="line"/>
			<point x="269.836" y="657.767" type="line"/>
			<point x="241.864" y="623.967" type="line"/>
			<point x="193.733" y="628.766" type="line"/>
			<point x="177.96" y="583.039" type="line"/>
			<point x="131.785" y="568.907" type="line"/>
			<point x="120.611" y="521.928" type="line"/>
			<point x="91.217" y="514.131" type="line"/>
			<point x="97.645" y="484.407" type="line"/>
			<point x="52.054" y="463.456" type="line"/>
			<point x="71.776" y="417.32" type="line"/>
			<point x="29.549" y="387.439" type="line"/>
			<point x="60.399" y="345.915" type="line"/>
			<point x="30.582" y="310.088" type="line"/>
			<point x="58.75" y="272.951" type="line"/>
			<point x="36.079" y="246.312" type="line"/>
			<point x="59.403" y="220.242" type="line"/>
			<point x="36.212" y="179.223" type="line"/>
			<point x="66.775" y="143.358" type="line"/>
			<point x="52.054" y="103.824" type="line"/>
			<point x="85.415" y="78.004" type="line"/>
			<point x="67.935" y="45.163" type="line"/>
			<point x="104.51" y="38.36" type="line"/>
			<point x="101.257" y="1.641" type="line"/>
			<point x="137.053" y="-7.166" type="line"/>
			<point x="149.731" y="-53.652" type="line"/>
			<point x="197.598" y="-59.178" type="line"/>
			<point x="205.026" y="-104.976" type="line"/>
			<point x="247.078" y="-85.374" type="line"/>
			<point x="267.853" y="-131.121" type="line"/>
			<point x="311.678" y="-106.55" type="line"/>
			<point x="335.541" y="-132.166" type="line"/>
		</contour>
		<contour>
			<point x="457.455" y="175.002" type="line"/>
			<point x="408.907" y="195.967" type="line"/>
			<point x="384.802" y="178.049" type="line"/>
			<point x="377.68" y="199.509" type="line"/>
			<point x="355.808" y="205.245" type="line"/>
			<point x="362.489" y="228.613" type="line"/>
			<point x="343.135" y="243.315" type="line"/>
			<point x="353.976" y="264.766" type="line"/>
			<point x="341.318" y="285.198" type="line"/>
			<point x="361.272" y="302.244" type="line"/>
			<point x="348.421" y="325.125" type="line"/>
			<point x="367.888" y="336.584" type="line"/>
			<point x="369.984" y="359.076" type="line"/>
			<point x="396.643" y="348.875" type="line"/>
			<point x="406.534" y="375.65" type="line"/>
			<point x="426.723" y="350.546" type="line"/>
			<point x="448.353" y="374.42" type="line"/>
			<point x="454.768" y="344.446" type="line"/>
			<point x="483.594" y="354.872" type="line"/>
			<point x="481.399" y="330.785" type="line"/>
			<point x="502.576" y="319.102" type="line"/>
			<point x="489.712" y="296.819" type="line"/>
			<point x="507.936" y="278.655" type="line"/>
			<point x="487.828" y="258.896" type="line"/>
			<point x="504.862" y="236.434" type="line"/>
			<point x="484.14" y="222.903" type="line"/>
			<point x="489.804" y="198.812" type="line"/>
			<point x="467.239" y="195.589" type="line"/>
		</contour>
		<contour>
			<point x="766.417" y="170.997" type="line"/>
			<point x="764.785" y="161.106" type="line"/>
			<point x="752.111" y="156.975" type="line"/>
			<point x="746.386" y="171.145" type="line"/>
			<point x="758.233" y="178.973" type="line"/>
		</contour>
		<contour>
			<point x="792.835" y="283.366" type="line"/>
			<point x="783.452" y="265.721" type="line"/>
			<point x="757.297" y="262.939" type="line"/>
			<point x="760.99" y="288.981" type="line"/>
			<point x="778.952" y="297.742" type="line"/>
		</contour>
		<contour>
			<point x="442.963" y="646.881" type="line"/>
			<point x="440.699" y="632.339" type="line"/>
			<point x="427.5" y="634.206" type="line"/>
			<point x="418.306" y="644.911" type="line"/>
			<point x="430.223" y="658.907" type="line"/>
		</contour>
		<contour>
			<point x="343.937" y="381.734" type="line"/>
			<point x="345.362" y="355.794" type="line"/>
			<point x="315.384" y="355.033" type="line"/>
			<point x="309.681" y="381.176" type="line"/>
			<point x="327.953" y="395.973" type="line"/>
		</contour>
	</outline>
</glyph>
<glyph name="A" format="2">
	<advance width="755"/>
	<unicode hex="0041"/>
	<anchor x="679" y="10" name="ogonek"/>
	<anchor x="378" y="0" name="bottom"/>
	<anchor x="378" y="700" name="top"/>
	<outline>
		<contour>
			<point x="20" y="22" type="line"/>
			<point x="55.457" y="-14" type="line"/>
			<point x="88.915" y="20" type="line"/>
			<point x="114.5" y="-12" type="line"/>
			<point x="140.085" y="20" type="line"/>
			<point x="173.543" y="-19" type="line"/>
			<point x="207" y="20" type="line"/>
			<point x="247.546" y="18.159" type="line"/>
			<point x="236.227" y="57.136" type="line"/>
			<point x="275.674" y="63.03" type="line"/>
			<point x="249.409" y="93.045" type="line"/>
			<point x="281.752" y="73.933" type="line"/>
			<point x="287.869" y="111" type="line"/>
			<point x="309.779" y="91" type="line"/>
			<point x="331.689" y="111" type="line"/>
			<point x="363.557" y="86" type="line"/>
			<point x="395.426" y="111" type="line"/>
			<point x="427.295" y="91" type="line"/>
			<point x="459.164" y="111" type="line"/>
			<point x="474.74" y="81.902" type="line"/>
			<point x="504.273" y="96.636" type="line"/>
			<point x="491.623" y="53.01" type="line"/>
			<point x="529.619" y="28.119" type="line"/>
			<point x="567.816" y="-0.817" type="line"/>
			<point x="610.979" y="20" type="line"/>
			<point x="634.596" y="-7" type="line"/>
			<point x="658.213" y="20" type="line"/>
			<point x="697.895" y="-11.475" type="line"/>
			<point x="735" y="23" type="line"/>
			<point x="752.013" y="71.31" type="line"/>
			<point x="708.609" y="98.503" type="line"/>
			<point x="716.558" y="139.408" type="line"/>
			<point x="684.858" y="166.456" type="line"/>
			<point x="696.389" y="200.141" type="line"/>
			<point x="666.385" y="219.308" type="line"/>
			<point x="674.333" y="260.213" type="line"/>
			<point x="642.633" y="287.26" type="line"/>
			<point x="664.64" y="318.252" type="line"/>
			<point x="628.118" y="328.787" type="line"/>
			<point x="642.482" y="363.462" type="line"/>
			<point x="609.645" y="381.639" type="line"/>
			<point x="625.987" y="410.651" type="line"/>
			<point x="595.13" y="423.166" type="line"/>
			<point x="604.307" y="466.619" type="line"/>
			<point x="570.059" y="494.893" type="line"/>
			<point x="581.022" y="524.143" type="line"/>
			<point x="554.225" y="540.195" type="line"/>
			<point x="567.735" y="568.218" type="line"/>
			<point x="539.71" y="581.722" type="line"/>
			<point x="561.818" y="627.577" type="line"/>
			<point x="515.959" y="649.675" type="line"/>
			<point x="495.411" y="685.557" type="line"/>
			<point x="454.436" y="680" type="line"/>
			<point x="434.709" y="709" type="line"/>
			<point x="414.982" y="680" type="line"/>
			<point x="375.527" y="703" type="line"/>
			<point x="336.073" y="680" type="line"/>
			<point x="295.348" y="705.687" type="line"/>
			<point x="256.381" y="677.403" type="line"/>
			<point x="215.737" y="656.497" type="line"/>
			<point x="225.846" y="611.923" type="line"/>
			<point x="193.771" y="580.771" type="line"/>
			<point x="199.456" y="536.42" type="line"/>
			<point x="171.146" y="525.133" type="line"/>
			<point x="186.26" y="498.669" type="line"/>
			<point x="145.496" y="479.026" type="line"/>
			<point x="165.148" y="438.266" type="line"/>
			<point x="123.156" y="421.171" type="line"/>
			<point x="145.355" y="381.639" type="line"/>
			<point x="111.574" y="363.792" type="line"/>
			<point x="126.882" y="328.787" type="line"/>
			<point x="81.113" y="313.012" type="line"/>
			<point x="107.089" y="272.16" type="line"/>
			<point x="79.348" y="256.438" type="line"/>
			<point x="91.254" y="226.858" type="line"/>
			<point x="42.563" y="205.75" type="line"/>
			<point x="67.503" y="158.905" type="line"/>
			<point x="28.15" y="149.36" type="line"/>
			<point x="52.988" y="117.379" type="line"/>
			<point x="13.351" y="110.051" type="line"/>
			<point x="39.793" y="79.627" type="line"/>
			<point x="5.306" y="59.259" type="line"/>
		</contour>
		<contour>
			<point x="309.905" y="266" type="line"/>
			<point x="311.442" y="281.388" type="line"/>
			<point x="305.429" y="303.857" type="line"/>
			<point x="328.03" y="317.688" type="line"/>
			<point x="316.857" y="341.714" type="line"/>
			<point x="340.866" y="355.12" type="line"/>
			<point x="328.286" y="379.571" type="line"/>
			<point x="343.382" y="395.668" type="line"/>
			<point x="339.714" y="417.429" type="line"/>
			<point x="357.156" y="432.817" type="line"/>
			<point x="351.143" y="455.286" type="line"/>
			<point x="372.366" y="456.743" type="line"/>
			<point x="373.2" y="478" type="line"/>
			<point x="380.53" y="458.845" type="line"/>
			<point x="400.643" y="462.857" type="line"/>
			<point x="392.861" y="439.763" type="line"/>
			<point x="412.25" y="425" type="line"/>
			<point x="402.125" y="401.188" type="line"/>
			<point x="423.857" y="387.143" type="line"/>
			<point x="415.138" y="363.762" type="line"/>
			<point x="435.464" y="349.286" type="line"/>
			<point x="422.997" y="324.755" type="line"/>
			<point x="447.071" y="311.429" type="line"/>
			<point x="439.289" y="288.335" type="line"/>
			<point x="458.679" y="273.571" type="line"/>
			<point x="438.364" y="291.482" type="line"/>
			<point x="429.19" y="266" type="line"/>
			<point x="409.31" y="279.23" type="line"/>
			<point x="389.429" y="266" type="line"/>
			<point x="369.548" y="280.7" type="line"/>
			<point x="349.667" y="266" type="line"/>
			<point x="329.786" y="276.78" type="line"/>
		</contour>
		<contour>
			<point x="281.456" y="260.388" type="line"/>
			<point x="279.461" y="247.967" type="line"/>
			<point x="267.59" y="237.62" type="line"/>
			<point x="259.008" y="252.546" type="line"/>
			<point x="266.87" y="267.095" type="line"/>
		</contour>
		<contour>
			<point x="513.837" y="586.971" type="line"/>
			<point x="522.703" y="577.419" type="line"/>
			<point x="518.299" y="566.52" type="line"/>
			<point x="506.572" y="567.34" type="line"/>
			<point x="501.874" y="579.495" type="line"/>
		</contour>
		<contour>
			<point x="156.497" y="157.075" type="line"/>
			<point x="173.615" y="133.278" type="line"/>
			<point x="144.257" y="125.076" type="line"/>
			<point x="129.436" y="141.176" type="line"/>
			<point x="136.729" y="160.429" type="line"/>
		</contour>
		<contour>
			<point x="367.226" y="154.063" type="line"/>
			<point x="371.933" y="143.903" type="line"/>
			<point x="365.099" y="134.202" type="line"/>
			<point x="354.254" y="140.152" type="line"/>
			<point x="356.418" y="151.138" type="line"/>
		</contour>
		<contour>
			<point x="467.5" y="553.958" type="line"/>
			<point x="465.737" y="499.317" type="line"/>
			<point x="417.605" y="493.907" type="line"/>
			<point x="395.005" y="527.593" type="line"/>
			<point x="415.843" y="570.034" type="line"/>
		</contour>
		<contour>
			<point x="303.5" y="482.454" type="line"/>
			<point x="304.76" y="463.713" type="line"/>
			<point x="295.777" y="449.093" type="line"/>
			<point x="283.951" y="461.526" type="line"/>
			<point x="281.956" y="479.377" type="line"/>
		</contour>
		<contour>
			<point x="596" y="133.816" type="line"/>
			<point x="587.811" y="114.471" type="line"/>
			<point x="572.92" y="111.033" type="line"/>
			<point x="560.068" y="124.569" type="line"/>
			<point x="575.076" y="135.667" type="line"/>
		</contour>
		<contour>
			<point x="627.983" y="296.977" type="line"/>
			<point x="606.156" y="279.086" type="line"/>
			<point x="573.996" y="275.683" type="line"/>
			<point x="583.419" y="307.184" type="line"/>
			<point x="604.961" y="313.303" type="line"/>
		</contour>
		<contour>
			<point x="374.238" y="616.125" type="line"/>
			<point x="352.343" y="588.011" type="line"/>
			<point x="319.428" y="576.684" type="line"/>
			<point x="321.93" y="610.871" type="line"/>
			<point x="340" y="627" type="line"/>
		</contour>
		<contour>
			<point x="530.603" y="404.243" type="line"/>
			<point x="544.659" y="357.129" type="line"/>
			<point x="517.467" y="319.653" type="line"/>
			<point x="483.512" y="347.916" type="line"/>
			<point x="479.068" y="391.87" type="line"/>
		</contour>
		<contour>
			<point x="286.271" y="319.429" type="line"/>
			<point x="293.564" y="300.176" type="line"/>
			<point x="277.872" y="294.038" type="line"/>
			<point x="262.272" y="297.748" type="line"/>
			<point x="268.471" y="313.811" type="line"/>
		</contour>
		<contour>
			<point x="217" y="63" type="line"/>
			<point x="200.725" y="39.224" type="line"/>
			<point x="176.82" y="51.244" type="line"/>
			<point x="172.775" y="77.695" type="line"/>
			<point x="199.798" y="83.923" type="line"/>
		</contour>
	</outline>
</glyph>
<glyph name="D" format="2">
	<advance width="740"/>
	<unicode hex="0044"/>
	<outline>
		<contour>
			<point x="75" y="50.926" type="line"/>
			<point x="109.716" y="-16" type="line"/>
			<point x="137.432" y="20" type="line"/>
			<point x="163.169" y="-13" type="line"/>
			<point x="188.905" y="20" type="line"/>
			<point x="224.541" y="-3" type="line"/>
			<point x="260.176" y="20" type="line"/>
			<point x="281.953" y="-14" type="line"/>
			<point x="303.73" y="20" type="line"/>
			<point x="329.466" y="-1" type="line"/>
			<point x="355.203" y="20" type="line"/>
			<point x="381.58" y="-3.564" type="line"/>
			<point x="407.159" y="20.865" type="line"/>
			<point x="450.679" y="-0.294" type="line"/>
			<point x="486.698" y="32.024" type="line"/>
			<point x="524.682" y="6.654" type="line"/>
			<point x="540.089" y="49.654" type="line"/>
			<point x="588.792" y="43.613" type="line"/>
			<point x="604.545" y="90.092" type="line"/>
			<point x="660.219" y="100.343" type="line"/>
			<point x="655.519" y="156.756" type="line"/>
			<point x="692.345" y="187.171" type="line"/>
			<point x="679.568" y="233.192" type="line"/>
			<point x="710.727" y="254.355" type="line"/>
			<point x="684.15" y="281.046" type="line"/>
			<point x="710.729" y="302.614" type="line"/>
			<point x="685.327" y="325.556" type="line"/>
			<point x="720.162" y="358.115" type="line"/>
			<point x="684.997" y="390.318" type="line"/>
			<point x="709.301" y="422.561" type="line"/>
			<point x="681.68" y="452.011" type="line"/>
			<point x="712.971" y="478.834" type="line"/>
			<point x="673.7" y="491.34" type="line"/>
			<point x="679.965" y="533.609" type="line"/>
			<point x="644.25" y="557.069" type="line"/>
			<point x="650.716" y="601.975" type="line"/>
			<point x="605.355" y="602.859" type="line"/>
			<point x="584.52" y="644.037" type="line"/>
			<point x="538.45" y="646.755" type="line"/>
			<point x="505.849" y="683.249" type="line"/>
			<point x="458.21" y="672.059" type="line"/>
			<point x="434.653" y="710.262" type="line"/>
			<point x="402.447" y="679.001" type="line"/>
			<point x="364.576" y="706.498" type="line"/>
			<point x="326" y="680" type="line"/>
			<point x="288" y="718" type="line"/>
			<point x="250" y="680" type="line"/>
			<point x="214" y="705" type="line"/>
			<point x="178" y="680" type="line"/>
			<point x="148" y="701" type="line"/>
			<point x="118" y="680" type="line"/>
			<point x="82.195" y="684.427" type="line"/>
			<point x="75" y="649.074" type="line"/>
			<point x="47" y="611.191" type="line"/>
			<point x="75" y="573.309" type="line"/>
			<point x="38" y="549.383" type="line"/>
			<point x="75" y="525.457" type="line"/>
			<point x="49" y="501.531" type="line"/>
			<point x="75" y="477.605" type="line"/>
			<point x="41" y="445.704" type="line"/>
			<point x="75" y="413.802" type="line"/>
			<point x="39" y="371.932" type="line"/>
			<point x="75" y="330.062" type="line"/>
			<point x="42" y="288.191" type="line"/>
			<point x="75" y="246.321" type="line"/>
			<point x="44" y="226.383" type="line"/>
			<point x="75" y="206.444" type="line"/>
			<point x="46" y="166.568" type="line"/>
			<point x="75" y="126.691" type="line"/>
			<point x="44" y="88.809" type="line"/>
		</contour>
		<contour>
			<point x="308.182" y="175" type="line"/>
			<point x="303.13" y="194.886" type="line"/>
			<point x="285" y="214.773" type="line"/>
			<point x="302.64" y="234.659" type="line"/>
			<point x="285" y="254.545" type="line"/>
			<point x="300.19" y="274.432" type="line"/>
			<point x="285" y="294.318" type="line"/>
			<point x="301.66" y="314.205" type="line"/>
			<point x="285" y="334.091" type="line"/>
			<point x="298.23" y="353.977" type="line"/>
			<point x="285" y="373.864" type="line"/>
			<point x="295.29" y="393.75" type="line"/>
			<point x="285" y="413.636" type="line"/>
			<point x="299.7" y="433.523" type="line"/>
			<point x="285" y="453.409" type="line"/>
			<point x="303.13" y="473.295" type="line"/>
			<point x="285" y="493.182" type="line"/>
			<point x="301.355" y="505.984" type="line"/>
			<point x="293" y="525" type="line"/>
			<point x="313" y="502.6" type="line"/>
			<point x="333" y="525" type="line"/>
			<point x="352.882" y="503.889" type="line"/>
			<point x="373" y="524.777" type="line"/>
			<point x="388.304" y="501.99" type="line"/>
			<point x="411.854" y="516.092" type="line"/>
			<point x="413.165" y="483.487" type="line"/>
			<point x="444.308" y="493.229" type="line"/>
			<point x="437.815" y="466.592" type="line"/>
			<point x="464.098" y="458.788" type="line"/>
			<point x="452.25" y="436.028" type="line"/>
			<point x="470.425" y="417.916" type="line"/>
			<point x="453.561" y="397.029" type="line"/>
			<point x="471.952" y="377.474" type="line"/>
			<point x="461.764" y="357.188" type="line"/>
			<point x="472.155" y="337.004" type="line"/>
			<point x="457.869" y="317.165" type="line"/>
			<point x="471.012" y="296.55" type="line"/>
			<point x="454.203" y="276.99" type="line"/>
			<point x="467.677" y="255" type="line"/>
			<point x="444.546" y="242.331" type="line"/>
			<point x="453.495" y="217.523" type="line"/>
			<point x="423.538" y="219.277" type="line"/>
			<point x="425.222" y="189.316" type="line"/>
			<point x="398.509" y="205.227" type="line"/>
			<point x="387.425" y="176.177" type="line"/>
			<point x="366.574" y="194.481" type="line"/>
			<point x="346.818" y="175" type="line"/>
			<point x="327.5" y="197.4" type="line"/>
		</contour>
		<contour>
			<point x="612.7" y="404.335" type="line"/>
			<point x="624.825" y="357.448" type="line"/>
			<point x="575.029" y="354.111" type="line"/>
			<point x="561.016" y="387.907" type="line"/>
			<point x="578.731" y="415.838" type="line"/>
		</contour>
		<contour>
			<point x="598.107" y="221.74" type="line"/>
			<point x="588.784" y="194.381" type="line"/>
			<point x="559.162" y="188.255" type="line"/>
			<point x="548.772" y="218.29" type="line"/>
			<point x="572.396" y="234.944" type="line"/>
		</contour>
		<contour>
			<point x="244.946" y="140.927" type="line"/>
			<point x="241.956" y="70.434" type="line"/>
			<point x="158.342" y="54.998" type="line"/>
			<point x="154.153" y="131.123" type="line"/>
			<point x="193.468" y="172.802" type="line"/>
		</contour>
		<contour>
			<point x="515.18" y="605.229" type="line"/>
			<point x="539.063" y="548.269" type="line"/>
			<point x="495.947" y="501.425" type="line"/>
			<point x="451.841" y="540.673" type="line"/>
			<point x="466.494" y="582.135" type="line"/>
		</contour>
		<contour>
			<point x="570.398" y="476.241" type="line"/>
			<point x="563.499" y="451.913" type="line"/>
			<point x="537.812" y="448.495" type="line"/>
			<point x="532.535" y="472.355" type="line"/>
			<point x="548.535" y="488.949" type="line"/>
		</contour>
		<contour>
			<point x="408.381" y="159.014" type="line"/>
			<point x="400.252" y="145.526" type="line"/>
			<point x="387.897" y="140.522" type="line"/>
			<point x="382.182" y="154.084" type="line"/>
			<point x="391.773" y="167.844" type="line"/>
		</contour>
		<contour>
			<point x="525.09" y="208.878" type="line"/>
			<point x="528.326" y="194.771" type="line"/>
			<point x="512.674" y="189.685" type="line"/>
			<point x="505" y="203" type="line"/>
			<point x="514.219" y="211.56" type="line"/>
		</contour>
		<contour>
			<point x="353.42" y="580.79" type="line"/>
			<point x="353.786" y="564.74" type="line"/>
			<point x="340.912" y="555.146" type="line"/>
			<point x="333.152" y="568.264" type="line"/>
			<point x="335.488" y="584.127" type="line"/>
		</contour>
		<contour>
			<point x="113.388" y="624.093" type="line"/>
			<point x="109.751" y="606.074" type="line"/>
			<point x="90.973" y="608.02" type="line"/>
			<point x="88.654" y="623.907" type="line"/>
			<point x="100.349" y="639.997" type="line"/>
		</contour>
		<contour>
			<point x="579.178" y="98.891" type="line"/>
			<point x="572.725" y="80.929" type="line"/>
			<point x="557.366" y="80.405" type="line"/>
			<point x="542.319" y="94.647" type="line"/>
			<point x="561.191" y="103.873" type="line"/>
		</contour>
		<contour>
			<point x="237.426" y="579.822" type="line"/>
			<point x="201.368" y="542.407" type="line"/>
			<point x="154.503" y="529.464" type="line"/>
			<point x="136.859" y="586.854" type="line"/>
			<point x="189.488" y="616.878" type="line"/>
		</contour>
		<contour>
			<point x="147.887" y="424.47" type="line"/>
			<point x="148.777" y="403.151" type="line"/>
			<point x="125.729" y="403.571" type="line"/>
			<point x="117.461" y="423.049" type="line"/>
			<point x="133.431" y="436.932" type="line"/>
		</contour>
		<contour>
			<point x="189.913" y="307.298" type="line"/>
			<point x="202.733" y="277.521" type="line"/>
			<point x="175.436" y="261.004" type="line"/>
			<point x="159.872" y="280.791" type="line"/>
			<point x="163.566" y="301.174" type="line"/>
		</contour>
		<contour>
			<point x="507.247" y="296.046" type="line"/>
			<point x="523.967" y="270.256" type="line"/>
			<point x="506.451" y="252.196" type="line"/>
			<point x="485.234" y="257.043" type="line"/>
			<point x="482.388" y="280.437" type="line"/>
		</contour>
		<contour>
			<point x="231.573" y="482.361" type="line"/>
			<point x="232.878" y="468.611" type="line"/>
			<point x="225.974" y="463.068" type="line"/>
			<point x="217.81" y="466.493" type="line"/>
			<point x="216.664" y="478.632" type="line"/>
		</contour>
		<contour>
			<point x="535.314" y="320.995" type="line"/>
			<point x="545.574" y="315.032" type="line"/>
			<point x="541.151" y="302.881" type="line"/>
			<point x="528.228" y="303.332" type="line"/>
			<point x="525.603" y="315.42" type="line"/>
		</contour>
	</outline>
</glyph>
<glyph name="E" format="2">
	<advance width="667"/>
	<unicode hex="0045"/>
	<anchor x="600" y="10" name="ogonek"/>
	<anchor x="334" y="700" name="top"/>
	<anchor x="20" y="700" name="topleft"/>
	<anchor x="334" y="0" name="bottom"/>
	<outline>
		<contour>
			<point x="75" y="30.988" type="line"/>
			<point x="117.794" y="-9" type="line"/>
			<point x="153.588" y="20" type="line"/>
			<point x="193.359" y="-19" type="line"/>
			<point x="233.13" y="20" type="line"/>
			<point x="264.947" y="-2" type="line"/>
			<point x="296.763" y="20" type="line"/>
			<point x="338.523" y="-1" type="line"/>
			<point x="380.282" y="20" type="line"/>
			<point x="408.122" y="-14" type="line"/>
			<point x="435.962" y="20" type="line"/>
			<point x="473.744" y="-4" type="line"/>
			<point x="511.527" y="20" type="line"/>
			<point x="551.298" y="0" type="line"/>
			<point x="591.069" y="20" type="line"/>
			<point x="625.448" y="29.962" type="line"/>
			<point x="610" y="62.25" type="line"/>
			<point x="643" y="81.833" type="line"/>
			<point x="610" y="101.417" type="line"/>
			<point x="632" y="128.833" type="line"/>
			<point x="610" y="156.25" type="line"/>
			<point x="586.471" y="201.256" type="line"/>
			<point x="543" y="175" type="line"/>
			<point x="501" y="199.5" type="line"/>
			<point x="459" y="175" type="line"/>
			<point x="437" y="200.2" type="line"/>
			<point x="415" y="175" type="line"/>
			<point x="389" y="201.6" type="line"/>
			<point x="363" y="175" type="line"/>
			<point x="343" y="201.6" type="line"/>
			<point x="323" y="175" type="line"/>
			<point x="299" y="200.2" type="line"/>
			<point x="275" y="175" type="line"/>
			<point x="310" y="200.75" type="line"/>
			<point x="275" y="226.5" type="line"/>
			<point x="308" y="250.269" type="line"/>
			<point x="275" y="274.038" type="line"/>
			<point x="308.397" y="250.169" type="line"/>
			<point x="338.573" y="278" type="line"/>
			<point x="376.32" y="257" type="line"/>
			<point x="414.067" y="278" type="line"/>
			<point x="435.92" y="258.4" type="line"/>
			<point x="457.773" y="278" type="line"/>
			<point x="483.6" y="260.5" type="line"/>
			<point x="509.427" y="278" type="line"/>
			<point x="547.746" y="271.056" type="line"/>
			<point x="580" y="292.879" type="line"/>
			<point x="613" y="326.364" type="line"/>
			<point x="580" y="359.848" type="line"/>
			<point x="599.133" y="395.271" type="line"/>
			<point x="569.027" y="422" type="line"/>
			<point x="537.24" y="446.5" type="line"/>
			<point x="505.453" y="422" type="line"/>
			<point x="467.707" y="448.6" type="line"/>
			<point x="429.96" y="422" type="line"/>
			<point x="402.147" y="436.7" type="line"/>
			<point x="374.333" y="422" type="line"/>
			<point x="334.6" y="447.2" type="line"/>
			<point x="294.867" y="422" type="line"/>
			<point x="319.286" y="464.459" type="line"/>
			<point x="275" y="485.385" type="line"/>
			<point x="304.362" y="494.674" type="line"/>
			<point x="299" y="525" type="line"/>
			<point x="337" y="499.8" type="line"/>
			<point x="375" y="525" type="line"/>
			<point x="417" y="506.8" type="line"/>
			<point x="459" y="525" type="line"/>
			<point x="489" y="508.2" type="line"/>
			<point x="519" y="525" type="line"/>
			<point x="547" y="498.4" type="line"/>
			<point x="575" y="525" type="line"/>
			<point x="602.056" y="542.734" type="line"/>
			<point x="602" y="575.083" type="line"/>
			<point x="631" y="616.208" type="line"/>
			<point x="602" y="657.333" type="line"/>
			<point x="600.244" y="687.284" type="line"/>
			<point x="571.14" y="680" type="line"/>
			<point x="545.291" y="712" type="line"/>
			<point x="519.442" y="680" type="line"/>
			<point x="487.628" y="716" type="line"/>
			<point x="455.814" y="680" type="line"/>
			<point x="427.977" y="717" type="line"/>
			<point x="400.14" y="680" type="line"/>
			<point x="370.314" y="707" type="line"/>
			<point x="340.488" y="680" type="line"/>
			<point x="312.651" y="714" type="line"/>
			<point x="284.814" y="680" type="line"/>
			<point x="245.047" y="709" type="line"/>
			<point x="205.279" y="680" type="line"/>
			<point x="175.453" y="714" type="line"/>
			<point x="145.628" y="680" type="line"/>
			<point x="107.24" y="694.268" type="line"/>
			<point x="75" y="669.012" type="line"/>
			<point x="39" y="629.136" type="line"/>
			<point x="75" y="589.259" type="line"/>
			<point x="49" y="565.333" type="line"/>
			<point x="75" y="541.407" type="line"/>
			<point x="51" y="509.506" type="line"/>
			<point x="75" y="477.605" type="line"/>
			<point x="42" y="439.722" type="line"/>
			<point x="75" y="401.84" type="line"/>
			<point x="52" y="369.938" type="line"/>
			<point x="75" y="338.037" type="line"/>
			<point x="49" y="308.13" type="line"/>
			<point x="75" y="278.222" type="line"/>
			<point x="36" y="258.284" type="line"/>
			<point x="75" y="238.346" type="line"/>
			<point x="50" y="198.469" type="line"/>
			<point x="75" y="158.593" type="line"/>
			<point x="46" y="128.685" type="line"/>
			<point x="75" y="98.778" type="line"/>
			<point x="39" y="64.883" type="line"/>
		</contour>
		<contour>
			<point x="587.185" y="634.566" type="line"/>
			<point x="589.967" y="618.92" type="line"/>
			<point x="576.606" y="608.061" type="line"/>
			<point x="562.41" y="620.401" type="line"/>
			<point x="567.699" y="641.143" type="line"/>
		</contour>
		<contour>
			<point x="337.913" y="626.298" type="line"/>
			<point x="356.471" y="594.767" type="line"/>
			<point x="323.384" y="583.003" type="line"/>
			<point x="293.689" y="594.907" type="line"/>
			<point x="308.556" y="624.167" type="line"/>
		</contour>
		<contour>
			<point x="488.048" y="116.257" type="line"/>
			<point x="507.937" y="93.814" type="line"/>
			<point x="491.74" y="67.893" type="line"/>
			<point x="464.381" y="77.216" type="line"/>
			<point x="467.583" y="101.009" type="line"/>
		</contour>
		<contour>
			<point x="150.91" y="148.833" type="line"/>
			<point x="156.922" y="139.113" type="line"/>
			<point x="153.822" y="128.113" type="line"/>
			<point x="143.245" y="132.443" type="line"/>
			<point x="139.288" y="143.164" type="line"/>
		</contour>
		<contour>
			<point x="179.376" y="606.08" type="line"/>
			<point x="173.308" y="578.103" type="line"/>
			<point x="137.788" y="575.721" type="line"/>
			<point x="139.529" y="608.867" type="line"/>
			<point x="160.674" y="624.942" type="line"/>
		</contour>
		<contour>
			<point x="432.632" y="351.128" type="line"/>
			<point x="435.914" y="342.905" type="line"/>
			<point x="429.782" y="339.062" type="line"/>
			<point x="422.763" y="340.822" type="line"/>
			<point x="424.757" y="348.243" type="line"/>
		</contour>
		<contour>
			<point x="514.128" y="381.209" type="line"/>
			<point x="510.434" y="360.826" type="line"/>
			<point x="486.955" y="358.798" type="line"/>
			<point x="480.83" y="381.555" type="line"/>
			<point x="498.616" y="397.997" type="line"/>
		</contour>
		<contour>
			<point x="144.534" y="434.3" type="line"/>
			<point x="149.065" y="399.287" type="line"/>
			<point x="119.938" y="390.214" type="line"/>
			<point x="100.349" y="408.006" type="line"/>
			<point x="108.446" y="439.371" type="line"/>
		</contour>
		<contour>
			<point x="156.838" y="297.406" type="line"/>
			<point x="170.954" y="279.325" type="line"/>
			<point x="159.118" y="260.384" type="line"/>
			<point x="137.445" y="265.787" type="line"/>
			<point x="140.127" y="285.419" type="line"/>
		</contour>
		<contour>
			<point x="580.18" y="145.088" type="line"/>
			<point x="583.792" y="138.307" type="line"/>
			<point x="577.419" y="134.015" type="line"/>
			<point x="566.801" y="135.879" type="line"/>
			<point x="569.929" y="148.426" type="line"/>
		</contour>
		<contour>
			<point x="257.332" y="518.641" type="line"/>
			<point x="224.798" y="490.692" type="line"/>
			<point x="191.771" y="487.981" type="line"/>
			<point x="189.733" y="522.836" type="line"/>
			<point x="219.706" y="551.601" type="line"/>
		</contour>
		<contour>
			<point x="509.124" y="579" type="line"/>
			<point x="505.918" y="563.97" type="line"/>
			<point x="493.746" y="564.692" type="line"/>
			<point x="483.077" y="573.463" type="line"/>
			<point x="495.337" y="579.825" type="line"/>
		</contour>
		<contour>
			<point x="162.703" y="354.419" type="line"/>
			<point x="162.009" y="337.583" type="line"/>
			<point x="146.572" y="344.34" type="line"/>
			<point x="138.165" y="357.994" type="line"/>
			<point x="153.837" y="363.971" type="line"/>
		</contour>
		<contour>
			<point x="128.118" y="112.616" type="line"/>
			<point x="140.951" y="93.605" type="line"/>
			<point x="124.145" y="82.386" type="line"/>
			<point x="106.583" y="85.991" type="line"/>
			<point x="107.211" y="106.57" type="line"/>
		</contour>
		<contour>
			<point x="574" y="87" type="line"/>
			<point x="563.635" y="72.734" type="line"/>
			<point x="547.674" y="78.771" type="line"/>
			<point x="548.483" y="94.641" type="line"/>
			<point x="563.635" y="101.266" type="line"/>
		</contour>
		<contour>
			<point x="361.504" y="347.948" type="line"/>
			<point x="365.178" y="327.109" type="line"/>
			<point x="347.052" y="321.136" type="line"/>
			<point x="332.258" y="332.048" type="line"/>
			<point x="336.794" y="357.957" type="line"/>
		</contour>
		<contour>
			<point x="250.237" y="130.558" type="line"/>
			<point x="253.249" y="104.437" type="line"/>
			<point x="224.381" y="107.979" type="line"/>
			<point x="211.18" y="133.894" type="line"/>
			<point x="236.546" y="151.996" type="line"/>
		</contour>
	</outline>
</glyph>
<glyph name="F" format="2">
	<advance width="646"/>
	<unicode hex="0046"/>
	<outline>
		<contour>
			<point x="75" y="70.864" type="line"/>
			<point x="117.812" y="-6" type="line"/>
			<point x="153.625" y="20" type="line"/>
			<point x="179.49" y="-4" type="line"/>
			<point x="205.354" y="20" type="line"/>
			<point x="244.918" y="-0.395" type="line"/>
			<point x="280" y="27" type="line"/>
			<point x="308" y="59" type="line"/>
			<point x="280" y="91" type="line"/>
			<point x="305" y="115" type="line"/>
			<point x="280" y="139" type="line"/>
			<point x="303" y="177" type="line"/>
			<point x="280" y="215" type="line"/>
			<point x="313.987" y="196.2" type="line"/>
			<point x="315.75" y="235" type="line"/>
			<point x="353.486" y="215" type="line"/>
			<point x="391.222" y="235" type="line"/>
			<point x="423" y="210" type="line"/>
			<point x="454.778" y="235" type="line"/>
			<point x="486.556" y="200" type="line"/>
			<point x="518.333" y="235" type="line"/>
			<point x="556.165" y="227.075" type="line"/>
			<point x="573" y="261.868" type="line"/>
			<point x="600" y="297.632" type="line"/>
			<point x="573" y="333.395" type="line"/>
			<point x="597.005" y="366.442" type="line"/>
			<point x="571.032" y="397.967" type="line"/>
			<point x="543.575" y="423.468" type="line"/>
			<point x="514.361" y="400" type="line"/>
			<point x="484.569" y="418.2" type="line"/>
			<point x="454.778" y="400" type="line"/>
			<point x="413.069" y="420.3" type="line"/>
			<point x="371.361" y="400" type="line"/>
			<point x="335.611" y="425.9" type="line"/>
			<point x="299.861" y="400" type="line"/>
			<point x="301.748" y="421.769" type="line"/>
			<point x="280" y="419.655" type="line"/>
			<point x="319" y="443.241" type="line"/>
			<point x="280" y="466.828" type="line"/>
			<point x="320.46" y="484.266" type="line"/>
			<point x="287.948" y="514" type="line"/>
			<point x="321.727" y="486.7" type="line"/>
			<point x="355.506" y="514" type="line"/>
			<point x="383.325" y="497.9" type="line"/>
			<point x="411.143" y="514" type="line"/>
			<point x="448.896" y="500" type="line"/>
			<point x="486.649" y="514" type="line"/>
			<point x="524.403" y="491.6" type="line"/>
			<point x="562.156" y="514" type="line"/>
			<point x="592.465" y="514.688" type="line"/>
			<point x="593" y="545" type="line"/>
			<point x="624" y="565" type="line"/>
			<point x="593" y="585" type="line"/>
			<point x="621" y="625" type="line"/>
			<point x="593" y="665" type="line"/>
			<point x="576.811" y="704.159" type="line"/>
			<point x="542" y="680" type="line"/>
			<point x="512" y="719" type="line"/>
			<point x="482" y="680" type="line"/>
			<point x="448" y="711" type="line"/>
			<point x="414" y="680" type="line"/>
			<point x="374" y="719" type="line"/>
			<point x="334" y="680" type="line"/>
			<point x="312" y="704" type="line"/>
			<point x="290" y="680" type="line"/>
			<point x="262" y="719" type="line"/>
			<point x="234" y="680" type="line"/>
			<point x="198" y="704" type="line"/>
			<point x="162" y="680" type="line"/>
			<point x="132" y="709" type="line"/>
			<point x="102" y="680" type="line"/>
			<point x="71.958" y="658.171" type="line"/>
			<point x="75" y="621.16" type="line"/>
			<point x="40" y="583.278" type="line"/>
			<point x="75" y="545.395" type="line"/>
			<point x="46" y="521.469" type="line"/>
			<point x="75" y="497.543" type="line"/>
			<point x="51" y="469.63" type="line"/>
			<point x="75" y="441.716" type="line"/>
			<point x="55" y="421.778" type="line"/>
			<point x="75" y="401.84" type="line"/>
			<point x="54" y="381.901" type="line"/>
			<point x="75" y="361.963" type="line"/>
			<point x="49" y="326.074" type="line"/>
			<point x="75" y="290.185" type="line"/>
			<point x="55" y="248.315" type="line"/>
			<point x="75" y="206.444" type="line"/>
			<point x="43" y="170.556" type="line"/>
			<point x="75" y="134.667" type="line"/>
			<point x="54" y="102.765" type="line"/>
		</contour>
		<contour>
			<point x="383.229" y="300.809" type="line"/>
			<point x="388.659" y="279.611" type="line"/>
			<point x="367.527" y="269.304" type="line"/>
			<point x="353.175" y="286.495" type="line"/>
			<point x="363.986" y="303.381" type="line"/>
		</contour>
		<contour>
			<point x="217.74" y="447.605" type="line"/>
			<point x="222.791" y="409.084" type="line"/>
			<point x="176.827" y="396.029" type="line"/>
			<point x="169.194" y="438.169" type="line"/>
			<point x="188.512" y="468.375" type="line"/>
		</contour>
		<contour>
			<point x="147.699" y="162.684" type="line"/>
			<point x="157.844" y="148.773" type="line"/>
			<point x="144.257" y="138.197" type="line"/>
			<point x="127.873" y="143.488" type="line"/>
			<point x="132.649" y="160.031" type="line"/>
		</contour>
		<contour>
			<point x="455.924" y="576.667" type="line"/>
			<point x="461.966" y="564.784" type="line"/>
			<point x="456.907" y="554.795" type="line"/>
			<point x="446.962" y="558.752" type="line"/>
			<point x="445.285" y="568.635" type="line"/>
		</contour>
		<contour>
			<point x="463.12" y="343.857" type="line"/>
			<point x="473.616" y="333.626" type="line"/>
			<point x="460.133" y="324.049" type="line"/>
			<point x="446.113" y="331.53" type="line"/>
			<point x="453.095" y="343.792" type="line"/>
		</contour>
		<contour>
			<point x="566.01" y="578.287" type="line"/>
			<point x="553.47" y="543.36" type="line"/>
			<point x="518.783" y="542.958" type="line"/>
			<point x="505.201" y="575.545" type="line"/>
			<point x="534.267" y="587.987" type="line"/>
		</contour>
		<contour>
			<point x="257.784" y="593.966" type="line"/>
			<point x="262.846" y="586.35" type="line"/>
			<point x="259.575" y="580.714" type="line"/>
			<point x="251.095" y="578.208" type="line"/>
			<point x="250.556" y="587.735" type="line"/>
		</contour>
		<contour>
			<point x="555.377" y="311.833" type="line"/>
			<point x="543.64" y="285.373" type="line"/>
			<point x="512.062" y="267.639" type="line"/>
			<point x="493.68" y="307.06" type="line"/>
			<point x="527.197" y="322.829" type="line"/>
		</contour>
		<contour>
			<point x="326.326" y="603.552" type="line"/>
			<point x="327.903" y="588.92" type="line"/>
			<point x="313.377" y="582.477" type="line"/>
			<point x="306.015" y="595.424" type="line"/>
			<point x="312.341" y="608.137" type="line"/>
		</contour>
		<contour>
			<point x="106.474" y="448.632" type="line"/>
			<point x="114.496" y="438.417" type="line"/>
			<point x="102.419" y="430.007" type="line"/>
			<point x="87.905" y="436.87" type="line"/>
			<point x="95.228" y="450.668" type="line"/>
		</contour>
		<contour>
			<point x="189.825" y="76.345" type="line"/>
			<point x="171.422" y="42.853" type="line"/>
			<point x="136.449" y="53.595" type="line"/>
			<point x="132.885" y="87.5" type="line"/>
			<point x="164.861" y="105.279" type="line"/>
		</contour>
		<contour>
			<point x="201.72" y="587.845" type="line"/>
			<point x="224.754" y="562.978" type="line"/>
			<point x="196.198" y="545.404" type="line"/>
			<point x="173.633" y="556.819" type="line"/>
			<point x="176.642" y="581.322" type="line"/>
		</contour>
		<contour>
			<point x="256" y="259" type="line"/>
			<point x="217.271" y="230.468" type="line"/>
			<point x="180.493" y="239.015" type="line"/>
			<point x="176.448" y="281.924" type="line"/>
			<point x="217.271" y="287.532" type="line"/>
		</contour>
	</outline>
</glyph>
<glyph name="J" format="2">
	<advance width="702"/>
	<unicode hex="004A"/>
	<outline>
		<contour>
			<point x="290.912" y="11.42" type="line"/>
			<point x="365.637" y="-26.566" type="line"/>
			<point x="399.204" y="14.704" type="line"/>
			<point x="437.434" y="-9.707" type="line"/>
			<point x="462.019" y="28.411" type="line"/>
			<point x="510.487" y="8.441" type="line"/>
			<point x="527.961" y="57.864" type="line"/>
			<point x="575.776" y="64.415" type="line"/>
			<point x="587.584" y="111.21" type="line"/>
			<point x="625.953" y="136.822" type="line"/>
			<point x="623.109" y="182.867" type="line"/>
			<point x="659.46" y="207.543" type="line"/>
			<point x="632.615" y="242.324" type="line"/>
			<point x="670.806" y="265.816" type="line"/>
			<point x="633" y="289.923" type="line"/>
			<point x="667" y="319.851" type="line"/>
			<point x="633" y="349.779" type="line"/>
			<point x="662" y="377.712" type="line"/>
			<point x="633" y="405.644" type="line"/>
			<point x="660" y="445.548" type="line"/>
			<point x="633" y="485.452" type="line"/>
			<point x="658" y="511.389" type="line"/>
			<point x="633" y="537.327" type="line"/>
			<point x="671" y="559.274" type="line"/>
			<point x="633" y="581.221" type="line"/>
			<point x="672" y="609.154" type="line"/>
			<point x="633" y="637.087" type="line"/>
			<point x="622.39" y="672.47" type="line"/>
			<point x="586.226" y="680" type="line"/>
			<point x="560.372" y="712" type="line"/>
			<point x="534.519" y="680" type="line"/>
			<point x="514.632" y="706" type="line"/>
			<point x="494.744" y="680" type="line"/>
			<point x="458.947" y="716" type="line"/>
			<point x="423.15" y="680" type="line"/>
			<point x="395.308" y="711" type="line"/>
			<point x="367.466" y="680" type="line"/>
			<point x="339.624" y="717" type="line"/>
			<point x="311.782" y="680" type="line"/>
			<point x="283.94" y="708" type="line"/>
			<point x="256.098" y="680" type="line"/>
			<point x="234.222" y="700" type="line"/>
			<point x="212.346" y="680" type="line"/>
			<point x="172.571" y="702" type="line"/>
			<point x="132.797" y="680" type="line"/>
			<point x="107.847" y="698.211" type="line"/>
			<point x="90" y="673" type="line"/>
			<point x="66" y="653.395" type="line"/>
			<point x="90" y="633.789" type="line"/>
			<point x="57" y="612.224" type="line"/>
			<point x="90" y="590.658" type="line"/>
			<point x="63.994" y="554.104" type="line"/>
			<point x="91.968" y="519.033" type="line"/>
			<point x="123.352" y="491.03" type="line"/>
			<point x="156.438" y="517" type="line"/>
			<point x="192.1" y="490" type="line"/>
			<point x="227.763" y="517" type="line"/>
			<point x="267.388" y="496" type="line"/>
			<point x="307.012" y="517" type="line"/>
			<point x="330.787" y="492" type="line"/>
			<point x="354.562" y="517" type="line"/>
			<point x="378.337" y="483" type="line"/>
			<point x="402.112" y="517" type="line"/>
			<point x="374.09" y="484.65" type="line"/>
			<point x="414" y="469.19" type="line"/>
			<point x="381" y="445.286" type="line"/>
			<point x="414" y="421.381" type="line"/>
			<point x="376" y="383.532" type="line"/>
			<point x="414" y="345.683" type="line"/>
			<point x="391" y="315.802" type="line"/>
			<point x="414" y="285.921" type="line"/>
			<point x="385.009" y="254.476" type="line"/>
			<point x="407.8" y="218.285" type="line"/>
			<point x="371.697" y="208.11" type="line"/>
			<point x="367.667" y="170.818" type="line"/>
			<point x="329.676" y="203.277" type="line"/>
			<point x="285.413" y="180.088" type="line"/>
			<point x="284.588" y="209.576" type="line"/>
			<point x="257.283" y="220.743" type="line"/>
			<point x="248.235" y="250.871" type="line"/>
			<point x="220" y="237" type="line"/>
			<point x="192" y="275" type="line"/>
			<point x="164" y="237" type="line"/>
			<point x="126" y="260" type="line"/>
			<point x="88" y="237" type="line"/>
			<point x="60" y="275" type="line"/>
			<point x="32" y="237" type="line"/>
			<point x="10.26" y="202.965" type="line"/>
			<point x="40.074" y="175.722" type="line"/>
			<point x="24.414" y="139.188" type="line"/>
			<point x="62.773" y="128.77" type="line"/>
			<point x="64.257" y="84.059" type="line"/>
			<point x="108.632" y="78.391" type="line"/>
			<point x="116.699" y="30.831" type="line"/>
			<point x="163.031" y="44.261" type="line"/>
			<point x="190.937" y="-5.916" type="line"/>
			<point x="243.117" y="18.034" type="line"/>
			<point x="263.588" y="-10.037" type="line"/>
		</contour>
		<contour>
			<point x="593.577" y="440.231" type="line"/>
			<point x="595.564" y="419.102" type="line"/>
			<point x="574.153" y="410.874" type="line"/>
			<point x="563.003" y="429.703" type="line"/>
			<point x="572.186" y="452.692" type="line"/>
		</contour>
		<contour>
			<point x="504.045" y="268.502" type="line"/>
			<point x="507.37" y="254.697" type="line"/>
			<point x="492.947" y="245.294" type="line"/>
			<point x="480.119" y="259.05" type="line"/>
			<point x="489.661" y="274.595" type="line"/>
		</contour>
		<contour>
			<point x="465.117" y="631.487" type="line"/>
			<point x="466.959" y="597.946" type="line"/>
			<point x="436.163" y="596.144" type="line"/>
			<point x="416.004" y="616.471" type="line"/>
			<point x="437.737" y="633.213" type="line"/>
		</contour>
		<contour>
			<point x="459.82" y="119.08" type="line"/>
			<point x="456.142" y="95.858" type="line"/>
			<point x="433.374" y="93.071" type="line"/>
			<point x="412.369" y="114.693" type="line"/>
			<point x="437.307" y="139.631" type="line"/>
		</contour>
		<contour>
			<point x="617.848" y="653.736" type="line"/>
			<point x="610.817" y="646.702" type="line"/>
			<point x="601.748" y="645.526" type="line"/>
			<point x="602.607" y="654.63" type="line"/>
			<point x="609.253" y="660.912" type="line"/>
		</contour>
		<contour>
			<point x="215.792" y="173.721" type="line"/>
			<point x="247.65" y="136.272" type="line"/>
			<point x="208.06" y="105.68" type="line"/>
			<point x="157.269" y="117.76" type="line"/>
			<point x="162.97" y="177.464" type="line"/>
		</contour>
		<contour>
			<point x="365.097" y="586.933" type="line"/>
			<point x="376.761" y="580.481" type="line"/>
			<point x="369.333" y="568.379" type="line"/>
			<point x="356.498" y="569.955" type="line"/>
			<point x="354.937" y="582.226" type="line"/>
		</contour>
		<contour>
			<point x="203.435" y="627.669" type="line"/>
			<point x="216.873" y="612.072" type="line"/>
			<point x="207.185" y="594.593" type="line"/>
			<point x="189.761" y="600.452" type="line"/>
			<point x="186.881" y="617.272" type="line"/>
		</contour>
		<contour>
			<point x="287.26" y="136.786" type="line"/>
			<point x="296.854" y="123.912" type="line"/>
			<point x="284.257" y="113.197" type="line"/>
			<point x="268.756" y="118.958" type="line"/>
			<point x="271.21" y="136.42" type="line"/>
		</contour>
		<contour>
			<point x="262.274" y="589.513" type="line"/>
			<point x="278.92" y="572.83" type="line"/>
			<point x="266.987" y="549.828" type="line"/>
			<point x="247.434" y="561.815" type="line"/>
			<point x="234" y="585.421" type="line"/>
		</contour>
		<contour>
			<point x="494.262" y="455.998" type="line"/>
			<point x="513.126" y="446.847" type="line"/>
			<point x="507.766" y="421.34" type="line"/>
			<point x="484.371" y="428.222" type="line"/>
			<point x="470.362" y="449.139" type="line"/>
		</contour>
	</outline>
</glyph>
<glyph name="L" format="2">
	<advance width="626"/>
	<unicode hex="004C"/>
	<anchor x="313" y="350" name="center"/>
	<anchor x="173" y="700" name="top"/>
	<anchor x="606" y="700" name="topright"/>
	<anchor x="313" y="0" name="bottom"/>
	<outline>
		<contour>
			<point x="75" y="34.975" type="line"/>
			<point x="104" y="-2" type="line"/>
			<point x="126" y="20" type="line"/>
			<point x="160" y="-13" type="line"/>
			<point x="194" y="20" type="line"/>
			<point x="228" y="-9" type="line"/>
			<point x="262" y="20" type="line"/>
			<point x="304" y="-5" type="line"/>
			<point x="346" y="20" type="line"/>
			<point x="378" y="-12" type="line"/>
			<point x="410" y="20" type="line"/>
			<point x="448" y="-4" type="line"/>
			<point x="486" y="20" type="line"/>
			<point x="518" y="-8" type="line"/>
			<point x="550" y="20" type="line"/>
			<point x="580.402" y="-9.395" type="line"/>
			<point x="593" y="30.974" type="line"/>
			<point x="622" y="72.697" type="line"/>
			<point x="593" y="114.421" type="line"/>
			<point x="620.349" y="152.77" type="line"/>
			<point x="586" y="185" type="line"/>
			<point x="552.34" y="208" type="line"/>
			<point x="518.68" y="185" type="line"/>
			<point x="496.9" y="206" type="line"/>
			<point x="475.12" y="185" type="line"/>
			<point x="439.48" y="214" type="line"/>
			<point x="403.84" y="185" type="line"/>
			<point x="384.04" y="205" type="line"/>
			<point x="364.24" y="185" type="line"/>
			<point x="342.46" y="223" type="line"/>
			<point x="320.68" y="185" type="line"/>
			<point x="329.141" y="224.247" type="line"/>
			<point x="289" y="225" type="line"/>
			<point x="319" y="261" type="line"/>
			<point x="289" y="297" type="line"/>
			<point x="309" y="325" type="line"/>
			<point x="289" y="353" type="line"/>
			<point x="322" y="375" type="line"/>
			<point x="289" y="397" type="line"/>
			<point x="328" y="423" type="line"/>
			<point x="289" y="449" type="line"/>
			<point x="321" y="485" type="line"/>
			<point x="289" y="521" type="line"/>
			<point x="323" y="543" type="line"/>
			<point x="289" y="565" type="line"/>
			<point x="320" y="589" type="line"/>
			<point x="289" y="613" type="line"/>
			<point x="316" y="633" type="line"/>
			<point x="289" y="653" type="line"/>
			<point x="266.491" y="681.776" type="line"/>
			<point x="230" y="680" type="line"/>
			<point x="196" y="717" type="line"/>
			<point x="162" y="680" type="line"/>
			<point x="128" y="715" type="line"/>
			<point x="94" y="680" type="line"/>
			<point x="60.82" y="669.046" type="line"/>
			<point x="75" y="637.111" type="line"/>
			<point x="47" y="595.241" type="line"/>
			<point x="75" y="553.37" type="line"/>
			<point x="51" y="523.463" type="line"/>
			<point x="75" y="493.556" type="line"/>
			<point x="36" y="469.63" type="line"/>
			<point x="75" y="445.704" type="line"/>
			<point x="53" y="423.772" type="line"/>
			<point x="75" y="401.84" type="line"/>
			<point x="51" y="379.907" type="line"/>
			<point x="75" y="357.975" type="line"/>
			<point x="54" y="332.056" type="line"/>
			<point x="75" y="306.136" type="line"/>
			<point x="55" y="264.265" type="line"/>
			<point x="75" y="222.395" type="line"/>
			<point x="54" y="198.469" type="line"/>
			<point x="75" y="174.543" type="line"/>
			<point x="53" y="138.654" type="line"/>
			<point x="75" y="102.765" type="line"/>
			<point x="47" y="68.87" type="line"/>
		</contour>
		<contour>
			<point x="236.859" y="339.326" type="line"/>
			<point x="224.988" y="275.032" type="line"/>
			<point x="150.882" y="273.089" type="line"/>
			<point x="129.487" y="345.836" type="line"/>
			<point x="191.012" y="382.991" type="line"/>
		</contour>
		<contour>
			<point x="340.686" y="123.341" type="line"/>
			<point x="351.99" y="107.558" type="line"/>
			<point x="344.208" y="84.447" type="line"/>
			<point x="322.604" y="96.534" type="line"/>
			<point x="313.616" y="122.098" type="line"/>
		</contour>
		<contour>
			<point x="249.778" y="68.629" type="line"/>
			<point x="249.287" y="50.396" type="line"/>
			<point x="231.737" y="41.787" type="line"/>
			<point x="223.002" y="58.756" type="line"/>
			<point x="230.163" y="78.856" type="line"/>
		</contour>
		<contour>
			<point x="515.232" y="132.922" type="line"/>
			<point x="548.901" y="109.951" type="line"/>
			<point x="525.718" y="80.647" type="line"/>
			<point x="491.788" y="75.721" type="line"/>
			<point x="487.039" y="111.489" type="line"/>
		</contour>
		<contour>
			<point x="220.147" y="126.718" type="line"/>
			<point x="212.778" y="111.222" type="line"/>
			<point x="200.006" y="109.199" type="line"/>
			<point x="191.172" y="121.19" type="line"/>
			<point x="202.497" y="134.803" type="line"/>
		</contour>
		<contour>
			<point x="266.988" y="533.514" type="line"/>
			<point x="273.374" y="485.946" type="line"/>
			<point x="222.941" y="483.56" type="line"/>
			<point x="194.335" y="523.484" type="line"/>
			<point x="233.085" y="548.43" type="line"/>
		</contour>
		<contour>
			<point x="124.627" y="533.967" type="line"/>
			<point x="132.803" y="529.871" type="line"/>
			<point x="128" y="521.072" type="line"/>
			<point x="117.978" y="521.312" type="line"/>
			<point x="119.432" y="530.034" type="line"/>
		</contour>
		<contour>
			<point x="448.692" y="95.448" type="line"/>
			<point x="450.728" y="77.272" type="line"/>
			<point x="432.098" y="78.417" type="line"/>
			<point x="418.246" y="93.129" type="line"/>
			<point x="435.028" y="108.766" type="line"/>
		</contour>
		<contour>
			<point x="93.983" y="549.488" type="line"/>
			<point x="90.371" y="540.655" type="line"/>
			<point x="80.106" y="543.215" type="line"/>
			<point x="78.52" y="554.299" type="line"/>
			<point x="89.177" y="557.733" type="line"/>
		</contour>
	</outline>
</glyph>
<glyph name="M" format="2">
	<advance width="856"/>
	<unicode hex="004D"/>
	<outline>
		<contour>
			<point x="75" y="50.926" type="line"/>
			<point x="117.413" y="-2" type="line"/>
			<point x="152.826" y="20" type="line"/>
			<point x="194.141" y="-11" type="line"/>
			<point x="235.457" y="20" type="line"/>
			<point x="260.668" y="9.115" type="line"/>
			<point x="270" y="34.942" type="line"/>
			<point x="292" y="70.681" type="line"/>
			<point x="270" y="106.42" type="line"/>
			<point x="292" y="130.246" type="line"/>
			<point x="270" y="154.072" type="line"/>
			<point x="303" y="179.884" type="line"/>
			<point x="270" y="205.696" type="line"/>
			<point x="291" y="245.406" type="line"/>
			<point x="270" y="285.116" type="line"/>
			<point x="307.407" y="269.041" type="line"/>
			<point x="299.6" y="309" type="line"/>
			<point x="305.333" y="269.579" type="line"/>
			<point x="342.062" y="254.156" type="line"/>
			<point x="337.435" y="218.99" type="line"/>
			<point x="370.938" y="207.344" type="line"/>
			<point x="379.686" y="178.107" type="line"/>
			<point x="408.556" y="188" type="line"/>
			<point x="452.922" y="162.759" type="line"/>
			<point x="483" y="204" type="line"/>
			<point x="517.328" y="228.985" type="line"/>
			<point x="524.25" y="270.875" type="line"/>
			<point x="561.02" y="270.331" type="line"/>
			<point x="563.8" y="307" type="line"/>
			<point x="556.359" y="276.269" type="line"/>
			<point x="586" y="265.261" type="line"/>
			<point x="569.2" y="227.536" type="line"/>
			<point x="586" y="189.812" type="line"/>
			<point x="550" y="154.072" type="line"/>
			<point x="586" y="118.333" type="line"/>
			<point x="550" y="84.58" type="line"/>
			<point x="586" y="50.826" type="line"/>
			<point x="578.78" y="21.7" type="line"/>
			<point x="608.739" y="20" type="line"/>
			<point x="646.12" y="-15" type="line"/>
			<point x="683.5" y="20" type="line"/>
			<point x="716.946" y="-8" type="line"/>
			<point x="750.391" y="20" type="line"/>
			<point x="777.122" y="4.133" type="line"/>
			<point x="781" y="34.975" type="line"/>
			<point x="802" y="68.87" type="line"/>
			<point x="781" y="102.765" type="line"/>
			<point x="807" y="124.698" type="line"/>
			<point x="781" y="146.63" type="line"/>
			<point x="818" y="188.5" type="line"/>
			<point x="781" y="230.37" type="line"/>
			<point x="814" y="254.296" type="line"/>
			<point x="781" y="278.222" type="line"/>
			<point x="819" y="298.16" type="line"/>
			<point x="781" y="318.099" type="line"/>
			<point x="804" y="353.988" type="line"/>
			<point x="781" y="389.877" type="line"/>
			<point x="806" y="417.79" type="line"/>
			<point x="781" y="445.704" type="line"/>
			<point x="809" y="479.599" type="line"/>
			<point x="781" y="513.494" type="line"/>
			<point x="810" y="543.401" type="line"/>
			<point x="781" y="573.309" type="line"/>
			<point x="807" y="595.241" type="line"/>
			<point x="781" y="617.173" type="line"/>
			<point x="782.438" y="654.893" type="line"/>
			<point x="754.25" y="680" type="line"/>
			<point x="732.525" y="719" type="line"/>
			<point x="710.8" y="680" type="line"/>
			<point x="673.275" y="706" type="line"/>
			<point x="635.75" y="680" type="line"/>
			<point x="603.122" y="697.747" type="line"/>
			<point x="590" y="663" type="line"/>
			<point x="557.487" y="647.78" type="line"/>
			<point x="559.241" y="611.924" type="line"/>
			<point x="528.259" y="605.062" type="line"/>
			<point x="536.684" y="574.468" type="line"/>
			<point x="484.313" y="557.288" type="line"/>
			<point x="493.62" y="502.962" type="line"/>
			<point x="453.384" y="503.993" type="line"/>
			<point x="473.114" y="468.911" type="line"/>
			<point x="442.317" y="450.338" type="line"/>
			<point x="440.304" y="414.43" type="line"/>
			<point x="428" y="445.43" type="line"/>
			<point x="415.696" y="414.43" type="line"/>
			<point x="423.607" y="444.714" type="line"/>
			<point x="393.139" y="451.886" type="line"/>
			<point x="403.472" y="504.509" type="line"/>
			<point x="352.127" y="519.987" type="line"/>
			<point x="369.637" y="560.693" type="line"/>
			<point x="325.468" y="564.253" type="line"/>
			<point x="337.683" y="615.69" type="line"/>
			<point x="286.506" y="628.949" type="line"/>
			<point x="285.43" y="674.678" type="line"/>
			<point x="240" y="680" type="line"/>
			<point x="212.35" y="713" type="line"/>
			<point x="184.7" y="680" type="line"/>
			<point x="161" y="719" type="line"/>
			<point x="137.3" y="680" type="line"/>
			<point x="97.414" y="699.218" type="line"/>
			<point x="75" y="661.037" type="line"/>
			<point x="40" y="631.13" type="line"/>
			<point x="75" y="601.222" type="line"/>
			<point x="49" y="567.327" type="line"/>
			<point x="75" y="533.432" type="line"/>
			<point x="53" y="505.519" type="line"/>
			<point x="75" y="477.605" type="line"/>
			<point x="50" y="445.704" type="line"/>
			<point x="75" y="413.802" type="line"/>
			<point x="44" y="373.926" type="line"/>
			<point x="75" y="334.049" type="line"/>
			<point x="48" y="304.142" type="line"/>
			<point x="75" y="274.235" type="line"/>
			<point x="38" y="236.352" type="line"/>
			<point x="75" y="198.469" type="line"/>
			<point x="36" y="162.58" type="line"/>
			<point x="75" y="126.691" type="line"/>
			<point x="51" y="88.809" type="line"/>
		</contour>
		<contour>
			<point x="613.657" y="510.213" type="line"/>
			<point x="630.683" y="477.628" type="line"/>
			<point x="599.326" y="449.023" type="line"/>
			<point x="551.955" y="470.241" type="line"/>
			<point x="574.605" y="516.944" type="line"/>
		</contour>
		<contour>
			<point x="514.901" y="433.266" type="line"/>
			<point x="499.55" y="406.146" type="line"/>
			<point x="468.623" y="413.286" type="line"/>
			<point x="471" y="441.816" type="line"/>
			<point x="492.824" y="447.564" type="line"/>
		</contour>
		<contour>
			<point x="146.997" y="645.708" type="line"/>
			<point x="176.974" y="608.499" type="line"/>
			<point x="142.269" y="581.162" type="line"/>
			<point x="113.274" y="596.02" type="line"/>
			<point x="111.148" y="627.854" type="line"/>
		</contour>
		<contour>
			<point x="231.756" y="400.422" type="line"/>
			<point x="255.243" y="360.397" type="line"/>
			<point x="206.876" y="337.428" type="line"/>
			<point x="167.699" y="373.012" type="line"/>
			<point x="196.568" y="411.903" type="line"/>
		</contour>
		<contour>
			<point x="140.951" y="254.395" type="line"/>
			<point x="131.864" y="226.112" type="line"/>
			<point x="100.317" y="235.645" type="line"/>
			<point x="101.495" y="265.188" type="line"/>
			<point x="126.08" y="273.376" type="line"/>
		</contour>
		<contour>
			<point x="752.413" y="244.6" type="line"/>
			<point x="729.996" y="178.102" type="line"/>
			<point x="665.384" y="175.205" type="line"/>
			<point x="654.218" y="230.919" type="line"/>
			<point x="689.466" y="285.842" type="line"/>
		</contour>
		<contour>
			<point x="127.177" y="172.106" type="line"/>
			<point x="127.563" y="156.076" type="line"/>
			<point x="118.244" y="145.002" type="line"/>
			<point x="106.654" y="155.093" type="line"/>
			<point x="108.371" y="171.778" type="line"/>
		</contour>
		<contour>
			<point x="405.225" y="353.402" type="line"/>
			<point x="410.988" y="344.529" type="line"/>
			<point x="403.553" y="339.204" type="line"/>
			<point x="393.613" y="339.554" type="line"/>
			<point x="396.56" y="349.405" type="line"/>
		</contour>
		<contour>
			<point x="658.067" y="560.135" type="line"/>
			<point x="663.945" y="549.955" type="line"/>
			<point x="655.247" y="545.131" type="line"/>
			<point x="646.206" y="546.5" type="line"/>
			<point x="646.569" y="557.691" type="line"/>
		</contour>
		<contour>
			<point x="664.781" y="45.079" type="line"/>
			<point x="658.5" y="36.938" type="line"/>
			<point x="650.316" y="37.798" type="line"/>
			<point x="650.432" y="45.034" type="line"/>
			<point x="655.732" y="49.962" type="line"/>
		</contour>
		<contour>
			<point x="261.046" y="155.689" type="line"/>
			<point x="257.873" y="141.943" type="line"/>
			<point x="243.82" y="140.714" type="line"/>
			<point x="239.282" y="153.474" type="line"/>
			<point x="248.867" y="163.951" type="line"/>
		</contour>
		<contour>
			<point x="733.329" y="49.693" type="line"/>
			<point x="741.985" y="41.576" type="line"/>
			<point x="734.942" y="30.731" type="line"/>
			<point x="719.343" y="31.56" type="line"/>
			<point x="720.936" y="47.536" type="line"/>
		</contour>
		<contour>
			<point x="720.396" y="485.976" type="line"/>
			<point x="747.838" y="454.269" type="line"/>
			<point x="737.453" y="418.642" type="line"/>
			<point x="702.993" y="425.512" type="line"/>
			<point x="671.076" y="463.443" type="line"/>
		</contour>
		<contour>
			<point x="723.644" y="643.903" type="line"/>
			<point x="718.359" y="630.823" type="line"/>
			<point x="702.358" y="629.509" type="line"/>
			<point x="700.874" y="645.495" type="line"/>
			<point x="712.767" y="651.973" type="line"/>
		</contour>
	</outline>
</glyph>
<glyph name="N" format="2">
	<advance width="740"/>
	<unicode hex="004E"/>
	<anchor x="370" y="700" name="top"/>
	<anchor x="370" y="0" name="bottom"/>
	<outline>
		<contour>
			<point x="75" y="78.84" type="line"/>
			<point x="105.609" y="-1" type="line"/>
			<point x="129.217" y="20" type="line"/>
			<point x="150.859" y="-8" type="line"/>
			<point x="172.5" y="20" type="line"/>
			<point x="203.978" y="-5" type="line"/>
			<point x="235.457" y="20" type="line"/>
			<point x="260.607" y="0.715" type="line"/>
			<point x="270" y="30.984" type="line"/>
			<point x="308" y="56.881" type="line"/>
			<point x="270" y="82.778" type="line"/>
			<point x="291" y="108.675" type="line"/>
			<point x="270" y="134.571" type="line"/>
			<point x="288.9" y="164.452" type="line"/>
			<point x="270" y="194.333" type="line"/>
			<point x="293.8" y="228.198" type="line"/>
			<point x="270" y="262.063" type="line"/>
			<point x="305.32" y="249.877" type="line"/>
			<point x="299.6" y="286.8" type="line"/>
			<point x="302.454" y="241.265" type="line"/>
			<point x="346.506" y="229.39" type="line"/>
			<point x="351.159" y="191.959" type="line"/>
			<point x="383.818" y="173.091" type="line"/>
			<point x="388.331" y="130.802" type="line"/>
			<point x="425.519" y="110.169" type="line"/>
			<point x="416.752" y="78.144" type="line"/>
			<point x="449.662" y="73.74" type="line"/>
			<point x="435.57" y="27.415" type="line"/>
			<point x="483.9" y="24.444" type="line"/>
			<point x="515.192" y="-14.698" type="line"/>
			<point x="551.35" y="20" type="line"/>
			<point x="573.075" y="-4" type="line"/>
			<point x="594.8" y="20" type="line"/>
			<point x="624.425" y="-2" type="line"/>
			<point x="654.05" y="20" type="line"/>
			<point x="679.077" y="41.223" type="line"/>
			<point x="665" y="70.864" type="line"/>
			<point x="699" y="110.741" type="line"/>
			<point x="665" y="150.617" type="line"/>
			<point x="700" y="186.506" type="line"/>
			<point x="665" y="222.395" type="line"/>
			<point x="689" y="246.321" type="line"/>
			<point x="665" y="270.247" type="line"/>
			<point x="702" y="298.16" type="line"/>
			<point x="665" y="326.074" type="line"/>
			<point x="693" y="353.988" type="line"/>
			<point x="665" y="381.901" type="line"/>
			<point x="685" y="421.778" type="line"/>
			<point x="665" y="461.654" type="line"/>
			<point x="694" y="485.58" type="line"/>
			<point x="665" y="509.506" type="line"/>
			<point x="700" y="541.407" type="line"/>
			<point x="665" y="573.309" type="line"/>
			<point x="700" y="593.247" type="line"/>
			<point x="665" y="613.185" type="line"/>
			<point x="688" y="637.111" type="line"/>
			<point x="665" y="661.037" type="line"/>
			<point x="648.257" y="692.788" type="line"/>
			<point x="614.717" y="680" type="line"/>
			<point x="577.337" y="707" type="line"/>
			<point x="539.957" y="680" type="line"/>
			<point x="520.283" y="702" type="line"/>
			<point x="500.609" y="680" type="line"/>
			<point x="473.781" y="679.779" type="line"/>
			<point x="470" y="653.217" type="line"/>
			<point x="445.5" y="619.587" type="line"/>
			<point x="470" y="585.957" type="line"/>
			<point x="444.1" y="556.283" type="line"/>
			<point x="470" y="526.609" type="line"/>
			<point x="443.4" y="502.87" type="line"/>
			<point x="470" y="479.13" type="line"/>
			<point x="451.1" y="453.413" type="line"/>
			<point x="470" y="427.696" type="line"/>
			<point x="434.761" y="428.417" type="line"/>
			<point x="430.939" y="393.378" type="line"/>
			<point x="434.378" y="418.654" type="line"/>
			<point x="410.329" y="427.159" type="line"/>
			<point x="402.433" y="471.013" type="line"/>
			<point x="367.049" y="498.098" type="line"/>
			<point x="369.622" y="527.48" type="line"/>
			<point x="342.317" y="538.634" type="line"/>
			<point x="343.055" y="583.121" type="line"/>
			<point x="303.159" y="602.817" type="line"/>
			<point x="321.701" y="639.625" type="line"/>
			<point x="280.488" y="639.976" type="line"/>
			<point x="289.847" y="669.691" type="line"/>
			<point x="258.906" y="673.33" type="line"/>
			<point x="227.37" y="714.495" type="line"/>
			<point x="188.65" y="680" type="line"/>
			<point x="151.125" y="705" type="line"/>
			<point x="113.6" y="680" type="line"/>
			<point x="78.896" y="675.834" type="line"/>
			<point x="75" y="641.099" type="line"/>
			<point x="55" y="611.191" type="line"/>
			<point x="75" y="581.284" type="line"/>
			<point x="42" y="543.401" type="line"/>
			<point x="75" y="505.519" type="line"/>
			<point x="52" y="475.611" type="line"/>
			<point x="75" y="445.704" type="line"/>
			<point x="38" y="419.784" type="line"/>
			<point x="75" y="393.864" type="line"/>
			<point x="40" y="369.938" type="line"/>
			<point x="75" y="346.012" type="line"/>
			<point x="39" y="306.136" type="line"/>
			<point x="75" y="266.259" type="line"/>
			<point x="51" y="232.364" type="line"/>
			<point x="75" y="198.469" type="line"/>
			<point x="37" y="164.574" type="line"/>
			<point x="75" y="130.679" type="line"/>
			<point x="51" y="104.759" type="line"/>
		</contour>
		<contour>
			<point x="282.95" y="305.95" type="line"/>
			<point x="286.019" y="296.914" type="line"/>
			<point x="276.592" y="292.111" type="line"/>
			<point x="272.074" y="300.061" type="line"/>
			<point x="275.276" y="306.346" type="line"/>
		</contour>
		<contour>
			<point x="573.941" y="257.109" type="line"/>
			<point x="567.026" y="218.8" type="line"/>
			<point x="523.214" y="212.453" type="line"/>
			<point x="508.295" y="255.835" type="line"/>
			<point x="543.325" y="277.956" type="line"/>
		</contour>
		<contour>
			<point x="563.301" y="488.678" type="line"/>
			<point x="556.03" y="472.532" type="line"/>
			<point x="538.973" y="472.02" type="line"/>
			<point x="533.817" y="488.884" type="line"/>
			<point x="548.332" y="502.997" type="line"/>
		</contour>
		<contour>
			<point x="559.077" y="126.329" type="line"/>
			<point x="551.725" y="107.929" type="line"/>
			<point x="530.263" y="95.926" type="line"/>
			<point x="523.289" y="121.299" type="line"/>
			<point x="539.912" y="132.854" type="line"/>
		</contour>
		<contour>
			<point x="216.716" y="522.619" type="line"/>
			<point x="303.488" y="445.045" type="line"/>
			<point x="264.654" y="328.712" type="line"/>
			<point x="154.203" y="361.114" type="line"/>
			<point x="110.426" y="464.417" type="line"/>
		</contour>
		<contour>
			<point x="574.99" y="332.558" type="line"/>
			<point x="569.603" y="302.87" type="line"/>
			<point x="535.36" y="313.53" type="line"/>
			<point x="538.274" y="345.98" type="line"/>
			<point x="564.513" y="351.225" type="line"/>
		</contour>
		<contour>
			<point x="237.78" y="163.29" type="line"/>
			<point x="233.272" y="147.881" type="line"/>
			<point x="213.042" y="147.104" type="line"/>
			<point x="207.874" y="169.452" type="line"/>
			<point x="227.95" y="176.881" type="line"/>
		</contour>
		<contour>
			<point x="352.079" y="299.781" type="line"/>
			<point x="360.94" y="291.15" type="line"/>
			<point x="356.915" y="274.47" type="line"/>
			<point x="337.367" y="278.625" type="line"/>
			<point x="341.34" y="295" type="line"/>
		</contour>
		<contour>
			<point x="559.699" y="599.692" type="line"/>
			<point x="574.932" y="589.569" type="line"/>
			<point x="565.596" y="567.749" type="line"/>
			<point x="540.396" y="573.567" type="line"/>
			<point x="539" y="598.816" type="line"/>
		</contour>
		<contour>
			<point x="508.576" y="664.482" type="line"/>
			<point x="519.825" y="648.495" type="line"/>
			<point x="504.778" y="635.243" type="line"/>
			<point x="483.458" y="641.141" type="line"/>
			<point x="487.613" y="664.893" type="line"/>
		</contour>
		<contour>
			<point x="225.292" y="573.069" type="line"/>
			<point x="224.557" y="564.245" type="line"/>
			<point x="213.836" y="560.288" type="line"/>
			<point x="210.137" y="571.563" type="line"/>
			<point x="218.026" y="576.932" type="line"/>
		</contour>
		<contour>
			<point x="145.401" y="168.868" type="line"/>
			<point x="174.105" y="130.854" type="line"/>
			<point x="125.427" y="109.156" type="line"/>
			<point x="101.718" y="143.701" type="line"/>
			<point x="104.793" y="190.287" type="line"/>
		</contour>
		<contour>
			<point x="220.988" y="657.471" type="line"/>
			<point x="213.792" y="652.332" type="line"/>
			<point x="205.006" y="651.336" type="line"/>
			<point x="206.968" y="660.268" type="line"/>
			<point x="214.071" y="664.727" type="line"/>
		</contour>
		<contour>
			<point x="260.909" y="59.092" type="line"/>
			<point x="249.113" y="28.464" type="line"/>
			<point x="218.887" y="41.255" type="line"/>
			<point x="211.285" y="72.451" type="line"/>
			<point x="243.299" y="84.282" type="line"/>
		</contour>
		<contour>
			<point x="527.673" y="406.953" type="line"/>
			<point x="528.62" y="396.215" type="line"/>
			<point x="518.559" y="400.085" type="line"/>
			<point x="514.35" y="407.339" type="line"/>
			<point x="521.808" y="415.998" type="line"/>
		</contour>
		<contour>
			<point x="234.02" y="233.983" type="line"/>
			<point x="211.539" y="210.735" type="line"/>
			<point x="180.145" y="199.954" type="line"/>
			<point x="182.529" y="233.867" type="line"/>
			<point x="203.674" y="249.942" type="line"/>
		</contour>
		<contour>
			<point x="364.961" y="377.522" type="line"/>
			<point x="375.881" y="353.95" type="line"/>
			<point x="372.679" y="324.811" type="line"/>
			<point x="346.104" y="339.042" type="line"/>
			<point x="339.884" y="363.151" type="line"/>
		</contour>
	</outline>
</glyph>
<glyph name="P" format="2">
	<advance width="705"/>
	<unicode hex="0050"/>
	<outline>
		<contour>
			<point x="75" y="27" type="line"/>
			<point x="119.635" y="-9" type="line"/>
			<point x="157.269" y="20" type="line"/>
			<point x="196.885" y="-16" type="line"/>
			<point x="236.5" y="20" type="line"/>
			<point x="265.848" y="-10.997" type="line"/>
			<point x="292.967" y="21.968" type="line"/>
			<point x="321.971" y="55.505" type="line"/>
			<point x="295" y="90.698" type="line"/>
			<point x="321" y="130.509" type="line"/>
			<point x="295" y="170.321" type="line"/>
			<point x="322" y="190.226" type="line"/>
			<point x="295" y="210.132" type="line"/>
			<point x="327.908" y="205.332" type="line"/>
			<point x="334.13" y="238" type="line"/>
			<point x="373.779" y="216.297" type="line"/>
			<point x="413.099" y="238.592" type="line"/>
			<point x="444.576" y="204.428" type="line"/>
			<point x="469.024" y="243.929" type="line"/>
			<point x="513.213" y="225.579" type="line"/>
			<point x="542.63" y="263.316" type="line"/>
			<point x="592.745" y="254.203" type="line"/>
			<point x="607.263" y="303.027" type="line"/>
			<point x="656.072" y="320.938" type="line"/>
			<point x="653.029" y="372.84" type="line"/>
			<point x="680.62" y="397.823" type="line"/>
			<point x="665.11" y="431.659" type="line"/>
			<point x="693.533" y="468.581" type="line"/>
			<point x="662.013" y="502.899" type="line"/>
			<point x="667.755" y="545.345" type="line"/>
			<point x="635.94" y="574.023" type="line"/>
			<point x="636.364" y="608.063" type="line"/>
			<point x="602.86" y="614.087" type="line"/>
			<point x="594.264" y="659.217" type="line"/>
			<point x="549.432" y="649.182" type="line"/>
			<point x="523.653" y="679.734" type="line"/>
			<point x="484.789" y="670.376" type="line"/>
			<point x="452.862" y="705.612" type="line"/>
			<point x="413.238" y="679.328" type="line"/>
			<point x="373.515" y="716.663" type="line"/>
			<point x="333.171" y="680" type="line"/>
			<point x="293.303" y="707" type="line"/>
			<point x="253.434" y="680" type="line"/>
			<point x="223.533" y="716" type="line"/>
			<point x="193.632" y="680" type="line"/>
			<point x="151.77" y="709" type="line"/>
			<point x="109.908" y="680" type="line"/>
			<point x="77.058" y="686.481" type="line"/>
			<point x="75" y="653.062" type="line"/>
			<point x="45" y="625.148" type="line"/>
			<point x="75" y="597.235" type="line"/>
			<point x="47" y="573.309" type="line"/>
			<point x="75" y="549.383" type="line"/>
			<point x="52" y="523.463" type="line"/>
			<point x="75" y="497.543" type="line"/>
			<point x="41" y="475.611" type="line"/>
			<point x="75" y="453.679" type="line"/>
			<point x="46" y="411.809" type="line"/>
			<point x="75" y="369.938" type="line"/>
			<point x="39" y="334.049" type="line"/>
			<point x="75" y="298.16" type="line"/>
			<point x="37" y="268.253" type="line"/>
			<point x="75" y="238.346" type="line"/>
			<point x="44" y="218.407" type="line"/>
			<point x="75" y="198.469" type="line"/>
			<point x="43" y="172.549" type="line"/>
			<point x="75" y="146.63" type="line"/>
			<point x="53" y="126.691" type="line"/>
			<point x="75" y="106.753" type="line"/>
			<point x="54" y="66.877" type="line"/>
		</contour>
		<contour>
			<point x="325.217" y="383" type="line"/>
			<point x="307.64" y="402.868" type="line"/>
			<point x="290" y="422.737" type="line"/>
			<point x="309.11" y="442.605" type="line"/>
			<point x="290" y="462.474" type="line"/>
			<point x="300.29" y="482.342" type="line"/>
			<point x="290" y="502.211" type="line"/>
			<point x="311.517" y="513.771" type="line"/>
			<point x="297.826" y="534" type="line"/>
			<point x="317.391" y="516.36" type="line"/>
			<point x="336.957" y="534" type="line"/>
			<point x="356.522" y="516.36" type="line"/>
			<point x="376.087" y="534" type="line"/>
			<point x="391.076" y="512.117" type="line"/>
			<point x="414.543" y="524.48" type="line"/>
			<point x="412.494" y="497.343" type="line"/>
			<point x="439.446" y="493.569" type="line"/>
			<point x="432.036" y="471.549" type="line"/>
			<point x="445.918" y="452.919" type="line"/>
			<point x="423.007" y="438.366" type="line"/>
			<point x="435.009" y="414.022" type="line"/>
			<point x="408.63" y="413.775" type="line"/>
			<point x="404.793" y="387.676" type="line"/>
			<point x="383.163" y="397.507" type="line"/>
			<point x="364.348" y="383" type="line"/>
			<point x="344.783" y="394.27" type="line"/>
		</contour>
		<contour>
			<point x="293.667" y="315.924" type="line"/>
			<point x="286.665" y="303.571" type="line"/>
			<point x="269.191" y="299.415" type="line"/>
			<point x="265.351" y="319.642" type="line"/>
			<point x="282.22" y="326.947" type="line"/>
		</contour>
		<contour>
			<point x="624.281" y="464.519" type="line"/>
			<point x="616.672" y="408.911" type="line"/>
			<point x="570.371" y="404.05" type="line"/>
			<point x="547.021" y="437.221" type="line"/>
			<point x="573.455" y="465.799" type="line"/>
		</contour>
		<contour>
			<point x="236.621" y="119.76" type="line"/>
			<point x="249.808" y="86.174" type="line"/>
			<point x="217.168" y="63.048" type="line"/>
			<point x="183.261" y="88.424" type="line"/>
			<point x="200.482" y="126.515" type="line"/>
		</contour>
		<contour>
			<point x="137.734" y="660.937" type="line"/>
			<point x="143.984" y="645.372" type="line"/>
			<point x="134.847" y="635.375" type="line"/>
			<point x="116.065" y="635.652" type="line"/>
			<point x="119.566" y="656.069" type="line"/>
		</contour>
		<contour>
			<point x="214.749" y="300.412" type="line"/>
			<point x="204.786" y="253.226" type="line"/>
			<point x="161.038" y="251.98" type="line"/>
			<point x="131.699" y="289.988" type="line"/>
			<point x="170.737" y="326.562" type="line"/>
		</contour>
		<contour>
			<point x="182.365" y="398.81" type="line"/>
			<point x="178.192" y="382.808" type="line"/>
			<point x="164.006" y="382.199" type="line"/>
			<point x="159.123" y="393.564" type="line"/>
			<point x="166.81" y="405.828" type="line"/>
		</contour>
		<contour>
			<point x="152.799" y="490.545" type="line"/>
			<point x="136.421" y="462.103" type="line"/>
			<point x="108.84" y="463.876" type="line"/>
			<point x="98.568" y="490.893" type="line"/>
			<point x="123.907" y="507.984" type="line"/>
		</contour>
		<contour>
			<point x="531.754" y="584.129" type="line"/>
			<point x="520.626" y="564.071" type="line"/>
			<point x="497.151" y="566.151" type="line"/>
			<point x="496.853" y="588.718" type="line"/>
			<point x="514.347" y="595.815" type="line"/>
		</contour>
		<contour>
			<point x="308.488" y="602.272" type="line"/>
			<point x="267.481" y="561.571" type="line"/>
			<point x="225.414" y="559.566" type="line"/>
			<point x="201.293" y="610.099" type="line"/>
			<point x="256.055" y="646.779" type="line"/>
		</contour>
		<contour>
			<point x="431.75" y="661.267" type="line"/>
			<point x="433.666" y="625.018" type="line"/>
			<point x="406.073" y="608.153" type="line"/>
			<point x="385.524" y="631.01" type="line"/>
			<point x="397" y="656.785" type="line"/>
		</contour>
		<contour>
			<point x="363.718" y="307.474" type="line"/>
			<point x="360.726" y="292.142" type="line"/>
			<point x="346.439" y="297.453" type="line"/>
			<point x="339.192" y="310.861" type="line"/>
			<point x="353.872" y="314.962" type="line"/>
		</contour>
		<contour>
			<point x="400.801" y="575.432" type="line"/>
			<point x="414.997" y="563.314" type="line"/>
			<point x="403.837" y="543.144" type="line"/>
			<point x="386.618" y="555.176" type="line"/>
			<point x="385.532" y="571.03" type="line"/>
		</contour>
		<contour>
			<point x="115.988" y="188.471" type="line"/>
			<point x="111.659" y="175.863" type="line"/>
			<point x="96.897" y="179.819" type="line"/>
			<point x="92.743" y="197.259" type="line"/>
			<point x="110.365" y="200.557" type="line"/>
		</contour>
		<contour>
			<point x="452.928" y="257" type="line"/>
			<point x="451.945" y="247.647" type="line"/>
			<point x="443.153" y="246.605" type="line"/>
			<point x="440.033" y="253.627" type="line"/>
			<point x="444.129" y="261.803" type="line"/>
		</contour>
	</outline>
</glyph>
<glyph name="S" format="2">
	<advance width="697"/>
	<unicode hex="0053"/>
	<anchor x="349" y="700" name="top"/>
	<anchor x="349" y="0" name="bottom"/>
	<outline>
		<contour>
			<point x="330.642" y="10.204" type="line"/>
			<point x="387.011" y="-18.334" type="line"/>
			<point x="422.789" y="15.187" type="line"/>
			<point x="462.679" y="-7.708" type="line"/>
			<point x="489.124" y="29.921" type="line"/>
			<point x="534.309" y="21.4" type="line"/>
			<point x="558.547" y="60.474" type="line"/>
			<point x="592.81" y="46.817" type="line"/>
			<point x="591.105" y="83.662" type="line"/>
			<point x="633.682" y="79.662" type="line"/>
			<point x="626.291" y="121.783" type="line"/>
			<point x="667.835" y="137.554" type="line"/>
			<point x="653.176" y="179.504" type="line"/>
			<point x="694.821" y="200.308" type="line"/>
			<point x="658.974" y="230.007" type="line"/>
			<point x="687.452" y="264.27" type="line"/>
			<point x="650.582" y="289.282" type="line"/>
			<point x="661.604" y="329.378" type="line"/>
			<point x="621.823" y="341.489" type="line"/>
			<point x="630.363" y="385.422" type="line"/>
			<point x="588.373" y="369.934" type="line"/>
			<point x="565.139" y="405.781" type="line"/>
			<point x="522.881" y="399.525" type="line"/>
			<point x="489.424" y="423.248" type="line"/>
			<point x="448.889" y="416.995" type="line"/>
			<point x="412.561" y="449.047" type="line"/>
			<point x="368.719" y="428.433" type="line"/>
			<point x="350.289" y="449.5" type="line"/>
			<point x="324.91" y="437.694" type="line"/>
			<point x="315.948" y="481.594" type="line"/>
			<point x="272.149" y="491.037" type="line"/>
			<point x="317.605" y="492.888" type="line"/>
			<point x="335.016" y="534.919" type="line"/>
			<point x="359.828" y="512.635" type="line"/>
			<point x="391.916" y="521.719" type="line"/>
			<point x="419.362" y="495.351" type="line"/>
			<point x="457" y="501" type="line"/>
			<point x="481" y="480.7" type="line"/>
			<point x="505" y="501" type="line"/>
			<point x="525" y="477.9" type="line"/>
			<point x="545" y="501" type="line"/>
			<point x="567" y="484.9" type="line"/>
			<point x="589" y="501" type="line"/>
			<point x="617.083" y="488.988" type="line"/>
			<point x="632.974" y="515.073" type="line"/>
			<point x="660.639" y="552.971" type="line"/>
			<point x="615.05" y="564.073" type="line"/>
			<point x="624.5" y="608.806" type="line"/>
			<point x="578.807" y="607.244" type="line"/>
			<point x="575.043" y="654.112" type="line"/>
			<point x="529.526" y="642.323" type="line"/>
			<point x="516.767" y="682.28" type="line"/>
			<point x="478.161" y="665.882" type="line"/>
			<point x="461.111" y="709.206" type="line"/>
			<point x="423.798" y="681.359" type="line"/>
			<point x="381.85" y="705.576" type="line"/>
			<point x="335.992" y="689.984" type="line"/>
			<point x="291.906" y="708.727" type="line"/>
			<point x="252.356" y="681.695" type="line"/>
			<point x="218.199" y="707.516" type="line"/>
			<point x="202.185" y="667.804" type="line"/>
			<point x="154.201" y="677.742" type="line"/>
			<point x="134.885" y="632.707" type="line"/>
			<point x="88.727" y="621.286" type="line"/>
			<point x="80.627" y="574.431" type="line"/>
			<point x="49.256" y="554.558" type="line"/>
			<point x="58.875" y="518.69" type="line"/>
			<point x="23.091" y="500.365" type="line"/>
			<point x="55.034" y="475.954" type="line"/>
			<point x="26.491" y="452.42" type="line"/>
			<point x="59.557" y="435.83" type="line"/>
			<point x="35.398" y="392.859" type="line"/>
			<point x="83.067" y="380.297" type="line"/>
			<point x="83.975" y="348.282" type="line"/>
			<point x="115.8" y="344.694" type="line"/>
			<point x="128.237" y="319.238" type="line"/>
			<point x="156.558" y="318.522" type="line"/>
			<point x="179.019" y="292.593" type="line"/>
			<point x="213.076" y="296.703" type="line"/>
			<point x="253.538" y="272.979" type="line"/>
			<point x="299.991" y="279.468" type="line"/>
			<point x="331.882" y="250.13" type="line"/>
			<point x="371.464" y="267.767" type="line"/>
			<point x="395.386" y="235.912" type="line"/>
			<point x="435.213" y="236.799" type="line"/>
			<point x="396.207" y="216.009" type="line"/>
			<point x="418.855" y="178.051" type="line"/>
			<point x="377.547" y="190.866" type="line"/>
			<point x="342.853" y="165.043" type="line"/>
			<point x="319.574" y="194.871" type="line"/>
			<point x="286.378" y="176.714" type="line"/>
			<point x="259.22" y="207.67" type="line"/>
			<point x="218.125" y="205" type="line"/>
			<point x="190.417" y="223.2" type="line"/>
			<point x="162.708" y="205" type="line"/>
			<point x="135" y="228.1" type="line"/>
			<point x="107.292" y="205" type="line"/>
			<point x="85.521" y="219.7" type="line"/>
			<point x="63.75" y="205" type="line"/>
			<point x="38.627" y="194.142" type="line"/>
			<point x="42.958" y="167.117" type="line"/>
			<point x="25.849" y="122.858" type="line"/>
			<point x="71.444" y="109.715" type="line"/>
			<point x="59.693" y="70.179" type="line"/>
			<point x="99.528" y="80.873" type="line"/>
			<point x="112.354" y="48.793" type="line"/>
			<point x="146.869" y="50.324" type="line"/>
			<point x="166.713" y="5.573" type="line"/>
			<point x="211.01" y="26.412" type="line"/>
			<point x="230.063" y="-11.173" type="line"/>
			<point x="262.353" y="15.902" type="line"/>
			<point x="294.253" y="-13.854" type="line"/>
		</contour>
		<contour>
			<point x="511.481" y="374.761" type="line"/>
			<point x="522.896" y="363.706" type="line"/>
			<point x="515.762" y="347.499" type="line"/>
			<point x="501.686" y="355.18" type="line"/>
			<point x="500.254" y="366.848" type="line"/>
		</contour>
		<contour>
			<point x="155.908" y="460.992" type="line"/>
			<point x="215.247" y="427.419" type="line"/>
			<point x="193.43" y="354.117" type="line"/>
			<point x="124.307" y="368.27" type="line"/>
			<point x="109.615" y="424.627" type="line"/>
		</contour>
		<contour>
			<point x="448.419" y="78.703" type="line"/>
			<point x="460.963" y="70.046" type="line"/>
			<point x="451.619" y="55.092" type="line"/>
			<point x="439.106" y="63.215" type="line"/>
			<point x="434.975" y="75.889" type="line"/>
		</contour>
		<contour>
			<point x="377.66" y="99.428" type="line"/>
			<point x="375.936" y="89.291" type="line"/>
			<point x="368.065" y="85.238" type="line"/>
			<point x="359.027" y="92.233" type="line"/>
			<point x="367.378" y="99.49" type="line"/>
		</contour>
		<contour>
			<point x="557.389" y="570.815" type="line"/>
			<point x="555.096" y="563.132" type="line"/>
			<point x="549.538" y="561.218" type="line"/>
			<point x="543.001" y="565.86" type="line"/>
			<point x="548.721" y="572.619" type="line"/>
		</contour>
		<contour>
			<point x="490.297" y="256.394" type="line"/>
			<point x="520.724" y="228.509" type="line"/>
			<point x="495.411" y="199.53" type="line"/>
			<point x="469.373" y="210.36" type="line"/>
			<point x="465.633" y="234.181" type="line"/>
		</contour>
		<contour>
			<point x="321.995" y="618.564" type="line"/>
			<point x="290" y="586.483" type="line"/>
			<point x="258.933" y="588.935" type="line"/>
			<point x="255.075" y="618.762" type="line"/>
			<point x="280.24" y="639.83" type="line"/>
		</contour>
		<contour>
			<point x="536.649" y="597.456" type="line"/>
			<point x="531.59" y="585.787" type="line"/>
			<point x="522.744" y="580.545" type="line"/>
			<point x="515.002" y="590.192" type="line"/>
			<point x="523.076" y="599.563" type="line"/>
		</contour>
		<contour>
			<point x="446.504" y="618.948" type="line"/>
			<point x="451.976" y="597.233" type="line"/>
			<point x="430.799" y="583.224" type="line"/>
			<point x="414.304" y="602.527" type="line"/>
			<point x="427.427" y="618.361" type="line"/>
		</contour>
		<contour>
			<point x="568.154" y="125.423" type="line"/>
			<point x="551.966" y="91.428" type="line"/>
			<point x="513.038" y="91.585" type="line"/>
			<point x="495.498" y="135.192" type="line"/>
			<point x="539.138" y="153.863" type="line"/>
		</contour>
		<contour>
			<point x="280.785" y="161.993" type="line"/>
			<point x="312.514" y="126.941" type="line"/>
			<point x="297.207" y="92.425" type="line"/>
			<point x="257.131" y="86.652" type="line"/>
			<point x="239.343" y="131" type="line"/>
		</contour>
		<contour>
			<point x="413.785" y="375.62" type="line"/>
			<point x="414.83" y="362.117" type="line"/>
			<point x="402.076" y="359.437" type="line"/>
			<point x="385.003" y="368.651" type="line"/>
			<point x="401.419" y="379.401" type="line"/>
		</contour>
		<contour>
			<point x="246.32" y="522.216" type="line"/>
			<point x="255.16" y="492.661" type="line"/>
			<point x="222.753" y="481.954" type="line"/>
			<point x="194.049" y="507.116" type="line"/>
			<point x="220.324" y="534.207" type="line"/>
		</contour>
		<contour>
			<point x="372.435" y="338.435" type="line"/>
			<point x="377.711" y="315.466" type="line"/>
			<point x="357.123" y="313.148" type="line"/>
			<point x="348.135" y="323.279" type="line"/>
			<point x="353.098" y="336.583" type="line"/>
		</contour>
		<contour>
			<point x="168.572" y="588.756" type="line"/>
			<point x="166.075" y="569.503" type="line"/>
			<point x="146.967" y="563.431" type="line"/>
			<point x="138.061" y="581.394" type="line"/>
			<point x="150.401" y="595.59" type="line"/>
		</contour>
		<contour>
			<point x="152.14" y="79.999" type="line"/>
			<point x="162.519" y="75.216" type="line"/>
			<point x="158.883" y="62.17" type="line"/>
			<point x="145.982" y="64.014" type="line"/>
			<point x="140.654" y="75.907" type="line"/>
		</contour>
		<contour>
			<point x="230.937" y="66.814" type="line"/>
			<point x="212.867" y="45.529" type="line"/>
			<point x="189.679" y="52.144" type="line"/>
			<point x="189.735" y="74.539" type="line"/>
			<point x="208.629" y="79.554" type="line"/>
		</contour>
	</outline>
</glyph>
<glyph name="T" format="2">
	<advance width="674"/>
	<unicode hex="0054"/>
	<outline>
		<contour>
			<point x="230" y="58.867" type="line"/>
			<point x="263" y="-14" type="line"/>
			<point x="289" y="20" type="line"/>
			<point x="321" y="0" type="line"/>
			<point x="353" y="20" type="line"/>
			<point x="375" y="-4" type="line"/>
			<point x="397" y="20" type="line"/>
			<point x="427.829" y="11.297" type="line"/>
			<point x="444" y="38.95" type="line"/>
			<point x="465" y="62.85" type="line"/>
			<point x="444" y="86.75" type="line"/>
			<point x="467" y="126.583" type="line"/>
			<point x="444" y="166.417" type="line"/>
			<point x="478" y="186.333" type="line"/>
			<point x="444" y="206.25" type="line"/>
			<point x="481" y="242.1" type="line"/>
			<point x="444" y="277.95" type="line"/>
			<point x="465" y="301.85" type="line"/>
			<point x="444" y="325.75" type="line"/>
			<point x="471" y="363.592" type="line"/>
			<point x="444" y="401.433" type="line"/>
			<point x="470" y="423.342" type="line"/>
			<point x="444" y="445.25" type="line"/>
			<point x="472.88" y="468.837" type="line"/>
			<point x="463.787" y="505" type="line"/>
			<point x="487.532" y="482" type="line"/>
			<point x="511.277" y="505" type="line"/>
			<point x="546.894" y="482" type="line"/>
			<point x="582.511" y="505" type="line"/>
			<point x="616.211" y="505.11" type="line"/>
			<point x="637" y="531.634" type="line"/>
			<point x="665" y="555.195" type="line"/>
			<point x="637" y="578.756" type="line"/>
			<point x="661" y="618.024" type="line"/>
			<point x="637" y="657.293" type="line"/>
			<point x="632.908" y="689.183" type="line"/>
			<point x="602.095" y="680" type="line"/>
			<point x="560.238" y="711" type="line"/>
			<point x="518.381" y="680" type="line"/>
			<point x="482.503" y="718" type="line"/>
			<point x="446.626" y="680" type="line"/>
			<point x="404.769" y="713" type="line"/>
			<point x="362.912" y="680" type="line"/>
			<point x="323.048" y="708" type="line"/>
			<point x="283.184" y="680" type="line"/>
			<point x="257.272" y="703" type="line"/>
			<point x="231.361" y="680" type="line"/>
			<point x="205.449" y="713" type="line"/>
			<point x="179.537" y="680" type="line"/>
			<point x="147.646" y="708" type="line"/>
			<point x="115.755" y="680" type="line"/>
			<point x="95.823" y="708" type="line"/>
			<point x="75.891" y="680" type="line"/>
			<point x="37.632" y="669.479" type="line"/>
			<point x="37" y="629.805" type="line"/>
			<point x="3" y="604.28" type="line"/>
			<point x="37" y="578.756" type="line"/>
			<point x="11" y="549.305" type="line"/>
			<point x="37" y="519.854" type="line"/>
			<point x="67.079" y="477.126" type="line"/>
			<point x="111.277" y="505" type="line"/>
			<point x="140.957" y="477" type="line"/>
			<point x="170.638" y="505" type="line"/>
			<point x="194.383" y="471" type="line"/>
			<point x="218.128" y="505" type="line"/>
			<point x="197.582" y="469.863" type="line"/>
			<point x="230" y="445.25" type="line"/>
			<point x="207" y="423.342" type="line"/>
			<point x="230" y="401.433" type="line"/>
			<point x="198" y="367.575" type="line"/>
			<point x="230" y="333.717" type="line"/>
			<point x="191" y="309.817" type="line"/>
			<point x="230" y="285.917" type="line"/>
			<point x="197" y="264.008" type="line"/>
			<point x="230" y="242.1" type="line"/>
			<point x="207" y="212.225" type="line"/>
			<point x="230" y="182.35" type="line"/>
			<point x="196" y="156.458" type="line"/>
			<point x="230" y="130.567" type="line"/>
			<point x="210" y="94.717" type="line"/>
		</contour>
		<contour>
			<point x="292.982" y="645.012" type="line"/>
			<point x="274.945" y="613.93" type="line"/>
			<point x="245.876" y="629.84" type="line"/>
			<point x="239.129" y="660.776" type="line"/>
			<point x="271.718" y="670.915" type="line"/>
		</contour>
		<contour>
			<point x="403.132" y="486.37" type="line"/>
			<point x="402.572" y="455.639" type="line"/>
			<point x="376.601" y="444.615" type="line"/>
			<point x="340.16" y="464.339" type="line"/>
			<point x="372.232" y="491.013" type="line"/>
		</contour>
		<contour>
			<point x="328.077" y="190.098" type="line"/>
			<point x="309.481" y="154.571" type="line"/>
			<point x="271.35" y="157.095" type="line"/>
			<point x="266.305" y="193.331" type="line"/>
			<point x="295.789" y="213.878" type="line"/>
		</contour>
		<contour>
			<point x="390.656" y="359.928" type="line"/>
			<point x="405.564" y="344.824" type="line"/>
			<point x="395.695" y="329.857" type="line"/>
			<point x="378.503" y="328.925" type="line"/>
			<point x="372.431" y="348.033" type="line"/>
		</contour>
		<contour>
			<point x="565.84" y="588.676" type="line"/>
			<point x="566.458" y="552.382" type="line"/>
			<point x="531.041" y="553.53" type="line"/>
			<point x="516.253" y="579.619" type="line"/>
			<point x="538.006" y="598.651" type="line"/>
		</contour>
		<contour>
			<point x="333.157" y="550.999" type="line"/>
			<point x="340.65" y="544.339" type="line"/>
			<point x="338.162" y="534.628" type="line"/>
			<point x="329.389" y="537.208" type="line"/>
			<point x="325.436" y="544.605" type="line"/>
		</contour>
		<contour>
			<point x="228.523" y="602.977" type="line"/>
			<point x="231.09" y="591.857" type="line"/>
			<point x="223.408" y="591.717" type="line"/>
			<point x="218.795" y="600.907" type="line"/>
		</contour>
		<contour>
			<point x="358.303" y="627.961" type="line"/>
			<point x="352.743" y="605.59" type="line"/>
			<point x="327.455" y="605.664" type="line"/>
			<point x="325.025" y="628.814" type="line"/>
			<point x="341.523" y="637.991" type="line"/>
		</contour>
		<contour>
			<point x="179.728" y="585.694" type="line"/>
			<point x="180.803" y="578.086" type="line"/>
			<point x="173.346" y="576.232" type="line"/>
			<point x="168.004" y="581.756" type="line"/>
			<point x="173.29" y="586.698" type="line"/>
		</contour>
		<contour>
			<point x="337.651" y="256.481" type="line"/>
			<point x="334.592" y="245.71" type="line"/>
			<point x="322.843" y="246.12" type="line"/>
			<point x="320.543" y="257.078" type="line"/>
			<point x="329.314" y="262.995" type="line"/>
		</contour>
		<contour>
			<point x="423.59" y="187.599" type="line"/>
			<point x="421.906" y="160.856" type="line"/>
			<point x="392.911" y="166.642" type="line"/>
			<point x="382.226" y="194.94" type="line"/>
			<point x="410.005" y="206.912" type="line"/>
		</contour>
	</outline>
</glyph>
<glyph name="U" format="2">
	<advance width="746"/>
	<unicode hex="0055"/>
	<anchor x="671" y="10" name="ogonek"/>
	<anchor x="373" y="700" name="top"/>
	<anchor x="726" y="700" name="topright"/>
	<anchor x="373" y="0" name="bottom"/>
	<outline>
		<contour>
			<point x="301.129" y="14.568" type="line"/>
			<point x="403.825" y="-24.612" type="line"/>
			<point x="430.204" y="12.693" type="line"/>
			<point x="466.419" y="-20.735" type="line"/>
			<point x="489.625" y="22.744" type="line"/>
			<point x="540.879" y="7.506" type="line"/>
			<point x="567.888" y="53.654" type="line"/>
			<point x="602.2" y="39.988" type="line"/>
			<point x="600.639" y="76.889" type="line"/>
			<point x="650.929" y="85.194" type="line"/>
			<point x="648.214" y="136.093" type="line"/>
			<point x="692.795" y="149.122" type="line"/>
			<point x="668.245" y="188.55" type="line"/>
			<point x="701.167" y="214.307" type="line"/>
			<point x="676.658" y="248.169" type="line"/>
			<point x="698.829" y="281.783" type="line"/>
			<point x="677" y="315.621" type="line"/>
			<point x="705" y="345.403" type="line"/>
			<point x="677" y="375.184" type="line"/>
			<point x="716" y="412.908" type="line"/>
			<point x="677" y="450.631" type="line"/>
			<point x="706" y="476.442" type="line"/>
			<point x="677" y="502.252" type="line"/>
			<point x="716" y="522.107" type="line"/>
			<point x="677" y="541.961" type="line"/>
			<point x="699" y="571.743" type="line"/>
			<point x="677" y="601.524" type="line"/>
			<point x="712" y="625.35" type="line"/>
			<point x="677" y="649.175" type="line"/>
			<point x="660.794" y="684.738" type="line"/>
			<point x="622" y="680" type="line"/>
			<point x="592" y="717" type="line"/>
			<point x="562" y="680" type="line"/>
			<point x="536" y="702" type="line"/>
			<point x="510" y="680" type="line"/>
			<point x="475.67" y="671.541" type="line"/>
			<point x="467" y="637.265" type="line"/>
			<point x="443.2" y="605.5" type="line"/>
			<point x="467" y="573.735" type="line"/>
			<point x="452.3" y="536.015" type="line"/>
			<point x="467" y="498.294" type="line"/>
			<point x="443.9" y="476.456" type="line"/>
			<point x="467" y="454.618" type="line"/>
			<point x="441.8" y="432.779" type="line"/>
			<point x="467" y="410.941" type="line"/>
			<point x="450.9" y="379.176" type="line"/>
			<point x="467" y="347.412" type="line"/>
			<point x="441.8" y="313.662" type="line"/>
			<point x="467" y="279.912" type="line"/>
			<point x="436.39" y="254.315" type="line"/>
			<point x="458.424" y="221.048" type="line"/>
			<point x="421.423" y="222.783" type="line"/>
			<point x="431.313" y="187.086" type="line"/>
			<point x="392.338" y="203.468" type="line"/>
			<point x="364.997" y="171.221" type="line"/>
			<point x="346.281" y="197.883" type="line"/>
			<point x="315.834" y="186.303" type="line"/>
			<point x="320.859" y="220.343" type="line"/>
			<point x="286.592" y="223.462" type="line"/>
			<point x="306.31" y="251.396" type="line"/>
			<point x="279" y="271.971" type="line"/>
			<point x="293.7" y="291.824" type="line"/>
			<point x="279" y="311.676" type="line"/>
			<point x="295.8" y="351.382" type="line"/>
			<point x="279" y="391.088" type="line"/>
			<point x="294.4" y="416.897" type="line"/>
			<point x="279" y="442.706" type="line"/>
			<point x="294.4" y="476.456" type="line"/>
			<point x="279" y="510.206" type="line"/>
			<point x="305.6" y="547.926" type="line"/>
			<point x="279" y="585.647" type="line"/>
			<point x="301.4" y="627.338" type="line"/>
			<point x="279" y="669.029" type="line"/>
			<point x="247.012" y="697.245" type="line"/>
			<point x="208" y="680" type="line"/>
			<point x="182" y="715" type="line"/>
			<point x="156" y="680" type="line"/>
			<point x="128" y="701" type="line"/>
			<point x="100" y="680" type="line"/>
			<point x="71.714" y="659.928" type="line"/>
			<point x="69" y="625.35" type="line"/>
			<point x="34" y="601.524" type="line"/>
			<point x="69" y="577.699" type="line"/>
			<point x="31" y="551.888" type="line"/>
			<point x="69" y="526.078" type="line"/>
			<point x="48" y="506.223" type="line"/>
			<point x="69" y="486.369" type="line"/>
			<point x="45" y="466.515" type="line"/>
			<point x="69" y="446.66" type="line"/>
			<point x="43" y="410.922" type="line"/>
			<point x="69" y="375.184" type="line"/>
			<point x="47" y="341.432" type="line"/>
			<point x="69" y="307.68" type="line"/>
			<point x="42.044" y="281.763" type="line"/>
			<point x="69.087" y="255.939" type="line"/>
			<point x="51.16" y="221.322" type="line"/>
			<point x="76.907" y="192.051" type="line"/>
			<point x="68.778" y="156.804" type="line"/>
			<point x="98.097" y="135.618" type="line"/>
			<point x="100.516" y="85.644" type="line"/>
			<point x="149.157" y="73.926" type="line"/>
			<point x="149.907" y="35.026" type="line"/>
			<point x="186.041" y="49.454" type="line"/>
			<point x="202.957" y="16.542" type="line"/>
			<point x="238.137" y="28.019" type="line"/>
			<point x="263.994" y="-5.111" type="line"/>
		</contour>
		<contour>
			<point x="162.297" y="550.394" type="line"/>
			<point x="189.747" y="522.144" type="line"/>
			<point x="169.946" y="488.092" type="line"/>
			<point x="139.91" y="502.996" type="line"/>
			<point x="129.761" y="532.544" type="line"/>
		</contour>
		<contour>
			<point x="438.809" y="110.229" type="line"/>
			<point x="446.773" y="88.356" type="line"/>
			<point x="422.686" y="67.302" type="line"/>
			<point x="398.441" y="92.964" type="line"/>
			<point x="415.263" y="120.074" type="line"/>
		</contour>
		<contour>
			<point x="96.583" y="449.902" type="line"/>
			<point x="92.071" y="436.929" type="line"/>
			<point x="80.914" y="435.981" type="line"/>
			<point x="72.16" y="446.034" type="line"/>
			<point x="83.123" y="455.852" type="line"/>
		</contour>
		<contour>
			<point x="665.355" y="441.674" type="line"/>
			<point x="619.501" y="350.466" type="line"/>
			<point x="536" y="335.182" type="line"/>
			<point x="482.054" y="420.544" type="line"/>
			<point x="563.756" y="498.463" type="line"/>
		</contour>
		<contour>
			<point x="630.368" y="171.762" type="line"/>
			<point x="638.963" y="154.954" type="line"/>
			<point x="628.113" y="139.505" type="line"/>
			<point x="612.127" y="148.581" type="line"/>
			<point x="615.574" y="163.071" type="line"/>
		</contour>
		<contour>
			<point x="182.572" y="409.15" type="line"/>
			<point x="181.547" y="397.439" type="line"/>
			<point x="171.265" y="397.556" type="line"/>
			<point x="165.034" y="404.784" type="line"/>
			<point x="171.75" y="413.744" type="line"/>
		</contour>
		<contour>
			<point x="378.628" y="146.978" type="line"/>
			<point x="391.584" y="141.387" type="line"/>
			<point x="383.829" y="128.671" type="line"/>
			<point x="369" y="127.275" type="line"/>
			<point x="368.728" y="141.746" type="line"/>
		</contour>
		<contour>
			<point x="134.597" y="639.436" type="line"/>
			<point x="149.951" y="622.395" type="line"/>
			<point x="138.991" y="598.748" type="line"/>
			<point x="110.849" y="604.93" type="line"/>
			<point x="103.711" y="637.427" type="line"/>
		</contour>
		<contour>
			<point x="539.08" y="660.903" type="line"/>
			<point x="544.557" y="646.635" type="line"/>
			<point x="532.733" y="636.019" type="line"/>
			<point x="518.93" y="644.983" type="line"/>
			<point x="521.931" y="662.434" type="line"/>
		</contour>
		<contour>
			<point x="242.405" y="198.944" type="line"/>
			<point x="245.364" y="181.983" type="line"/>
			<point x="233" y="172" type="line"/>
			<point x="219.685" y="181.674" type="line"/>
			<point x="224.183" y="198.135" type="line"/>
		</contour>
		<contour>
			<point x="239.65" y="493.339" type="line"/>
			<point x="236.015" y="485.266" type="line"/>
			<point x="227.185" y="484.611" type="line"/>
			<point x="222.545" y="494.256" type="line"/>
			<point x="232.157" y="499.999" type="line"/>
		</contour>
		<contour>
			<point x="630.634" y="655.271" type="line"/>
			<point x="632.021" y="624.82" type="line"/>
			<point x="613" y="610" type="line"/>
			<point x="594.93" y="625.129" type="line"/>
			<point x="598.305" y="651.225" type="line"/>
		</contour>
		<contour>
			<point x="501.285" y="614.517" type="line"/>
			<point x="499.561" y="603.453" type="line"/>
			<point x="488.365" y="603.285" type="line"/>
			<point x="482.282" y="613.474" type="line"/>
			<point x="492.216" y="619.966" type="line"/>
		</contour>
		<contour>
			<point x="554.846" y="73.35" type="line"/>
			<point x="553.635" y="64.285" type="line"/>
			<point x="545.72" y="68.226" type="line"/>
			<point x="542.556" y="74.735" type="line"/>
			<point x="549.523" y="77.977" type="line"/>
		</contour>
		<contour>
			<point x="250.057" y="367.258" type="line"/>
			<point x="250.042" y="330.958" type="line"/>
			<point x="212.38" y="328.27" type="line"/>
			<point x="197.357" y="359.537" type="line"/>
			<point x="220.368" y="390.557" type="line"/>
		</contour>
		<contour>
			<point x="142.947" y="334.225" type="line"/>
			<point x="144.351" y="320.969" type="line"/>
			<point x="128.863" y="317.417" type="line"/>
			<point x="122.127" y="331.809" type="line"/>
			<point x="133.09" y="340.833" type="line"/>
		</contour>
	</outline>
</glyph>
